{"glyphs":{"0":{"ha":689,"x_min":14,"x_max":660,"o":"m 340 -10 q 214 12 267 -10 q 124 71 161 33 q 66 158 88 108 q 33 263 44 207 q 17 377 21 318 q 14 492 14 436 q 27 663 14 575 q 76 823 40 751 q 175 941 111 894 q 340 988 239 988 q 515 942 451 988 q 611 824 579 896 q 651 663 643 751 q 660 492 660 575 q 647 318 660 407 q 599 156 635 229 q 502 37 564 83 q 340 -10 440 -10 m 340 7 q 386 31 367 7 q 419 94 406 54 q 443 184 433 133 q 458 288 453 235 q 466 395 464 342 q 468 492 468 449 q 466 588 468 535 q 458 693 464 640 q 443 796 453 746 q 419 885 433 846 q 385 947 406 924 q 340 971 365 971 q 274 920 301 971 q 229 795 246 869 q 205 638 213 721 q 197 488 197 554 q 201 392 197 444 q 211 285 204 339 q 229 182 218 232 q 256 93 240 132 q 293 31 272 54 q 340 7 314 7 z "},"1":{"ha":347,"x_min":18,"x_max":314,"o":"m 78 836 q 59 890 78 868 q 18 922 40 911 q 76 926 40 922 q 147 935 111 929 q 214 951 183 942 q 256 975 244 961 l 264 972 l 264 92 q 274 34 264 51 q 314 0 285 17 l 26 0 q 67 40 57 19 q 78 92 78 60 l 78 836 z "},"2":{"ha":593,"x_min":17,"x_max":582,"o":"m 40 107 q 118 171 82 126 q 184 274 154 215 q 238 401 214 333 q 277 533 261 468 q 301 654 293 597 q 310 749 310 711 q 287 897 310 840 q 236 953 264 953 q 195 927 213 953 q 165 860 178 901 q 145 769 153 819 q 133 667 138 718 q 128 572 129 617 q 126 499 126 528 q 42 619 67 560 q 17 732 17 678 q 32 816 17 772 q 77 896 47 860 q 150 955 107 932 q 249 978 193 978 q 342 963 293 978 q 431 915 390 949 q 499 826 472 882 q 526 686 526 769 q 490 500 526 594 q 396 318 454 406 q 264 156 338 231 q 115 32 190 82 q 242 47 172 32 q 380 91 313 63 q 502 160 447 119 q 582 254 557 201 l 532 0 l 18 0 l 40 107 z "},"3":{"ha":574,"x_min":17,"x_max":533,"o":"m 485 772 q 440 641 485 703 q 315 553 396 579 q 417 518 375 543 q 484 457 458 493 q 522 376 510 421 q 533 286 533 332 q 514 167 533 222 q 455 71 494 111 q 355 7 415 31 q 211 -17 294 -17 q 131 0 167 -17 q 69 47 94 17 q 30 119 43 78 q 18 210 17 160 l 103 447 q 102 368 101 414 q 107 273 103 322 q 119 174 111 224 q 138 87 126 125 q 165 24 149 49 q 201 0 181 0 q 254 19 229 0 q 298 71 279 38 q 328 150 317 104 q 339 250 339 196 q 327 359 339 307 q 294 452 315 411 q 246 519 274 493 q 186 551 218 546 q 252 596 229 572 q 286 645 275 619 q 299 698 297 671 q 301 753 301 725 q 294 822 301 789 q 272 881 286 856 q 239 922 258 907 q 194 938 219 938 q 153 918 172 938 q 119 867 135 899 q 92 799 104 836 q 70 726 79 761 q 56 663 61 692 q 49 621 50 633 l 39 793 q 64 867 47 832 q 108 927 81 901 q 174 968 136 953 q 264 983 213 983 q 353 965 313 983 q 424 917 394 947 q 469 850 453 888 q 485 772 485 813 z "},"4":{"ha":561,"x_min":18,"x_max":539,"o":"m 292 247 l 18 247 l 18 347 l 328 975 l 489 975 l 489 97 q 500 41 489 63 q 539 0 511 19 l 240 0 q 267 22 257 11 q 283 43 278 32 q 290 67 289 54 q 292 97 292 81 l 292 247 m 82 411 l 292 411 l 308 865 l 82 411 z "},"5":{"ha":549,"x_min":-4,"x_max":515,"o":"m 76 565 q 111 619 93 594 q 152 663 129 644 q 206 691 175 681 q 282 701 238 701 q 320 696 297 701 q 368 675 343 690 q 418 633 393 660 q 463 565 443 606 q 496 466 483 524 q 508 331 508 408 q 477 143 508 213 q 399 38 446 74 q 297 -7 351 3 q 194 -17 242 -17 q 119 1 156 -17 q 55 53 82 18 q 12 140 28 88 q -3 263 -4 192 l 131 401 q 127 342 128 375 q 126 275 126 310 q 129 178 126 226 q 140 90 132 129 q 163 25 149 50 q 197 0 176 0 q 292 91 256 0 q 328 339 328 182 q 296 567 328 482 q 210 651 264 651 q 136 613 171 651 q 72 508 101 574 l 42 513 l 81 971 l 475 971 l 515 746 q 447 810 489 788 q 351 844 404 833 q 235 856 297 854 q 107 857 172 857 l 76 565 z "},"6":{"ha":618,"x_min":11,"x_max":582,"o":"m 192 528 q 247 615 207 579 q 339 651 286 651 q 419 644 376 651 q 497 606 461 636 q 558 517 533 576 q 582 353 582 457 q 572 233 582 296 q 532 116 561 169 q 449 27 503 63 q 310 -8 396 -8 q 194 13 249 -8 q 99 85 140 33 q 35 222 58 136 q 11 438 11 307 q 41 676 11 575 q 123 843 71 776 q 244 942 175 910 q 393 975 314 975 l 419 975 l 425 888 q 389 932 410 911 q 343 953 368 953 q 281 906 307 953 q 238 793 256 860 q 208 653 219 726 q 192 528 197 581 m 318 6 q 376 39 356 6 q 407 117 397 72 q 419 205 417 161 q 422 268 421 249 q 402 531 431 446 q 324 615 374 615 q 258 587 283 615 q 217 517 232 558 q 197 427 203 475 q 192 339 192 379 q 197 248 192 304 q 215 138 201 192 q 253 44 228 83 q 318 6 278 6 z "},"7":{"ha":483,"x_min":25,"x_max":503,"o":"m 61 0 q 92 231 61 115 q 174 456 124 346 q 289 669 225 567 q 418 857 353 771 q 185 829 283 857 q 25 749 86 801 l 61 971 l 503 971 l 460 899 q 376 706 406 815 q 333 478 347 597 q 316 235 319 358 q 308 0 313 111 l 61 0 z "},"8":{"ha":574,"x_min":18,"x_max":543,"o":"m 200 497 q 148 538 179 522 q 88 576 117 553 q 39 638 60 600 q 18 747 18 676 q 40 847 18 804 q 97 921 61 890 q 182 967 133 951 q 286 982 231 982 q 369 976 325 982 q 452 950 414 971 q 516 889 490 929 q 542 781 542 849 q 529 707 542 743 q 492 640 517 671 q 434 585 468 608 q 356 549 400 561 q 413 493 381 522 q 474 427 446 464 q 523 345 503 390 q 543 240 543 300 q 523 150 543 194 q 467 70 503 106 q 381 13 431 35 q 274 -8 332 -8 q 87 56 156 -8 q 18 228 18 119 q 40 367 18 315 q 91 447 61 419 q 151 485 121 475 q 200 497 182 494 m 343 561 q 357 596 351 578 q 366 637 363 614 q 371 690 369 660 q 372 761 372 721 q 276 964 372 964 q 208 924 232 964 q 185 807 185 883 q 200 719 185 754 q 239 657 215 683 q 290 609 263 631 q 343 561 318 588 m 378 175 q 363 272 378 229 q 324 351 349 315 q 270 419 300 388 q 211 485 240 451 q 172 388 182 446 q 161 271 161 329 q 192 80 161 151 q 278 8 224 8 q 350 54 322 8 q 378 175 378 100 z "},"9":{"ha":628,"x_min":7,"x_max":594,"o":"m 410 439 q 390 388 401 411 q 362 349 379 365 q 319 322 344 332 q 257 313 293 313 q 174 326 218 313 q 92 376 129 340 q 31 472 56 411 q 7 628 7 533 q 33 796 7 729 q 101 902 60 863 q 192 958 142 942 q 293 975 243 975 q 419 954 368 975 q 503 899 469 933 q 555 818 536 864 q 583 723 574 772 q 593 624 592 674 q 594 529 594 574 q 560 299 594 400 q 465 131 525 199 q 321 27 404 63 q 142 -8 238 -8 l 115 -8 l 111 79 q 147 35 126 56 q 192 14 167 14 q 265 60 228 14 q 331 174 301 107 q 383 313 361 240 q 410 439 404 386 m 283 961 q 228 928 249 961 q 198 850 208 894 q 185 762 188 806 q 182 699 182 718 q 188 533 182 601 q 206 423 193 465 q 238 362 218 381 q 285 343 257 343 q 347 373 322 343 q 385 446 371 403 q 404 539 399 489 q 410 628 410 589 q 406 719 410 663 q 388 829 401 775 q 349 922 374 883 q 283 961 324 961 z "},"\u0000":{"ha":0,"x_min":0,"x_max":0,"o":""},"\r":{"ha":347,"x_min":0,"x_max":0,"o":""}," ":{"ha":278,"x_min":0,"x_max":0,"o":""},"!":{"ha":267,"x_min":25,"x_max":235,"o":"m 117 214 q 104 352 117 263 q 76 547 92 442 q 47 763 61 653 q 25 963 32 872 q 31 978 25 969 q 49 994 36 986 q 82 1006 61 1001 q 135 1011 103 1011 q 207 994 179 1011 q 235 963 235 976 q 215 768 228 874 q 190 560 203 663 q 166 366 176 457 q 151 214 156 275 l 117 214 m 81 61 q 94 113 81 92 q 132 133 107 133 q 172 113 157 133 q 186 61 186 93 q 171 13 186 32 q 132 -7 156 -7 q 94 12 108 -7 q 81 61 81 31 z "},"\"":{"ha":219,"x_min":18,"x_max":200,"o":"m 36 838 l 18 982 q 31 1008 18 999 q 58 1017 43 1017 q 83 1008 72 1017 q 94 982 94 1000 l 76 838 l 36 838 m 142 838 l 124 982 q 136 1008 124 999 q 164 1017 149 1017 q 189 1008 178 1017 q 200 982 200 1000 l 182 838 l 142 838 z "},"#":{"ha":639,"x_min":18,"x_max":474,"o":"m 111 413 l 18 413 l 18 472 l 115 472 l 131 635 l 18 635 l 18 694 l 136 694 l 167 1033 l 233 1033 l 201 694 l 308 694 l 336 1033 l 406 1033 l 372 694 l 474 694 l 474 635 l 368 635 l 351 472 l 474 472 l 474 413 l 349 413 l 310 28 l 249 28 l 282 413 l 176 413 l 140 28 l 76 28 l 111 413 m 289 472 l 303 635 l 197 635 l 182 472 l 289 472 z "},"$":{"ha":567,"x_min":3,"x_max":497,"o":"m 172 825 q 199 826 186 826 q 225 826 213 826 l 225 893 l 256 893 l 256 826 q 377 823 319 826 q 479 819 435 819 l 490 819 l 460 533 l 449 533 q 427 610 440 569 q 392 686 414 650 q 337 751 369 722 q 256 794 304 781 l 256 579 q 321 533 288 558 q 384 475 354 507 q 438 404 414 443 q 476 318 463 365 q 497 197 497 250 q 478 102 497 142 q 425 37 458 63 q 348 -1 392 11 q 256 -14 304 -12 l 256 -103 l 225 -103 l 225 -14 q 160 -12 189 -14 q 108 -10 132 -11 q 62 -8 83 -10 q 17 -4 40 -7 l 46 442 l 57 442 q 79 276 65 354 q 113 140 93 199 q 160 45 132 81 q 225 6 188 10 l 225 386 q 142 460 182 429 q 70 519 101 490 q 21 583 39 549 q 3 671 3 618 q 12 726 3 699 q 41 774 21 753 q 93 810 61 796 q 172 825 125 824 m 256 8 q 318 58 297 18 q 339 150 339 97 q 256 356 339 261 l 256 8 m 225 800 q 179 804 204 804 q 114 783 136 804 q 92 733 92 761 q 99 703 92 715 q 144 652 110 676 q 225 599 179 628 l 225 800 z "},"%":{"ha":792,"x_min":22,"x_max":842,"o":"m 549 1032 l 618 1032 l 281 0 l 215 0 l 549 1032 m 228 613 q 140 628 178 613 q 75 672 101 644 q 35 737 49 700 q 22 814 22 774 q 35 892 22 856 q 75 958 49 929 q 140 1002 101 986 q 228 1018 178 1018 q 315 1002 276 1018 q 379 958 353 986 q 419 892 406 929 q 433 814 433 856 q 419 737 433 774 q 379 672 406 700 q 315 628 353 644 q 228 613 276 613 m 124 811 q 128 756 124 788 q 146 695 133 724 q 178 647 158 667 q 228 626 199 626 q 276 647 257 626 q 308 696 296 667 q 326 757 321 725 q 331 813 331 789 q 326 870 331 838 q 308 931 321 903 q 276 980 296 960 q 228 1000 257 1000 q 178 980 199 1000 q 146 931 158 960 q 128 869 133 901 q 124 811 124 836 m 636 21 q 548 37 586 21 q 483 81 510 53 q 444 145 457 108 q 431 222 431 182 q 444 301 431 264 q 483 366 457 338 q 548 410 510 394 q 636 426 586 426 q 723 410 685 426 q 788 366 761 394 q 828 301 814 338 q 842 222 842 264 q 828 145 842 182 q 788 81 814 108 q 723 37 761 53 q 636 21 685 21 m 532 219 q 537 164 532 196 q 554 103 542 132 q 587 55 567 75 q 636 35 607 35 q 685 55 665 35 q 717 104 704 75 q 734 165 729 133 q 739 221 739 197 q 734 278 739 246 q 717 340 729 311 q 685 388 704 368 q 636 408 665 408 q 587 388 607 408 q 554 339 567 368 q 537 277 542 310 q 532 219 532 244 z "},"&":{"ha":708,"x_min":3,"x_max":658,"o":"m 481 -57 q 505 -28 494 -47 q 522 15 515 -8 q 533 62 529 38 q 536 108 536 86 q 510 222 536 163 q 490 138 506 181 q 447 63 475 96 q 377 8 419 29 q 276 -14 335 -14 q 164 9 214 -14 q 78 74 114 32 q 22 178 42 117 q 3 318 3 240 q 18 422 3 371 q 60 518 33 474 q 127 596 88 563 q 214 646 167 629 q 175 797 175 719 q 186 881 175 839 q 222 956 197 922 q 287 1011 247 990 q 382 1032 326 1032 q 427 1023 401 1032 q 476 994 453 1014 q 515 941 499 974 q 531 861 531 908 q 525 806 531 836 q 507 743 519 776 l 390 793 q 405 874 399 835 q 411 942 411 913 q 406 979 411 965 q 385 993 400 993 q 335 956 354 993 q 317 874 317 919 q 326 813 317 840 q 377 724 343 767 q 451 637 411 681 q 530 545 490 593 q 600 442 569 497 q 601 515 603 476 q 592 587 599 553 q 572 649 585 621 q 542 692 560 676 l 603 775 q 646 713 633 751 q 658 629 658 675 q 646 521 658 576 q 614 417 633 465 q 641 334 631 376 q 651 249 651 292 q 636 134 651 186 q 597 42 621 82 q 544 -24 574 3 q 485 -64 514 -51 q 483 -60 483 -64 q 481 -57 482 -57 m 225 631 q 197 585 208 614 q 178 523 186 557 q 168 452 171 489 q 165 381 165 415 q 175 280 165 329 q 206 192 185 231 q 258 128 226 153 q 331 104 289 104 q 390 117 363 104 q 438 151 417 131 q 475 197 460 172 q 500 244 490 222 q 442 339 478 290 q 368 437 407 388 q 292 535 329 486 q 225 631 254 585 z "},"'":{"ha":107,"x_min":18,"x_max":94,"o":"m 36 838 l 18 982 q 31 1008 18 999 q 58 1017 43 1017 q 83 1008 72 1017 q 94 982 94 1000 l 76 838 l 36 838 z "},"(":{"ha":181,"x_min":17,"x_max":140,"o":"m 83 -28 q 34 209 51 75 q 17 486 17 343 q 34 763 17 629 q 83 1000 51 897 l 140 1000 q 124 896 131 954 q 112 771 117 838 q 104 632 107 704 q 101 486 101 560 q 104 340 101 413 q 112 201 107 268 q 124 76 117 135 q 140 -28 131 18 l 83 -28 z "},")":{"ha":151,"x_min":-6,"x_max":118,"o":"m -6 -28 q 13 76 6 18 q 25 201 19 135 q 33 340 31 268 q 35 486 35 413 q 33 632 35 560 q 25 771 31 704 q 13 896 19 838 q -6 1000 6 954 l 51 1000 q 102 763 86 897 q 118 486 118 629 q 102 209 118 343 q 51 -28 86 75 l -6 -28 z "},"*":{"ha":443,"x_min":125,"x_max":397,"o":"m 235 629 l 235 761 l 182 694 q 165 688 172 688 q 138 705 150 688 q 125 742 125 722 q 135 767 125 757 l 235 833 l 235 842 l 135 908 q 125 933 125 918 q 138 970 125 953 q 165 988 150 988 q 182 981 172 988 l 235 913 l 235 1051 l 289 1051 l 289 914 l 340 981 q 357 988 347 988 q 385 970 372 988 q 397 933 397 953 q 386 908 397 919 l 289 842 l 289 832 l 386 767 q 397 742 397 756 q 385 705 397 722 q 357 688 372 688 q 340 694 347 688 l 289 760 l 289 629 l 235 629 z "},"+":{"ha":414,"x_min":18,"x_max":394,"o":"m 18 439 l 172 439 l 172 636 l 235 636 l 235 439 l 394 439 l 394 385 l 235 385 l 235 165 l 172 165 l 172 385 l 18 385 l 18 439 z "},",":{"ha":174,"x_min":18,"x_max":124,"o":"m 51 -164 q 64 -132 57 -153 q 76 -87 71 -111 q 86 -40 82 -64 q 90 0 90 -17 q 68 -4 81 -4 q 33 13 49 -4 q 18 61 18 29 q 33 113 18 93 q 72 133 49 133 q 110 110 96 133 q 124 46 124 86 q 117 -14 124 18 q 102 -76 111 -46 q 83 -130 93 -106 q 65 -164 74 -154 l 51 -164 z "},"-":{"ha":497,"x_min":18,"x_max":418,"o":"m 18 413 l 418 413 l 418 349 l 18 349 l 18 413 z "},".":{"ha":167,"x_min":18,"x_max":125,"o":"m 18 61 q 31 113 18 92 q 69 133 44 133 q 110 113 94 133 q 125 61 125 93 q 109 13 125 32 q 69 -7 93 -7 q 32 12 46 -7 q 18 61 18 31 z "},"/":{"ha":439,"x_min":14,"x_max":417,"o":"m 347 1032 l 417 1032 l 78 0 l 14 0 l 347 1032 z "},":":{"ha":333,"x_min":153,"x_max":261,"o":"m 153 649 q 167 700 153 679 q 207 721 182 721 q 247 701 232 721 q 261 649 261 681 q 246 600 261 619 q 207 581 231 581 q 168 599 183 581 q 153 649 153 618 m 153 265 q 167 317 153 296 q 207 338 182 338 q 247 317 232 338 q 261 265 261 297 q 246 217 261 236 q 207 197 231 197 q 168 216 183 197 q 153 265 153 235 z "},";":{"ha":340,"x_min":153,"x_max":261,"o":"m 189 56 q 199 88 193 67 q 211 133 206 108 q 221 180 217 157 q 225 219 225 203 q 203 215 215 215 q 168 232 183 215 q 153 281 153 249 q 168 333 153 313 q 207 353 183 353 q 245 329 232 353 q 258 265 258 306 q 252 206 258 238 q 238 144 246 174 q 219 90 229 114 q 200 56 208 67 l 189 56 m 153 649 q 167 700 153 679 q 207 721 182 721 q 247 701 232 721 q 261 649 261 681 q 246 600 261 619 q 207 581 231 581 q 168 599 183 581 q 153 649 153 618 z "},"<":{"ha":261,"x_min":18,"x_max":235,"o":"m 18 431 l 18 518 l 235 867 l 235 743 l 68 474 l 235 208 l 235 83 l 18 431 z "},"=":{"ha":694,"x_min":131,"x_max":547,"o":"m 131 553 l 547 553 l 547 489 l 131 489 l 131 553 m 131 400 l 547 400 l 547 336 l 131 336 l 131 400 z "},">":{"ha":274,"x_min":18,"x_max":235,"o":"m 18 83 l 18 208 l 185 474 l 18 743 l 18 867 l 235 518 l 235 431 l 18 83 z "},"?":{"ha":524,"x_min":10,"x_max":506,"o":"m 251 526 q 281 581 268 550 q 301 648 293 613 q 314 722 310 683 q 318 797 318 760 q 313 874 318 838 q 296 937 307 910 q 268 980 285 964 q 228 996 251 996 q 163 974 192 996 q 115 919 135 953 q 86 842 96 885 q 76 758 76 800 q 87 678 76 715 q 119 618 97 642 l 99 592 q 31 705 51 647 q 10 817 10 763 q 26 907 10 865 q 72 979 42 949 q 147 1028 103 1010 q 247 1046 192 1046 q 372 1019 321 1046 q 453 953 422 993 q 494 868 483 914 q 501 782 506 822 q 470 658 493 706 q 419 582 447 611 q 366 538 392 553 q 328 511 340 522 q 285 451 303 486 q 256 378 267 415 q 242 304 246 340 q 239 243 238 268 l 206 247 q 206 308 206 275 q 209 378 206 342 q 222 452 213 414 q 251 526 232 490 m 135 97 q 193 142 171 115 q 226 204 215 169 q 240 172 231 189 q 263 139 250 154 q 289 113 275 124 q 317 97 303 101 q 283 74 299 89 q 254 44 267 60 q 234 15 242 29 q 226 -10 226 0 q 194 54 217 31 q 135 97 172 78 z "},"@":{"ha":972,"x_min":24,"x_max":851,"o":"m 553 654 l 626 654 l 626 226 q 625 167 626 200 q 626 106 624 135 q 638 57 629 76 q 664 38 646 38 q 713 66 688 38 q 762 143 739 94 q 800 256 785 192 q 815 393 815 321 q 788 553 817 479 q 708 680 760 626 q 585 764 657 733 q 425 794 513 794 q 286 767 351 794 q 172 687 221 739 q 95 560 124 635 q 67 393 67 486 q 82 269 67 328 q 124 162 97 210 q 187 78 151 114 q 264 21 222 42 l 243 -14 q 154 51 194 11 q 85 144 114 92 q 40 260 56 197 q 24 392 24 322 q 53 573 24 492 q 138 712 83 654 q 269 801 192 769 q 439 833 346 833 q 599 801 524 833 q 730 712 674 769 q 819 573 786 654 q 851 392 851 492 q 834 240 851 314 q 788 110 817 167 q 722 20 760 54 q 644 -14 685 -14 q 589 1 613 -14 q 550 39 565 15 q 527 91 535 63 q 519 149 519 119 l 519 207 q 508 167 518 189 q 479 127 497 146 q 438 95 461 108 q 390 82 415 82 q 286 106 328 82 q 219 169 244 129 q 183 263 194 210 q 172 372 172 315 q 192 511 172 456 q 244 601 213 567 q 316 649 276 635 q 393 664 356 664 q 430 661 411 664 q 466 652 449 658 q 497 636 483 646 q 519 613 511 626 l 553 654 m 440 601 q 381 579 404 601 q 346 521 358 557 q 328 440 333 485 q 324 349 324 394 q 328 278 324 315 q 341 211 332 242 q 366 160 350 181 q 407 140 382 140 q 460 166 439 140 q 495 227 482 192 q 514 299 508 263 q 519 356 519 335 l 519 533 q 485 586 504 571 q 440 601 465 601 z "},"A":{"ha":707,"x_min":22,"x_max":682,"o":"m 224 901 q 229 933 226 917 q 232 968 232 950 q 218 1032 232 1006 l 524 1032 q 507 1001 513 1019 q 499 964 501 982 q 497 933 497 946 q 497 917 497 919 l 585 289 q 597 225 589 265 q 619 141 606 185 q 648 58 632 97 q 682 0 664 19 l 364 0 q 389 60 383 25 q 394 135 394 94 q 386 246 394 192 l 375 322 l 161 322 l 125 133 q 119 99 121 114 q 118 74 118 85 q 124 34 118 50 q 143 0 131 18 l 22 0 q 41 26 32 10 q 58 61 50 43 q 72 97 65 79 q 81 128 78 115 l 224 901 m 169 364 l 368 364 l 272 939 l 169 364 z "},"B":{"ha":650,"x_min":6,"x_max":617,"o":"m 6 0 q 33 91 26 38 q 40 196 40 144 l 40 793 q 40 859 40 825 q 35 925 39 893 q 25 985 32 957 q 6 1032 18 1013 l 283 1032 q 385 1026 338 1032 q 469 1004 433 1021 q 526 956 506 988 q 547 874 547 925 q 506 758 547 804 q 374 713 464 713 q 363 713 368 713 q 351 714 357 714 q 487 649 435 689 q 567 563 539 610 q 606 464 596 517 q 617 358 617 411 q 606 244 617 307 q 562 128 596 182 q 463 37 528 74 q 285 0 397 0 l 6 0 m 218 717 l 283 717 q 340 734 318 717 q 374 776 361 751 q 390 829 386 801 q 394 879 394 857 q 354 974 394 943 q 249 1004 314 1004 q 225 998 232 1004 q 218 985 218 992 l 218 717 m 218 692 l 218 57 q 224 42 218 47 q 238 36 229 38 q 256 35 246 35 q 274 36 265 36 q 331 56 303 36 q 383 117 360 76 q 419 221 406 158 q 433 369 433 283 q 422 471 433 415 q 392 575 411 526 q 347 657 374 624 q 290 690 321 690 l 218 692 z "},"C":{"ha":606,"x_min":10,"x_max":606,"o":"m 606 308 q 590 205 604 261 q 545 100 576 149 q 465 19 514 51 q 347 -14 417 -14 q 237 11 296 -14 q 127 97 178 36 q 43 260 76 157 q 10 517 10 363 q 37 766 10 667 q 108 924 64 865 q 206 1008 151 983 q 317 1032 261 1032 q 486 978 424 1032 q 576 800 549 924 l 408 668 q 410 692 410 679 q 410 717 410 704 q 402 815 410 767 q 381 902 394 864 q 350 965 368 940 q 311 989 332 989 q 308 988 310 989 q 306 988 307 988 q 269 953 285 983 q 243 878 254 922 q 225 781 232 833 q 213 681 218 729 q 207 595 208 633 q 206 540 206 557 q 208 473 206 515 q 219 383 211 431 q 241 285 226 335 q 280 197 256 236 q 339 132 304 157 q 422 107 374 107 q 517 154 475 107 q 569 308 560 201 l 606 308 z "},"D":{"ha":628,"x_min":6,"x_max":608,"o":"m 6 -10 q 26 30 17 6 q 41 83 35 54 q 50 141 47 111 q 53 197 53 171 l 53 794 q 47 917 53 856 q 19 1032 40 979 l 260 1032 q 401 999 338 1032 q 511 902 465 965 q 583 747 557 839 q 608 539 608 656 q 592 335 608 432 q 535 166 575 239 q 429 49 494 93 q 265 0 364 4 l 6 -10 m 239 64 q 260 21 239 21 l 267 21 q 313 57 293 21 q 348 150 333 93 q 372 276 363 207 q 388 412 382 346 q 395 533 393 478 q 397 615 397 588 q 388 801 397 726 q 362 920 378 875 q 325 984 346 965 q 282 1003 304 1003 q 261 996 269 1003 q 248 978 253 989 q 241 955 243 967 q 239 932 239 943 l 239 64 z "},"E":{"ha":539,"x_min":14,"x_max":515,"o":"m 228 581 l 407 581 l 403 364 l 392 364 q 377 410 390 376 q 343 477 364 443 q 293 538 322 511 q 228 564 264 564 l 228 14 q 359 47 308 14 q 440 125 410 79 q 484 221 469 171 q 507 306 499 271 l 515 306 l 500 0 l 22 0 q 33 38 29 17 q 38 84 36 60 q 39 134 39 108 q 39 182 39 160 l 39 825 q 34 933 39 878 q 14 1032 29 989 l 500 1032 l 515 713 l 507 713 q 475 808 493 754 q 427 908 457 861 q 350 986 397 954 q 228 1018 303 1018 l 228 581 z "},"F":{"ha":572,"x_min":18,"x_max":543,"o":"m 39 919 q 38 945 39 928 q 33 979 36 963 q 26 1008 31 996 q 18 1021 22 1021 l 18 1032 l 526 1032 l 543 713 l 533 713 q 493 811 521 761 q 424 904 465 861 q 328 978 382 947 q 208 1018 274 1008 l 208 553 l 461 553 l 457 385 q 424 432 444 407 q 372 479 403 457 q 299 517 340 501 q 208 536 258 533 l 208 204 q 222 92 208 150 q 258 0 235 33 l 18 0 q 33 51 28 17 q 39 117 39 85 l 39 919 z "},"G":{"ha":606,"x_min":17,"x_max":581,"o":"m 335 -14 q 178 30 240 -14 q 81 146 117 74 q 31 310 44 218 q 17 499 17 401 q 42 721 17 622 q 109 888 67 819 q 207 994 151 957 q 324 1032 263 1032 q 426 1014 385 1032 q 495 968 467 996 q 544 909 524 940 q 581 850 564 878 l 464 760 q 445 860 460 815 q 410 938 431 906 q 367 989 390 971 q 325 1007 344 1007 q 280 967 303 1007 q 239 858 257 926 q 210 697 221 789 q 199 500 199 604 q 200 442 199 483 q 207 347 201 400 q 222 237 213 294 q 249 132 232 179 q 290 54 265 85 q 347 24 314 24 q 365 25 358 24 q 378 29 372 26 q 386 33 382 31 l 382 374 q 380 413 382 390 q 372 456 378 435 q 357 498 367 478 q 332 532 347 518 l 575 536 q 546 457 551 496 q 542 374 540 418 l 551 -33 l 514 -14 l 335 -14 z "},"H":{"ha":686,"x_min":7,"x_max":649,"o":"m 247 1032 q 216 949 224 997 q 208 847 208 900 l 208 514 l 439 515 l 439 847 q 430 953 439 901 q 403 1032 421 1004 l 643 1032 q 628 1006 635 1025 q 617 960 622 986 q 608 905 611 935 q 606 847 606 875 l 606 183 q 615 81 606 132 q 649 0 624 31 l 385 0 q 401 19 392 7 q 418 51 410 31 q 433 104 426 72 q 439 183 439 136 l 439 476 l 208 476 l 208 183 q 219 82 208 132 q 247 0 229 32 l 7 0 q 32 85 25 35 q 39 183 39 136 l 39 847 q 33 951 39 900 q 7 1032 26 1003 l 247 1032 z "},"I":{"ha":310,"x_min":14,"x_max":272,"o":"m 272 1032 q 244 967 256 1008 q 232 886 232 925 l 232 165 q 240 71 232 114 q 272 0 249 28 l 14 0 q 30 31 24 11 q 40 73 36 50 q 47 120 44 96 q 49 165 49 144 l 49 890 q 39 969 49 931 q 14 1032 29 1007 l 272 1032 z "},"J":{"ha":425,"x_min":-7,"x_max":401,"o":"m 161 3 q 197 26 189 3 q 206 88 206 50 q 203 148 206 115 q 200 214 200 181 l 200 903 q 188 977 200 942 q 160 1032 175 1013 l 401 1032 q 379 974 386 1008 q 372 903 372 939 l 372 207 q 358 133 372 172 q 316 61 343 93 q 251 8 289 29 q 165 -14 213 -14 q 111 -4 138 -14 q 63 19 85 6 q 22 49 40 33 q -7 76 4 65 l 76 429 q 82 369 79 408 q 88 282 85 329 q 97 185 92 235 q 110 95 101 136 q 131 28 118 54 q 161 3 143 3 z "},"K":{"ha":593,"x_min":0,"x_max":593,"o":"m 244 1032 q 217 965 224 1004 q 210 881 210 926 l 210 601 q 344 840 301 740 q 386 996 386 940 q 382 1032 386 1028 l 589 1032 l 210 535 l 210 513 q 276 559 242 536 q 349 610 311 582 l 517 97 q 540 51 526 69 q 565 22 553 33 q 585 6 576 11 q 593 0 593 1 l 300 0 q 328 35 318 14 q 339 79 339 57 q 338 92 339 86 q 333 106 336 99 l 210 486 l 210 97 q 217 41 210 63 q 247 0 225 19 l 0 0 q 22 97 22 39 l 22 933 q 17 983 22 958 q 0 1032 13 1008 l 244 1032 z "},"L":{"ha":464,"x_min":0,"x_max":439,"o":"m 269 1032 q 231 993 246 1018 q 217 935 217 968 l 217 14 q 291 54 256 14 q 356 147 326 94 q 407 250 385 200 q 439 319 429 300 l 435 0 l 0 0 q 25 53 14 22 q 36 113 36 83 l 36 935 q 31 985 36 960 q 0 1032 25 1011 l 269 1032 z "},"M":{"ha":835,"x_min":8,"x_max":794,"o":"m 224 97 q 227 48 224 71 q 253 0 231 25 l 8 0 q 41 47 33 24 q 49 97 49 69 l 49 935 q 40 988 49 963 q 8 1032 32 1013 l 222 1032 l 418 358 l 590 1032 l 794 1032 q 763 986 769 1011 q 757 935 757 961 l 757 97 q 765 43 757 68 q 794 0 772 18 l 531 0 q 560 29 550 13 q 576 61 571 46 q 585 97 583 78 l 585 919 l 465 0 l 372 0 l 224 919 l 224 97 z "},"N":{"ha":678,"x_min":10,"x_max":647,"o":"m 189 97 q 197 47 189 71 q 225 0 204 24 l 10 0 q 28 43 22 15 q 35 97 35 71 l 35 883 q 30 971 35 929 q 10 1032 25 1013 l 189 1032 q 308 840 261 947 q 385 629 356 733 q 428 436 414 525 q 447 299 442 347 l 447 935 q 435 991 443 968 q 401 1032 426 1014 l 647 1032 q 624 991 631 1013 q 618 935 618 969 l 618 97 q 621 47 617 71 q 640 0 625 24 l 410 0 q 438 45 433 19 q 442 99 443 71 l 444 172 q 424 294 438 228 q 392 426 410 360 q 351 556 374 493 q 302 670 328 619 q 248 753 276 721 q 189 789 219 785 l 189 97 z "},"O":{"ha":732,"x_min":24,"x_max":711,"o":"m 361 -14 q 240 11 300 -14 q 131 99 179 36 q 53 266 83 161 q 24 531 24 371 q 51 749 24 654 q 124 909 78 844 q 231 1008 169 974 q 361 1042 293 1042 q 485 1008 422 1042 q 597 910 547 975 q 679 751 647 846 q 711 533 711 657 q 679 256 711 363 q 597 90 647 150 q 485 8 547 29 q 361 -14 422 -14 m 364 3 q 414 39 389 3 q 458 138 439 75 q 490 290 478 201 q 503 482 503 378 q 489 684 503 586 q 454 858 475 782 q 409 979 433 933 q 364 1025 385 1025 q 317 980 339 1025 q 280 860 296 935 q 254 687 264 785 q 244 483 244 589 q 253 290 244 378 q 278 138 263 201 q 316 38 294 74 q 364 3 338 3 z "},"P":{"ha":583,"x_min":7,"x_max":557,"o":"m 549 688 q 522 565 544 614 q 467 482 500 515 q 394 426 433 449 q 319 381 356 403 q 254 333 283 360 q 211 267 225 307 l 211 121 q 222 57 211 93 q 250 0 232 21 l 7 0 q 31 65 22 28 q 40 138 40 101 l 40 919 q 29 983 40 951 q 7 1032 18 1015 l 278 1032 q 485 943 413 1032 q 549 688 557 854 m 211 292 q 258 413 231 369 q 311 491 285 456 q 358 568 338 526 q 383 682 378 610 q 384 699 383 690 q 385 718 385 708 q 378 809 385 761 q 360 898 372 857 q 331 966 349 939 q 290 993 314 993 q 278 992 282 993 q 248 963 261 986 q 226 891 235 940 q 212 762 217 842 q 207 564 207 682 q 211 292 207 450 z "},"Q":{"ha":683,"x_min":19,"x_max":642,"o":"m 549 -121 q 510 -124 536 -124 q 472 -124 485 -124 q 369 -101 417 -124 q 299 -31 322 -79 l 290 -11 q 185 25 235 -6 q 99 119 136 56 q 41 283 63 182 q 19 531 19 383 q 42 749 19 654 q 105 908 64 843 q 203 1006 146 972 q 328 1039 260 1039 q 445 1006 389 1039 q 545 909 501 974 q 615 751 589 844 q 642 533 642 657 q 622 301 642 397 q 571 142 603 206 q 497 44 539 79 q 408 -4 454 10 q 465 -22 435 -17 q 526 -26 496 -26 q 585 -22 558 -26 q 624 -14 613 -18 l 549 -121 m 328 1015 q 285 979 304 1015 q 252 878 265 943 q 232 726 239 814 q 225 532 225 638 q 236 276 225 393 q 268 86 247 158 q 284 258 264 167 q 331 444 304 349 q 381 638 358 540 q 406 829 404 736 q 371 966 390 917 q 328 1015 351 1015 m 425 531 q 423 617 425 575 q 418 700 421 660 q 389 549 408 628 q 349 395 369 471 q 314 251 329 319 q 299 132 299 183 q 310 65 299 92 q 357 21 321 39 q 387 94 374 44 q 408 213 400 144 q 421 362 417 281 q 425 531 425 443 z "},"R":{"ha":574,"x_min":7,"x_max":561,"o":"m 511 94 q 524 60 514 90 q 561 0 535 29 l 299 0 q 319 34 310 14 q 328 74 328 54 q 325 94 328 81 q 306 206 315 157 q 287 297 296 254 q 269 378 278 339 q 250 460 260 418 q 288 506 265 467 q 331 597 310 544 q 366 708 351 650 q 381 811 381 765 q 379 822 381 817 q 378 832 378 826 q 342 961 369 919 q 278 992 314 1003 q 248 962 261 986 q 226 880 235 938 q 212 725 217 822 q 207 476 207 628 q 211 121 207 329 q 220 58 211 93 q 250 0 229 24 l 7 0 q 31 63 22 24 q 40 138 40 101 l 40 919 q 31 982 40 951 q 7 1032 22 1013 l 278 1032 q 395 1022 344 1032 q 479 984 446 1011 q 528 913 513 957 q 542 799 544 868 q 510 665 539 726 q 440 556 481 603 q 357 481 400 510 q 283 444 314 451 q 317 442 296 444 q 359 435 338 439 q 401 426 381 431 q 435 421 422 422 q 451 335 442 383 q 471 240 460 286 q 492 153 482 193 q 511 94 503 114 z "},"S":{"ha":567,"x_min":3,"x_max":542,"o":"m 189 1039 q 370 1038 283 1044 q 524 1032 457 1032 l 535 1032 l 501 674 l 490 674 q 460 786 479 726 q 408 896 442 846 q 324 979 375 946 q 194 1013 272 1013 q 124 986 149 1013 q 100 924 100 960 q 101 904 100 914 q 107 885 103 894 q 174 805 122 844 q 289 712 225 765 q 417 585 353 658 q 519 403 481 511 q 538 323 535 361 q 542 251 542 285 q 519 128 542 179 q 457 45 496 76 q 367 0 418 14 q 260 -14 317 -14 q 183 -12 217 -14 q 122 -10 150 -11 q 69 -6 94 -8 q 18 -1 44 -4 l 50 558 l 61 558 q 87 345 72 444 q 124 172 101 246 q 178 54 147 97 q 253 11 210 11 q 288 25 271 11 q 319 64 306 39 q 342 122 333 89 q 350 193 350 156 q 324 345 350 281 q 260 460 299 410 q 176 551 221 510 q 93 637 132 593 q 28 730 54 681 q 3 846 3 779 q 13 914 3 881 q 44 974 22 947 q 102 1019 67 1001 q 189 1039 138 1036 z "},"T":{"ha":567,"x_min":6,"x_max":532,"o":"m 510 1035 q 522 1040 517 1035 q 526 1049 526 1044 l 532 1049 l 524 674 l 515 674 q 471 788 494 726 q 424 901 447 849 q 378 987 400 953 q 336 1021 356 1021 l 336 158 q 354 59 336 97 q 389 0 372 21 l 125 0 q 160 61 144 18 q 176 158 176 104 l 176 1021 q 142 977 161 1015 q 101 887 122 939 q 60 777 81 835 q 22 674 39 719 l 14 674 l 6 1049 l 10 1049 q 15 1040 10 1044 q 22 1035 19 1035 l 510 1035 z "},"U":{"ha":675,"x_min":7,"x_max":643,"o":"m 218 272 q 247 94 218 160 q 344 29 275 29 q 421 93 393 29 q 449 272 449 157 l 449 861 q 442 949 449 904 q 407 1032 435 994 l 643 1032 q 631 1001 636 1021 q 623 958 626 982 q 617 910 619 935 q 615 861 615 885 l 615 269 q 592 155 615 206 q 533 69 569 104 q 449 15 496 33 q 353 -4 401 -4 q 119 68 197 -4 q 42 269 42 140 l 42 863 q 33 953 42 906 q 7 1032 25 1000 l 251 1032 q 225 949 232 993 q 218 863 218 906 l 218 272 z "},"V":{"ha":672,"x_min":24,"x_max":656,"o":"m 489 0 l 325 0 l 128 872 q 112 916 122 893 q 88 961 101 939 q 57 1002 74 983 q 24 1032 40 1021 l 281 1032 l 476 182 l 597 836 q 594 885 600 854 q 574 947 588 917 q 539 999 560 976 q 493 1021 518 1021 l 493 1032 l 656 1032 l 489 0 z "},"W":{"ha":925,"x_min":-6,"x_max":922,"o":"m 744 219 l 861 736 q 863 788 864 747 q 853 875 863 828 q 823 965 844 922 q 760 1021 801 1007 l 760 1032 l 922 1032 l 781 0 l 614 0 l 475 739 l 406 0 l 240 0 l 114 815 q 88 897 107 860 q 47 963 68 935 q -6 1021 22 994 l -6 1032 l 267 1032 l 386 285 l 457 1032 l 622 1032 l 744 219 z "},"X":{"ha":583,"x_min":3,"x_max":569,"o":"m 344 624 l 467 919 q 472 943 472 931 q 468 969 472 956 q 456 993 464 982 q 433 1012 447 1004 q 399 1019 419 1019 l 399 1032 l 567 1032 l 567 1019 q 551 1010 563 1019 q 527 985 540 1000 q 501 951 514 969 q 482 914 489 932 l 372 538 l 493 113 q 503 91 494 107 q 522 58 511 75 q 546 26 533 40 q 569 13 558 13 l 569 0 l 250 0 l 250 13 q 276 24 265 13 q 294 52 288 36 q 302 85 300 68 q 301 113 304 103 l 235 358 l 114 113 q 116 89 110 106 q 133 56 122 72 q 157 26 143 39 q 181 13 171 13 l 181 0 l 3 0 l 3 13 q 24 28 10 13 q 55 63 39 44 q 84 99 71 82 q 99 118 97 117 l 208 436 l 89 919 q 69 963 81 944 q 47 994 58 982 q 27 1013 36 1007 q 14 1019 18 1019 l 14 1032 l 358 1032 l 358 1019 q 300 999 321 1019 q 279 946 279 979 q 279 933 279 939 q 282 919 279 926 l 344 624 z "},"Y":{"ha":519,"x_min":0,"x_max":511,"o":"m 331 476 l 418 914 q 418 933 419 919 q 412 964 417 947 q 399 996 407 981 q 378 1019 390 1011 l 378 1032 l 511 1032 l 511 1019 q 483 972 496 1006 q 464 911 471 939 l 340 347 l 364 175 q 371 149 364 171 q 386 101 378 128 q 403 49 394 75 q 414 11 411 24 l 414 0 l 115 0 l 115 11 q 126 44 118 21 q 143 92 135 67 q 158 142 151 118 q 165 179 165 167 l 176 347 l 47 919 q 37 961 42 946 q 27 987 32 976 q 16 1004 22 997 q 0 1019 10 1011 l 0 1032 l 297 1032 l 297 1019 q 280 998 289 1013 q 264 967 271 983 q 253 938 257 951 q 251 919 250 925 l 331 476 z "},"Z":{"ha":501,"x_min":17,"x_max":486,"o":"m 192 14 q 268 119 232 61 q 333 234 304 178 q 383 336 363 290 q 417 403 404 382 l 425 403 l 468 0 l 19 0 l 303 1018 q 259 988 285 1018 q 206 903 233 957 q 150 779 178 850 q 99 629 122 708 l 90 629 l 17 1032 l 486 1032 l 192 14 z "},"[":{"ha":215,"x_min":18,"x_max":160,"o":"m 18 972 l 160 972 l 160 956 l 92 956 l 92 17 l 160 17 l 160 0 l 18 0 l 18 972 z "},"\\":{"ha":315,"x_min":18,"x_max":275,"o":"m 236 -81 l 18 1013 l 57 1013 l 275 -81 l 236 -81 z "},"]":{"ha":217,"x_min":18,"x_max":160,"o":"m 160 0 l 18 0 l 18 17 l 85 17 l 85 956 l 18 956 l 18 972 l 160 972 l 160 0 z "},"^":{"ha":378,"x_min":18,"x_max":353,"o":"m 147 883 l 225 883 l 353 649 l 300 649 l 185 857 l 72 649 l 18 649 l 147 883 z "},"_":{"ha":608,"x_min":18,"x_max":549,"o":"m 18 3 l 549 3 l 549 -61 l 18 -61 l 18 3 z "},"`":{"ha":286,"x_min":78,"x_max":215,"o":"m 189 863 l 86 944 q 78 967 78 956 q 92 1003 78 986 q 122 1019 106 1019 q 139 1011 131 1019 l 215 896 l 189 863 z "},"a":{"ha":615,"x_min":10,"x_max":593,"o":"m 340 0 q 353 40 347 18 q 365 83 360 61 q 372 125 369 106 q 375 158 375 144 l 383 364 q 358 233 371 300 q 325 110 346 165 q 270 21 304 56 q 182 -14 236 -14 q 126 -6 154 -14 q 76 26 99 3 q 39 92 53 50 q 25 199 25 133 q 35 306 25 246 q 82 432 46 367 q 187 565 118 497 q 372 692 256 632 q 373 719 372 699 q 367 763 374 740 q 345 802 361 785 q 297 819 329 819 q 233 793 265 819 q 172 726 201 767 q 117 635 143 685 q 70 537 92 585 q 33 450 49 489 q 10 392 18 411 l 24 768 q 68 792 35 779 q 142 817 101 806 q 225 836 183 828 q 293 844 267 844 q 378 838 338 844 q 451 806 418 831 q 503 735 483 782 q 526 610 524 689 l 543 158 q 548 119 543 142 q 560 73 553 96 q 575 31 567 50 q 593 0 583 11 l 340 0 m 375 661 q 272 559 314 610 q 206 462 231 508 q 170 373 181 415 q 160 294 160 331 q 163 257 160 279 q 176 214 167 235 q 201 178 185 193 q 240 164 217 164 q 289 188 268 164 q 325 247 310 211 q 350 327 340 283 q 365 411 360 371 q 374 483 371 451 q 376 526 376 514 l 375 661 z "},"b":{"ha":665,"x_min":10,"x_max":619,"o":"m 47 865 q 46 910 47 886 q 42 956 44 933 q 35 998 39 978 q 24 1032 31 1018 l 242 1032 q 228 993 233 1018 q 219 939 222 968 q 215 878 217 910 q 211 817 214 846 q 251 836 222 828 q 317 844 279 844 q 470 801 411 844 q 563 692 529 757 q 608 554 596 628 q 619 421 619 481 q 603 242 619 322 q 557 104 586 161 q 489 17 528 47 q 406 -14 450 -14 q 335 5 367 -14 q 278 52 303 24 q 238 113 254 81 q 211 169 221 144 l 211 111 l 236 0 l 10 0 q 28 41 21 15 q 40 97 36 67 q 46 158 44 126 q 47 218 47 190 l 47 865 m 214 188 q 223 174 214 183 q 247 153 232 164 q 281 135 261 143 q 319 126 300 126 q 376 158 356 126 q 409 233 397 190 q 424 321 421 276 q 428 390 428 365 q 424 478 428 431 q 410 573 419 525 q 384 665 400 621 q 344 740 368 708 q 288 790 321 772 q 211 801 254 807 l 214 188 z "},"c":{"ha":531,"x_min":11,"x_max":503,"o":"m 503 307 q 483 199 499 256 q 440 96 468 143 q 371 17 413 49 q 274 -14 329 -14 q 185 11 231 -14 q 100 86 139 36 q 36 212 61 136 q 11 389 11 288 q 15 478 11 429 q 28 577 18 526 q 58 676 39 628 q 108 761 76 724 q 187 822 140 799 q 299 844 233 844 q 433 779 382 844 q 481 600 483 714 l 367 507 q 359 597 364 544 q 346 696 354 649 q 324 776 338 743 q 292 810 311 810 q 253 776 274 810 q 217 687 233 742 q 189 561 200 632 q 178 415 178 490 q 179 372 178 400 q 185 310 181 343 q 199 242 190 276 q 224 180 208 208 q 260 133 239 151 q 313 115 282 115 q 378 130 351 115 q 422 170 404 144 q 452 231 440 196 q 475 307 464 267 l 503 307 z "},"d":{"ha":611,"x_min":14,"x_max":590,"o":"m 560 1032 q 542 975 544 1003 q 539 917 539 947 l 539 200 q 553 92 539 147 q 590 0 567 36 l 319 0 q 357 73 347 42 q 367 128 367 104 l 367 183 q 347 127 360 161 q 315 62 335 93 q 267 8 296 31 q 199 -14 239 -14 q 138 0 171 -14 q 78 50 106 14 q 32 148 50 86 q 14 304 14 210 q 18 408 14 353 q 52 574 28 504 q 108 692 76 643 q 176 771 139 740 q 247 818 213 801 q 312 840 282 835 q 360 844 342 846 l 361 922 q 358 981 364 951 q 336 1032 351 1010 l 560 1032 m 361 793 q 297 761 329 796 q 238 665 264 726 q 194 520 211 603 q 178 344 178 438 q 180 289 178 325 q 190 217 182 253 q 215 156 199 182 q 260 131 232 131 q 320 167 290 131 q 367 271 350 204 l 361 793 z "},"e":{"ha":539,"x_min":18,"x_max":517,"o":"m 208 369 q 247 172 208 236 q 336 107 286 107 q 399 132 372 107 q 442 190 425 157 q 466 257 458 224 q 474 307 474 290 l 500 307 q 499 268 500 296 q 493 205 499 240 q 476 131 488 169 q 442 60 464 92 q 388 8 421 29 q 306 -12 354 -12 q 173 16 228 -12 q 84 98 118 44 q 34 228 50 151 q 18 403 18 306 q 47 606 18 522 q 120 743 75 690 q 219 820 165 796 q 322 844 272 844 q 390 832 356 844 q 452 793 424 819 q 499 726 481 767 q 517 628 517 685 q 515 599 517 614 q 511 568 514 583 q 483 495 506 532 q 420 430 460 458 q 327 385 381 401 q 208 369 274 368 m 331 782 q 283 758 303 782 q 250 699 264 735 q 228 618 236 663 q 215 531 219 574 q 210 451 211 488 q 208 397 208 415 q 289 431 251 403 q 353 497 326 458 q 396 578 381 536 q 411 654 411 621 q 387 747 411 713 q 331 782 363 782 z "},"f":{"ha":350,"x_min":-15,"x_max":428,"o":"m -1 0 q 22 65 11 28 q 32 151 32 103 l 32 736 l -15 736 l -15 767 l 32 767 q 45 874 32 825 q 87 958 58 922 q 159 1013 115 993 q 265 1032 203 1032 q 308 1026 285 1032 q 353 1011 331 1021 q 396 988 376 1001 q 428 957 415 974 l 258 831 l 251 835 q 288 899 275 868 q 301 957 301 929 q 288 1000 301 990 q 265 1010 275 1010 q 224 977 238 1010 q 205 903 210 944 q 201 822 200 861 q 201 767 201 782 l 306 767 l 306 736 l 201 736 l 201 151 q 213 68 201 108 q 243 0 224 28 l -1 0 z "},"g":{"ha":558,"x_min":-12,"x_max":560,"o":"m -10 536 q 21 667 -6 610 q 88 763 47 724 q 176 824 128 803 q 274 844 225 844 q 349 831 315 844 q 376 876 361 851 q 406 926 390 901 q 438 973 422 951 q 465 1007 453 994 q 513 964 492 983 q 545 933 531 947 q 560 917 560 919 q 520 901 546 914 q 467 874 494 889 q 413 844 439 858 q 374 821 388 829 q 424 792 399 814 q 469 735 449 769 q 503 656 489 700 q 518 558 517 611 l 518 539 q 503 428 518 488 q 456 319 489 369 q 373 232 424 268 q 250 188 322 196 q 240 186 244 186 q 231 186 235 186 q 213 188 218 186 l 189 124 q 294 132 246 132 q 444 97 388 132 q 501 -25 501 61 q 243 -240 501 -240 q 134 -222 190 -240 q 26 -160 78 -203 l 26 0 q 174 -81 94 -50 q 319 -112 254 -112 q 406 -89 372 -112 q 439 -11 439 -65 q 425 38 439 19 q 388 68 411 57 q 335 83 364 79 q 274 88 306 88 q 186 82 229 88 q 118 74 143 76 q 124 87 119 74 q 136 119 129 100 q 151 158 143 138 q 164 196 158 179 q 149 201 157 199 q 135 207 142 204 q 55 267 85 228 q 10 351 25 306 q -9 446 -6 397 q -10 536 -12 494 m 299 804 q 229 770 260 804 q 178 683 199 736 q 147 565 157 629 q 136 439 136 500 q 141 365 136 400 q 156 302 146 329 q 180 259 165 275 q 214 243 194 243 q 274 282 247 243 q 319 381 300 321 q 349 513 339 442 q 360 646 360 583 q 348 757 360 713 q 308 804 336 801 l 299 804 z "},"h":{"ha":590,"x_min":10,"x_max":583,"o":"m 211 844 q 259 840 228 843 q 327 825 290 836 q 403 793 364 814 q 473 738 442 772 q 524 654 504 704 q 544 533 544 604 l 544 154 q 552 69 544 106 q 583 0 560 32 l 336 0 q 356 33 347 13 q 369 78 364 54 q 378 127 375 101 q 382 178 382 153 l 382 547 q 374 647 382 604 q 345 721 365 689 q 292 778 325 753 q 211 824 260 803 l 211 210 q 215 105 211 157 q 236 0 219 53 l 10 0 q 24 45 18 19 q 36 100 31 71 q 44 160 42 129 q 47 218 47 190 l 47 865 q 45 952 47 908 q 24 1032 43 996 l 239 1032 q 217 953 219 996 q 211 872 214 911 l 211 844 z "},"i":{"ha":283,"x_min":10,"x_max":239,"o":"m 211 192 q 213 144 214 171 q 214 92 213 118 q 220 41 215 65 q 236 0 225 17 l 10 0 q 26 35 19 13 q 38 88 33 58 q 45 147 43 117 q 47 204 47 178 l 47 679 q 42 771 47 724 q 24 846 36 818 l 239 846 q 222 813 228 832 q 214 771 217 793 q 211 725 211 749 q 211 679 211 701 l 211 192 m 35 965 q 93 1010 71 983 q 126 1072 115 1038 q 140 1040 131 1057 q 163 1007 150 1022 q 189 981 175 992 q 217 965 203 969 q 183 942 199 957 q 154 913 167 928 q 134 883 142 897 q 126 858 126 868 q 94 922 117 899 q 35 965 72 946 z "},"j":{"ha":290,"x_min":-114,"x_max":260,"o":"m 40 -207 q 56 -189 50 -207 q 63 -146 61 -171 q 66 -95 65 -121 q 67 -54 67 -69 l 68 679 q 64 770 68 724 q 44 846 60 817 l 260 846 q 238 770 242 818 q 233 679 233 722 l 233 26 q 214 -118 233 -65 q 166 -199 194 -171 q 106 -234 138 -226 q 49 -242 74 -242 q 8 -229 32 -242 q -38 -197 -15 -217 q -81 -155 -61 -178 q -114 -110 -101 -132 l 8 0 q 14 -109 11 -68 q 20 -172 17 -150 q 29 -200 24 -193 q 40 -207 35 -207 m 57 965 q 116 922 94 946 q 149 858 138 899 q 156 883 149 868 q 176 913 164 897 q 205 942 189 928 q 239 965 221 957 q 210 981 225 969 q 183 1007 196 992 q 162 1040 171 1022 q 149 1072 153 1057 q 115 1010 138 1038 q 57 965 93 983 z "},"k":{"ha":567,"x_min":7,"x_max":539,"o":"m 208 210 q 209 101 208 157 q 233 0 210 44 l 7 0 q 24 39 17 14 q 35 94 31 64 q 41 158 39 125 q 43 218 43 190 l 43 865 q 39 956 43 908 q 19 1032 35 1003 l 235 1032 q 215 958 219 1004 q 208 872 210 913 l 208 553 q 258 666 225 614 q 336 757 292 718 q 433 819 381 796 q 539 844 485 843 l 539 685 q 455 673 501 685 q 362 638 408 661 q 274 581 315 615 q 208 504 233 547 l 208 496 q 351 454 293 493 q 445 358 408 415 q 501 235 482 300 q 528 116 519 171 q 538 28 538 61 q 539 0 539 -6 l 324 0 q 321 157 328 81 q 299 297 314 233 q 260 403 283 360 q 208 463 238 447 l 208 210 z "},"l":{"ha":275,"x_min":7,"x_max":235,"o":"m 208 210 q 210 101 208 157 q 233 0 213 46 l 7 0 q 24 44 17 18 q 35 99 31 69 q 41 160 39 129 q 43 218 43 190 l 43 865 q 40 953 43 908 q 19 1032 36 997 l 235 1032 q 210 955 211 997 q 208 872 210 913 l 208 210 z "},"m":{"ha":965,"x_min":10,"x_max":936,"o":"m 574 297 q 572 256 572 279 q 571 204 571 232 q 576 92 571 150 q 600 0 582 35 l 372 0 q 389 88 383 38 q 397 192 394 138 q 401 304 400 247 q 401 413 401 361 q 401 433 401 428 q 401 439 401 438 q 400 442 400 440 q 400 453 400 443 q 400 486 400 464 q 401 550 400 508 q 398 641 401 606 q 388 697 394 676 q 372 728 382 718 q 349 742 361 738 q 328 746 339 746 q 262 690 289 746 q 211 526 235 633 l 211 244 q 213 184 213 217 q 215 118 213 151 q 222 54 217 85 q 236 0 226 24 l 10 0 q 38 95 29 39 q 47 204 47 151 l 47 669 q 45 696 47 678 q 40 737 43 714 q 33 785 38 760 q 24 833 28 811 l 24 844 l 239 844 l 239 833 q 231 790 235 808 q 226 756 228 772 q 222 723 224 739 q 219 686 221 707 q 244 744 228 715 q 283 794 260 772 q 338 831 306 817 q 408 844 369 844 q 515 799 474 844 q 567 671 556 754 q 583 733 572 701 q 612 789 593 764 q 660 829 631 814 q 732 844 689 844 q 858 771 815 844 q 900 556 900 697 l 900 275 q 905 213 906 249 q 906 139 904 176 q 913 65 907 101 q 936 0 918 28 l 700 0 q 723 71 715 33 q 733 148 731 108 q 736 227 736 188 q 736 306 736 267 l 736 636 q 719 715 736 679 q 669 754 703 751 q 637 735 653 754 q 607 688 621 717 q 585 622 593 658 q 576 550 576 586 l 574 297 z "},"n":{"ha":664,"x_min":7,"x_max":643,"o":"m 210 192 q 213 146 213 171 q 216 95 214 121 q 222 45 218 69 q 235 0 226 21 l 7 0 q 36 94 28 38 q 44 204 44 151 l 44 678 q 38 771 44 728 q 22 833 32 814 l 22 844 l 235 844 l 235 833 q 226 809 231 826 q 217 769 221 792 q 212 723 214 747 q 210 678 210 699 l 210 535 q 221 622 213 569 q 249 724 229 675 q 305 809 269 774 q 399 844 340 844 q 593 558 593 844 l 593 179 q 607 81 593 131 q 643 0 621 31 l 381 0 q 398 34 389 14 q 415 78 407 54 q 427 128 422 103 q 432 179 432 154 l 432 513 q 416 689 432 621 q 365 757 400 757 q 317 726 339 757 q 278 649 294 696 q 249 545 261 601 q 228 438 236 489 q 216 347 221 386 q 210 296 211 308 l 210 192 z "},"o":{"ha":567,"x_min":18,"x_max":528,"o":"m 528 494 q 526 407 528 458 q 515 299 524 356 q 490 186 507 242 q 444 86 474 131 q 369 14 414 42 q 260 -14 325 -14 q 144 22 190 -14 q 69 120 97 57 q 30 273 42 183 q 18 471 18 363 q 40 627 18 558 q 99 744 63 696 q 181 819 135 793 q 274 844 226 844 q 373 826 326 844 q 453 767 419 808 q 508 658 488 725 q 528 494 528 592 m 275 17 q 312 52 294 17 q 343 144 329 88 q 365 272 357 200 q 372 415 372 343 q 367 560 372 489 q 351 688 363 632 q 322 780 340 744 q 275 815 303 815 q 235 780 251 815 q 208 688 218 744 q 193 560 197 632 q 189 415 189 489 q 194 272 189 343 q 210 144 200 200 q 238 52 221 88 q 275 17 254 17 z "},"p":{"ha":574,"x_min":7,"x_max":533,"o":"m 533 522 q 506 344 533 433 q 434 181 479 254 q 331 58 389 107 q 208 0 272 8 q 212 -49 210 -22 q 217 -101 214 -75 q 224 -152 219 -128 q 233 -193 228 -176 l 233 -211 l 7 -211 l 7 -200 q 20 -161 14 -187 q 32 -104 26 -135 q 40 -43 38 -74 q 43 7 43 -12 l 43 678 q 42 720 43 697 q 37 765 40 743 q 29 806 33 788 q 19 833 25 824 l 19 844 l 226 844 l 226 833 q 219 802 221 817 q 216 772 217 788 q 214 735 215 756 q 208 685 213 714 l 208 678 q 224 730 215 703 q 245 781 233 757 q 274 822 257 806 q 315 843 292 839 q 397 831 357 849 q 466 774 436 814 q 515 672 496 735 q 533 522 533 610 m 299 785 q 251 722 276 786 q 208 550 226 657 l 208 31 q 270 92 240 43 q 322 210 300 140 q 357 363 344 279 q 368 531 369 447 q 362 648 367 600 q 349 726 357 696 q 328 769 340 756 q 299 785 315 783 z "},"q":{"ha":567,"x_min":7,"x_max":533,"o":"m 7 522 q 26 672 7 610 q 74 774 44 735 q 144 831 104 814 q 225 843 183 849 q 265 822 249 839 q 294 781 282 806 q 315 730 307 757 q 332 678 324 703 l 332 685 q 326 735 328 714 q 324 772 325 756 q 321 802 322 788 q 314 833 319 817 l 314 844 l 519 844 l 519 833 q 511 806 515 824 q 503 765 507 788 q 499 720 500 743 q 497 678 497 697 l 497 7 q 500 -43 497 -12 q 508 -104 503 -74 q 520 -161 514 -135 q 533 -200 526 -187 l 533 -211 l 307 -211 l 307 -193 q 315 -152 311 -176 q 323 -101 319 -128 q 328 -49 326 -75 q 332 0 331 -22 q 209 58 268 8 q 106 181 150 107 q 34 344 61 254 q 7 522 7 433 m 242 785 q 213 769 225 783 q 192 726 200 756 q 178 648 183 696 q 172 531 174 600 q 174 449 171 496 q 185 349 178 401 q 206 245 193 297 q 236 149 218 193 q 278 74 254 106 q 332 31 301 42 l 332 550 q 288 722 314 657 q 242 785 263 786 z "},"r":{"ha":489,"x_min":10,"x_max":467,"o":"m 211 192 q 214 159 213 183 q 218 106 215 135 q 225 50 221 76 q 236 11 229 24 l 236 0 l 10 0 l 10 11 q 24 48 18 24 q 36 100 31 72 q 44 156 42 128 q 47 204 47 185 l 47 679 q 40 772 47 729 q 24 833 33 814 l 24 844 l 239 844 l 239 833 q 228 809 233 826 q 219 770 224 792 q 213 724 215 749 q 211 679 211 700 l 211 653 q 235 725 221 690 q 269 786 249 760 q 315 828 289 813 q 374 844 340 844 q 441 820 421 844 q 467 769 461 796 l 467 586 q 344 703 429 703 q 260 669 299 703 q 211 557 222 636 l 211 192 z "},"s":{"ha":503,"x_min":8,"x_max":481,"o":"m 251 -14 q 188 -10 222 -14 q 119 3 153 -6 q 56 23 85 11 q 8 49 26 35 l 42 347 q 60 294 50 326 q 83 226 69 263 q 112 153 96 190 q 148 88 128 117 q 194 40 168 58 q 250 22 219 22 q 317 54 296 22 q 333 156 339 86 q 304 238 329 200 q 244 311 279 275 q 169 383 210 347 q 96 460 129 419 q 40 549 63 501 q 18 653 18 596 q 26 731 18 696 q 56 792 35 767 q 115 831 78 817 q 207 844 151 844 q 306 836 256 844 q 393 828 356 828 q 444 846 433 828 l 453 846 l 417 569 q 394 628 408 588 q 356 709 379 668 q 301 781 333 750 q 225 813 268 813 q 176 796 196 813 q 157 743 157 779 q 179 666 157 704 q 236 589 201 628 q 310 509 271 550 q 386 422 350 468 q 447 325 422 376 q 476 214 472 274 q 460 109 481 153 q 405 38 439 65 q 329 -1 371 11 q 251 -14 288 -14 z "},"t":{"ha":340,"x_min":-8,"x_max":322,"o":"m -8 800 l -8 831 q 57 847 25 831 q 115 890 89 864 q 161 947 142 915 q 189 1011 181 979 l 224 1011 l 224 831 l 301 831 l 301 800 l 224 800 l 224 164 q 232 74 224 99 q 257 49 240 49 q 270 56 264 49 q 281 74 276 64 q 290 94 286 83 q 294 110 293 104 l 322 96 q 281 17 307 47 q 210 -14 254 -14 l 193 -14 q 146 -8 172 -14 q 96 25 119 -1 q 56 106 72 51 q 40 257 40 160 l 40 800 l -8 800 z "},"u":{"ha":665,"x_min":15,"x_max":626,"o":"m 431 632 q 424 742 426 683 q 403 844 421 800 l 626 844 q 612 802 618 826 q 601 751 606 778 q 595 695 597 724 q 593 640 593 667 l 593 167 q 597 78 593 122 q 617 0 601 35 l 401 0 q 422 74 417 26 q 428 167 428 122 l 428 347 q 403 200 415 263 q 376 95 392 138 q 338 28 361 53 q 278 -7 314 3 q 251 -12 264 -11 q 225 -14 238 -14 q 148 6 182 -14 q 91 56 114 25 q 56 128 68 88 q 44 211 44 169 l 44 665 q 42 716 44 689 q 37 767 40 743 q 28 813 33 792 q 15 844 22 833 l 235 844 q 211 758 215 806 q 207 665 207 711 l 207 239 q 217 152 207 185 q 240 103 226 119 q 271 83 254 86 q 300 85 288 81 q 333 130 314 89 q 370 236 351 171 q 405 388 389 301 q 431 567 421 474 l 431 632 z "},"v":{"ha":581,"x_min":7,"x_max":575,"o":"m 368 133 l 433 519 q 444 599 440 558 q 449 681 449 640 q 442 769 449 728 q 417 844 435 811 l 575 844 q 540 782 556 818 q 519 722 525 746 l 374 0 l 228 0 l 69 665 q 61 703 67 679 q 47 754 56 728 q 29 806 39 781 q 7 844 19 831 l 310 844 q 276 799 286 828 q 267 731 267 769 q 270 681 267 707 q 278 625 274 654 l 368 133 z "},"w":{"ha":900,"x_min":26,"x_max":894,"o":"m 203 -4 q 192 145 197 78 q 179 283 188 213 q 157 438 171 354 q 119 638 143 522 q 108 688 117 660 q 86 746 99 717 q 58 801 74 775 q 26 844 43 826 l 332 844 q 297 707 297 789 q 301 644 297 678 l 378 72 q 423 280 407 174 q 439 504 439 386 q 432 667 439 583 q 410 846 425 751 l 647 844 q 636 764 639 807 q 633 674 633 721 q 642 506 633 593 q 665 341 650 419 q 698 199 679 263 q 736 101 717 136 l 747 518 q 750 585 749 551 q 751 651 751 619 q 741 758 751 708 q 699 844 731 807 l 894 844 q 864 774 878 821 q 838 676 850 728 q 817 574 826 624 q 803 494 808 525 l 750 -4 l 574 -1 q 567 72 575 18 q 546 195 560 126 q 512 334 532 264 q 468 454 492 404 q 444 206 463 318 q 407 -4 425 93 l 203 -4 z "},"x":{"ha":539,"x_min":-1,"x_max":535,"o":"m 325 504 l 408 713 q 417 744 415 726 q 419 779 419 761 q 417 816 419 799 q 407 843 414 833 l 522 843 q 494 809 510 832 q 465 760 479 786 q 438 711 450 735 q 422 675 426 688 l 339 469 l 444 150 q 457 117 449 138 q 477 74 465 96 q 503 33 489 53 q 535 0 518 13 l 232 0 q 258 33 251 11 q 265 78 265 54 q 262 110 265 94 q 256 135 258 125 l 190 336 l 115 150 q 106 112 110 139 q 101 57 101 85 q 104 23 101 39 q 114 0 107 7 l 11 0 q 22 28 11 4 q 48 80 33 51 q 75 135 63 108 q 92 169 88 161 l 176 381 l 65 719 q 53 750 61 732 q 35 785 44 768 q 17 819 26 803 q -1 843 7 835 l 282 843 q 259 803 268 824 q 250 754 250 782 q 253 722 250 739 q 264 686 257 706 l 325 504 z "},"y":{"ha":618,"x_min":3,"x_max":597,"o":"m 392 -25 q 369 -106 383 -67 q 329 -175 354 -144 q 266 -224 304 -206 q 169 -242 228 -242 q 115 -237 146 -242 q 60 -224 85 -232 l 60 -40 q 92 -65 72 -51 q 133 -90 111 -78 q 180 -111 156 -103 q 228 -119 204 -119 q 306 -94 271 -119 q 353 0 340 -69 l 233 0 l 68 726 q 42 788 61 754 q 3 843 24 822 l 282 843 q 255 801 265 824 q 244 746 244 778 q 251 693 244 725 l 379 113 l 467 518 q 476 562 469 532 q 483 628 483 592 q 481 741 483 682 q 460 843 479 800 l 597 843 q 591 827 597 843 q 576 790 585 811 q 560 749 568 769 q 550 721 553 729 l 392 -25 z "},"z":{"ha":425,"x_min":22,"x_max":414,"o":"m 24 153 l 310 829 q 200 785 246 822 q 122 701 154 749 q 68 606 89 654 q 33 531 47 558 l 22 840 l 414 840 l 414 683 l 131 13 q 192 52 156 24 q 267 120 228 81 q 343 208 306 160 q 410 310 381 257 l 403 0 l 24 0 l 24 153 z "},"{":{"ha":192,"x_min":18,"x_max":161,"o":"m 61 482 q 122 423 108 461 q 136 332 136 385 q 132 248 136 293 q 128 154 128 203 q 130 119 129 142 q 134 72 131 96 q 144 27 138 47 q 161 -1 150 7 l 156 -6 q 90 11 115 -6 q 51 54 65 28 q 33 111 38 81 q 28 169 28 142 q 31 224 28 194 q 38 285 33 254 q 44 347 42 317 q 47 401 47 376 q 41 453 47 432 q 18 482 35 475 l 18 485 q 41 513 35 492 q 47 565 47 535 q 44 620 47 590 q 38 681 42 650 q 31 742 33 713 q 28 797 28 772 q 33 856 28 825 q 51 913 38 886 q 90 956 65 939 q 156 972 115 972 l 161 968 q 144 940 150 960 q 134 895 138 919 q 130 848 131 871 q 128 813 129 825 q 132 719 128 764 q 136 635 136 674 q 122 544 136 582 q 61 485 108 506 l 61 482 z "},"|":{"ha":107,"x_min":33,"x_max":72,"o":"m 33 1042 l 72 1042 l 72 -78 l 33 -78 l 33 1042 z "},"}":{"ha":197,"x_min":25,"x_max":169,"o":"m 126 485 q 65 545 81 507 q 50 635 50 583 q 54 719 50 674 q 60 813 58 764 q 58 848 58 825 q 53 895 57 871 q 44 940 50 919 q 25 968 38 960 l 33 972 q 98 956 74 972 q 136 913 122 939 q 155 856 150 886 q 160 797 160 825 q 151 681 160 746 q 142 565 142 617 q 148 513 142 535 q 169 485 154 492 l 169 482 q 148 453 154 475 q 142 401 142 432 q 151 285 142 350 q 160 169 160 221 q 155 111 160 142 q 136 54 150 81 q 98 11 122 28 q 33 -6 74 -6 l 25 -1 q 44 27 38 7 q 53 72 50 47 q 58 119 57 96 q 60 154 58 142 q 54 248 58 203 q 50 332 50 293 q 65 422 50 383 q 126 482 81 460 l 126 485 z "},"~":{"ha":364,"x_min":18,"x_max":301,"o":"m 18 350 q 25 410 18 386 q 44 447 32 433 q 72 466 56 461 q 106 471 88 471 q 173 461 138 471 q 235 451 208 451 q 265 460 254 451 q 276 494 276 469 l 301 456 q 279 376 300 396 q 226 356 258 356 q 160 366 194 356 q 97 376 125 376 q 58 363 74 376 q 43 313 43 350 l 18 350 z "},"":{"ha":267,"x_min":25,"x_max":235,"o":"m 151 790 q 166 638 156 729 q 190 444 176 547 q 215 237 203 342 q 235 42 228 132 q 207 10 235 28 q 135 -7 179 -7 q 82 -2 103 -7 q 49 10 61 3 q 31 26 36 18 q 25 42 25 35 q 47 242 32 132 q 76 457 61 351 q 104 652 92 563 q 117 790 117 742 l 151 790 m 81 943 q 94 992 81 974 q 132 1011 108 1011 q 171 992 156 1011 q 186 943 186 972 q 172 891 186 911 q 132 871 157 871 q 94 892 107 871 q 81 943 81 913 z "},"":{"ha":531,"x_min":11,"x_max":503,"o":"m 244 1042 l 283 1042 l 283 844 l 299 844 q 433 779 382 844 q 481 600 483 714 l 367 507 q 359 597 364 544 q 346 696 354 649 q 324 776 338 743 q 292 810 311 810 q 283 807 289 810 l 283 119 q 294 117 289 117 q 306 117 300 117 q 365 137 338 117 q 414 190 392 157 q 453 265 436 224 q 483 347 471 306 l 503 347 q 497 306 503 336 q 481 238 492 276 q 452 156 469 199 q 410 78 435 114 q 354 17 386 42 q 283 -11 322 -8 l 283 -78 l 244 -78 l 244 -10 q 163 25 204 -3 q 88 102 121 53 q 33 223 54 151 q 11 388 11 294 q 18 513 11 440 q 49 653 25 585 q 119 774 72 721 q 244 840 165 826 l 244 1042 m 178 419 q 181 354 178 392 q 190 278 183 317 q 210 204 197 239 q 244 146 224 169 l 244 760 q 219 696 232 733 q 198 614 207 658 q 183 519 189 569 q 178 419 178 469 z "},"":{"ha":606,"x_min":31,"x_max":544,"o":"m 44 604 l 135 604 l 135 813 q 138 892 135 853 q 158 963 142 932 q 210 1013 175 994 q 310 1032 246 1032 l 544 1032 l 544 1021 q 522 1017 540 1021 q 477 1004 503 1013 q 424 984 451 996 q 372 958 396 972 q 332 927 347 944 q 317 892 317 910 l 317 604 l 468 604 l 468 540 l 317 540 l 317 14 q 367 33 342 14 q 416 83 393 53 q 460 149 439 113 q 495 220 481 186 q 519 281 510 254 q 528 319 528 308 l 539 319 l 535 0 l 31 0 l 31 11 q 50 21 33 11 q 85 44 67 31 q 119 72 104 58 q 135 92 135 85 l 135 540 l 44 540 l 44 604 z "},"":{"ha":439,"x_min":39,"x_max":394,"o":"m 39 617 l 83 640 l 114 588 q 217 622 156 622 q 319 589 275 622 l 349 640 l 394 617 l 351 553 q 385 436 385 507 q 351 319 385 365 l 394 247 l 349 232 l 317 282 q 217 251 278 251 q 117 282 158 251 l 83 232 l 39 246 l 81 319 l 82 318 q 49 436 49 364 q 81 551 49 504 l 39 617 m 122 433 q 148 351 122 382 q 217 319 174 319 q 283 351 257 319 q 310 433 310 382 q 283 517 310 486 q 217 549 257 549 q 148 517 174 549 q 122 433 122 486 z "},"":{"ha":519,"x_min":0,"x_max":511,"o":"m 51 288 l 174 288 l 176 347 l 169 376 l 51 376 l 51 440 l 156 440 l 47 919 q 37 961 42 946 q 27 987 32 976 q 16 1004 22 997 q 0 1019 10 1011 l 0 1032 l 297 1032 l 297 1019 q 280 998 289 1013 q 264 967 271 983 q 253 938 257 951 q 251 919 250 925 l 331 476 l 418 914 q 418 933 419 919 q 412 964 417 947 q 399 996 407 981 q 378 1019 390 1011 l 378 1032 l 511 1032 l 511 1019 q 483 972 496 1006 q 464 911 471 939 l 360 440 l 468 440 l 468 376 l 347 376 l 340 347 l 349 288 l 468 288 l 468 224 l 357 224 l 364 175 q 371 149 364 171 q 386 101 378 128 q 403 49 394 75 q 414 11 411 24 l 414 0 l 115 0 l 115 11 q 126 44 118 21 q 143 92 135 67 q 158 142 151 118 q 165 179 165 167 l 168 224 l 51 224 l 51 288 z "},"":{"ha":250,"x_min":126,"x_max":181,"o":"m 126 17 l 126 490 l 181 490 l 181 17 l 126 17 m 126 563 l 126 1036 l 181 1036 l 181 563 l 126 563 z "},"":{"ha":556,"x_min":-4,"x_max":519,"o":"m 31 247 l 49 247 q 70 120 53 181 q 115 14 88 60 q 181 -59 143 -32 q 264 -86 218 -86 q 352 -46 329 -86 q 375 68 375 -6 q 347 148 375 115 q 277 207 319 181 q 185 257 235 233 q 94 308 136 281 q 24 372 51 336 q -4 457 -4 407 q 15 542 -4 494 q 78 651 33 590 q 62 679 72 663 q 42 716 51 696 q 25 759 32 736 q 18 804 18 782 q 35 896 18 858 q 85 957 53 933 q 161 992 117 981 q 258 1003 206 1003 q 345 991 306 1003 q 414 958 385 979 q 460 908 443 938 q 476 844 476 879 q 464 801 476 818 q 433 774 451 785 q 394 758 415 764 q 358 747 374 751 q 353 749 356 747 q 347 751 350 750 q 340 756 344 753 q 367 808 358 781 q 375 860 375 835 q 349 937 375 904 q 271 969 324 969 q 238 967 260 969 q 192 952 215 964 q 152 917 169 940 q 133 851 135 893 q 160 758 132 797 q 232 685 189 718 q 325 621 275 653 q 418 549 375 589 q 490 456 461 508 q 519 326 519 403 q 517 297 519 314 q 512 260 515 279 q 503 223 508 242 q 490 189 497 204 q 511 99 511 143 q 492 17 511 56 q 440 -50 474 -21 q 357 -96 406 -79 q 247 -112 308 -112 q 109 -87 164 -112 q 31 -18 54 -61 l 31 247 m 403 306 q 363 397 396 353 q 288 481 331 440 q 199 558 244 522 q 118 625 153 594 q 136 502 108 547 q 209 426 164 457 q 308 370 254 396 q 403 306 361 344 z "},"":{"ha":364,"x_min":57,"x_max":293,"o":"m 57 958 q 71 1010 57 989 q 108 1031 85 1031 q 149 1010 133 1031 q 164 958 164 990 q 148 910 164 929 q 108 890 132 890 q 71 909 85 890 q 57 958 57 928 m 185 958 q 199 1010 185 989 q 239 1031 214 1031 q 278 1010 263 1031 q 293 958 293 990 q 278 910 293 929 q 239 890 263 890 q 200 909 215 890 q 185 958 185 928 z "},"":{"ha":407,"x_min":18,"x_max":350,"o":"m 18 785 q 63 933 18 876 q 185 989 108 989 q 305 933 260 989 q 350 785 350 876 q 305 635 350 692 q 185 579 260 579 q 63 635 108 579 q 18 785 18 692 m 31 786 q 72 643 31 696 q 185 590 114 590 q 294 643 253 590 q 336 786 336 696 q 294 926 336 874 q 185 978 253 978 q 72 926 114 978 q 31 786 31 874 m 99 785 q 122 903 99 857 q 182 949 146 949 q 213 939 201 949 q 232 929 225 929 q 236 939 233 929 l 242 939 l 249 856 l 239 813 q 238 845 242 824 q 228 888 235 867 q 210 926 221 910 q 189 942 200 942 q 169 897 178 942 q 161 789 161 853 q 169 680 161 724 q 189 636 178 636 q 208 651 200 636 q 223 688 217 667 q 233 733 229 710 q 240 769 238 756 l 249 722 l 242 639 l 236 639 q 232 649 233 649 q 213 639 225 649 q 182 629 201 629 q 122 672 144 629 q 99 785 99 714 z "},"":{"ha":351,"x_min":10,"x_max":293,"o":"m 169 444 q 182 475 178 456 q 189 508 186 494 l 192 613 q 181 551 186 582 q 168 497 176 521 q 148 456 160 472 q 115 438 136 440 q 84 440 101 436 q 52 455 67 443 q 28 488 38 467 q 18 540 18 508 q 23 592 18 564 q 45 649 28 619 q 96 710 63 679 q 185 771 129 742 q 182 784 185 774 q 174 805 179 794 q 162 824 169 815 q 144 832 154 832 q 108 805 131 832 q 66 742 86 778 q 31 673 46 707 q 17 625 17 639 l 10 625 l 18 807 q 39 819 22 813 q 75 831 56 825 q 115 840 94 836 q 147 844 135 844 q 190 841 168 844 q 228 826 211 838 q 257 791 246 814 q 268 731 268 768 l 268 513 q 274 485 271 499 q 293 442 281 458 l 293 436 l 169 436 l 169 444 m 189 756 q 106 662 128 706 q 83 586 83 618 q 85 568 83 579 q 92 547 88 557 q 105 529 97 536 q 124 522 113 522 q 155 545 143 522 q 174 598 167 568 q 185 655 182 628 q 189 690 188 682 l 189 756 z "},"":{"ha":497,"x_min":24,"x_max":442,"o":"m 299 203 l 24 408 l 24 506 l 299 711 l 299 651 l 53 456 l 299 264 l 299 203 m 442 203 l 168 408 l 168 506 l 442 711 l 442 651 l 199 456 l 442 264 l 442 203 z "},"":{"ha":558,"x_min":122,"x_max":519,"o":"m 465 219 l 465 424 l 122 424 l 122 488 l 519 488 l 519 219 l 465 219 z "},"":{"ha":390,"x_min":18,"x_max":350,"o":"m 18 785 q 63 933 18 876 q 185 989 108 989 q 305 933 260 989 q 350 785 350 876 q 305 635 350 692 q 185 579 260 579 q 63 635 108 579 q 18 785 18 692 m 31 786 q 72 643 31 696 q 185 590 114 590 q 294 643 253 590 q 336 786 336 696 q 294 926 336 874 q 185 978 253 978 q 72 926 114 978 q 31 786 31 874 m 99 649 q 115 653 108 649 q 122 675 122 658 l 122 903 q 115 928 122 922 q 99 933 108 933 l 99 936 l 176 936 q 204 935 189 936 q 234 926 219 933 q 258 905 249 919 q 268 865 268 890 q 257 818 268 838 q 208 799 246 799 l 256 682 q 285 649 267 649 l 285 646 l 197 646 l 197 649 q 217 682 228 649 l 174 799 l 164 799 l 164 675 q 169 653 164 658 q 183 649 175 649 l 183 646 l 99 646 l 99 649 m 189 803 q 215 819 208 803 q 222 864 222 835 q 208 910 222 888 q 176 932 193 932 l 164 932 l 164 803 l 189 803 z "},"":{"ha":442,"x_min":31,"x_max":336,"o":"m 31 786 q 72 926 31 874 q 185 978 114 978 q 294 926 253 978 q 336 786 336 874 q 294 643 336 696 q 185 590 253 590 q 72 643 114 590 q 31 786 31 696 m 99 785 q 122 701 99 732 q 185 671 146 671 q 245 701 222 671 q 268 785 268 732 q 245 867 268 836 q 185 897 222 897 q 122 867 146 897 q 99 785 99 836 z "},"":{"ha":606,"x_min":122,"x_max":519,"o":"m 122 154 l 519 154 l 519 90 l 122 90 l 122 154 m 125 483 l 278 483 l 278 681 l 343 681 l 343 483 l 503 483 l 503 429 l 343 429 l 343 210 l 278 210 l 278 429 l 125 429 l 125 483 z "},"":{"ha":392,"x_min":56,"x_max":368,"o":"m 68 496 q 131 558 103 511 q 178 659 158 604 q 208 768 197 714 q 218 853 218 822 q 206 934 218 903 q 178 965 193 965 q 157 947 167 963 q 141 908 147 932 q 131 853 135 883 q 128 792 128 824 q 128 758 128 775 q 132 726 129 742 l 117 714 q 69 780 83 747 q 56 843 56 813 q 64 890 56 867 q 89 934 72 914 q 130 967 106 954 q 185 979 154 979 q 237 972 210 979 q 287 945 264 964 q 324 895 310 926 q 339 818 339 864 q 319 714 339 767 q 267 613 300 661 q 194 523 235 564 q 111 454 153 482 q 181 463 143 454 q 254 487 218 471 q 320 526 290 503 q 364 578 350 549 l 368 578 l 342 436 l 57 436 l 68 496 z "},"":{"ha":324,"x_min":15,"x_max":303,"o":"m 275 876 q 251 804 275 839 q 182 756 226 769 q 276 702 250 744 q 303 607 303 660 q 260 488 303 536 q 125 439 217 439 q 44 474 74 439 q 17 565 15 510 l 65 696 q 65 627 64 669 q 73 545 67 585 q 90 477 79 506 q 118 449 101 449 q 172 488 150 449 q 194 588 194 526 q 188 648 194 619 q 170 699 182 676 q 143 737 158 722 q 111 754 128 751 l 111 758 q 158 797 142 769 q 174 865 174 825 q 158 937 174 906 q 114 968 142 968 q 82 945 96 968 q 58 892 68 922 q 42 833 47 861 q 33 793 36 804 l 28 889 q 67 962 38 931 q 151 993 96 993 q 202 983 179 993 q 241 957 225 974 q 266 919 257 940 q 275 876 275 899 z "},"":{"ha":226,"x_min":60,"x_max":197,"o":"m 60 896 l 135 1011 q 153 1019 143 1019 q 183 1003 169 1019 q 197 967 197 986 q 189 944 197 956 l 86 863 l 60 896 z "},"":{"ha":606,"x_min":-24,"x_max":603,"o":"m -24 -228 q 10 -150 13 -190 l 10 828 q 37 830 21 829 q 65 831 53 831 q 122 826 100 831 q 157 809 144 821 q 174 778 169 797 q 178 728 178 758 l 178 267 q 180 210 178 244 q 192 145 182 176 q 219 92 201 114 q 268 69 238 69 q 322 85 296 69 q 369 124 349 100 q 403 176 390 147 q 415 229 415 204 l 415 742 q 408 796 415 769 q 372 828 400 822 q 394 830 383 829 q 419 831 406 831 q 485 826 456 831 q 538 810 515 821 q 574 778 561 799 q 586 728 586 758 l 586 29 q 603 -14 589 7 l 399 -14 q 415 29 418 7 l 415 72 q 361 51 389 58 q 292 44 333 44 q 232 48 258 44 q 178 63 206 51 l 178 -150 q 211 -228 178 -190 l -24 -228 z "},"":{"ha":407,"x_min":18,"x_max":353,"o":"m 228 0 l 228 485 l 165 485 q 102 506 129 485 q 56 560 75 526 q 28 638 38 594 q 18 728 18 682 q 27 819 18 775 q 55 897 36 863 q 101 951 74 931 q 165 972 129 972 l 353 972 l 353 0 l 310 0 l 310 939 l 275 939 l 275 0 l 228 0 z "},"":{"ha":453,"x_min":133,"x_max":250,"o":"m 133 476 q 149 523 133 504 q 190 542 164 542 q 234 523 218 542 q 250 476 250 504 q 233 431 250 449 q 190 414 215 414 q 149 431 164 414 q 133 476 133 449 z "},"":{"ha":235,"x_min":24,"x_max":217,"o":"m 174 8 l 111 -61 q 183 -81 149 -58 q 217 -151 217 -103 q 178 -231 217 -201 q 82 -261 140 -261 q 39 -257 60 -261 l 39 -208 q 106 -196 85 -214 q 126 -147 126 -178 q 117 -116 126 -128 q 92 -99 107 -104 q 59 -92 78 -93 q 24 -94 40 -92 l 126 8 l 174 8 z "},"":{"ha":210,"x_min":18,"x_max":182,"o":"m 51 899 q 40 932 51 922 q 18 942 29 942 l 18 946 q 51 948 31 946 q 90 953 71 950 q 127 963 110 957 q 150 975 144 968 l 153 974 l 153 486 q 161 454 153 467 q 182 442 169 442 l 182 436 l 24 436 l 24 442 q 44 454 38 442 q 51 486 51 467 l 51 899 z "},"":{"ha":422,"x_min":28,"x_max":326,"o":"m 326 719 q 324 638 326 686 q 306 547 321 590 q 259 472 292 503 q 168 442 226 442 q 101 461 128 442 q 58 517 74 481 q 35 604 42 553 q 28 719 28 656 q 41 810 28 769 q 75 877 54 850 q 122 919 96 904 q 176 933 149 933 q 234 922 207 933 q 282 883 261 910 q 315 817 303 857 q 326 719 326 776 m 176 458 q 199 478 189 458 q 217 530 210 497 q 230 603 225 563 q 235 686 235 644 q 232 770 235 729 q 222 844 229 811 q 204 896 215 876 q 176 915 193 915 q 154 896 164 915 q 138 844 144 876 q 129 770 132 811 q 126 686 126 729 q 130 603 126 644 q 140 530 133 563 q 155 478 146 497 q 176 458 164 458 z "},"":{"ha":465,"x_min":24,"x_max":442,"o":"m 168 264 l 411 456 l 168 651 l 168 711 l 442 506 l 442 408 l 168 203 l 168 264 m 24 264 l 267 456 l 24 651 l 24 711 l 299 506 l 299 408 l 24 203 l 24 264 z "},"":{"ha":642,"x_min":18,"x_max":556,"o":"m 419 61 q 392 14 419 14 l 392 8 l 556 8 l 556 14 q 535 26 543 14 q 526 61 526 39 l 526 540 l 440 540 l 269 197 l 269 143 l 419 143 l 419 61 m 410 1032 l 481 1032 l 142 0 l 76 0 l 410 1032 m 419 481 l 419 232 l 297 232 l 419 481 m 51 899 q 40 932 51 922 q 18 942 29 942 l 18 946 q 50 948 31 946 q 90 953 69 950 q 126 963 110 957 q 150 975 143 968 l 153 974 l 153 489 q 182 444 153 444 l 182 439 l 24 439 l 24 444 q 51 489 51 444 l 51 899 z "},"":{"ha":685,"x_min":18,"x_max":658,"o":"m 360 60 q 420 121 393 75 q 467 221 447 167 q 498 327 488 275 q 508 410 508 379 q 496 494 508 461 q 468 526 483 526 q 447 508 456 524 q 431 469 438 493 q 422 416 425 446 q 418 354 418 386 q 419 321 418 338 q 422 289 419 304 l 407 276 q 361 342 375 310 q 347 406 347 375 q 356 453 347 429 q 381 496 364 476 q 421 528 397 515 q 475 540 444 540 q 527 533 500 540 q 576 506 554 525 q 613 457 599 488 q 628 381 628 426 q 608 278 628 331 q 556 176 588 225 q 483 88 524 128 q 401 19 443 47 q 471 28 433 19 q 544 51 508 36 q 608 90 579 67 q 651 142 638 113 l 658 142 l 632 1 l 347 1 l 360 60 m 51 899 q 40 932 51 922 q 18 942 29 942 l 18 946 q 51 948 31 946 q 90 953 71 950 q 127 963 110 957 q 150 975 144 968 l 153 974 l 153 486 q 161 454 153 467 q 182 442 169 442 l 182 436 l 24 436 l 24 442 q 44 454 38 442 q 51 486 51 467 l 51 899 m 439 1032 l 508 1032 l 169 0 l 103 0 l 439 1032 z "},"":{"ha":683,"x_min":15,"x_max":653,"o":"m 517 56 q 510 20 517 33 q 489 7 503 7 l 489 1 l 653 1 l 653 7 q 633 20 640 7 q 625 56 625 33 l 625 540 l 536 540 l 351 193 l 351 138 l 517 138 l 517 56 m 514 1032 l 583 1032 l 244 0 l 181 0 l 514 1032 m 517 479 l 517 229 l 390 229 l 517 479 m 275 876 q 251 804 275 839 q 182 756 226 769 q 276 702 250 744 q 303 607 303 660 q 260 488 303 536 q 125 439 217 439 q 44 474 74 439 q 17 565 15 510 l 65 696 q 65 627 64 669 q 73 545 67 585 q 90 477 79 506 q 118 449 101 449 q 172 488 150 449 q 194 588 194 526 q 188 648 194 619 q 170 699 182 676 q 143 737 158 722 q 111 754 128 751 l 111 758 q 158 797 142 769 q 174 865 174 825 q 158 937 174 906 q 114 968 142 968 q 82 945 96 968 q 58 892 68 922 q 42 833 47 861 q 33 793 36 804 l 28 889 q 67 962 38 931 q 151 993 96 993 q 202 983 179 993 q 241 957 225 974 q 266 919 257 940 q 275 876 275 899 z "},"":{"ha":524,"x_min":15,"x_max":497,"o":"m 256 510 q 226 456 239 488 q 204 388 213 424 q 191 315 196 353 q 186 239 186 276 q 192 163 186 199 q 208 99 197 126 q 237 56 219 72 q 276 40 254 40 q 342 62 314 40 q 389 117 369 83 q 418 194 408 151 q 428 278 428 236 q 418 358 428 321 q 385 418 408 394 l 407 444 q 475 331 453 389 q 497 219 497 274 q 481 131 497 172 q 433 58 464 89 q 358 8 403 26 q 258 -10 314 -10 q 135 17 183 -10 q 60 83 88 43 q 24 169 33 122 q 19 254 15 215 q 49 378 28 331 q 94 454 69 425 q 141 499 118 483 q 176 525 164 514 q 219 585 201 550 q 248 658 238 621 q 263 732 258 696 q 267 793 268 768 l 300 789 q 300 728 300 761 q 297 658 300 694 q 284 584 293 622 q 256 510 275 546 m 372 939 q 310 982 332 958 q 278 1046 289 1006 q 270 1022 278 1036 q 250 992 263 1007 q 222 962 238 976 q 189 939 206 947 q 217 924 203 935 q 243 897 231 913 q 265 865 256 882 q 278 832 274 847 q 312 894 289 867 q 372 939 335 921 z "},"":{"ha":707,"x_min":22,"x_max":682,"o":"m 368 1071 l 267 1153 q 258 1175 258 1161 q 272 1211 258 1194 q 301 1228 286 1228 q 318 1219 313 1228 l 394 1104 l 368 1071 m 224 901 q 229 933 226 917 q 232 968 232 950 q 218 1032 232 1006 l 524 1032 q 507 1001 513 1019 q 499 964 501 982 q 497 933 497 946 q 497 917 497 919 l 585 289 q 597 225 589 265 q 619 141 606 185 q 648 58 632 97 q 682 0 664 19 l 364 0 q 389 60 383 25 q 394 135 394 94 q 386 246 394 192 l 375 322 l 161 322 l 125 133 q 119 99 121 114 q 118 74 118 85 q 124 34 118 50 q 143 0 131 18 l 22 0 q 41 26 32 10 q 58 61 50 43 q 72 97 65 79 q 81 128 78 115 l 224 901 m 169 364 l 368 364 l 272 939 l 169 364 z "},"":{"ha":707,"x_min":22,"x_max":682,"o":"m 307 1099 l 383 1214 q 400 1222 392 1222 q 430 1206 417 1222 q 443 1169 443 1189 q 435 1147 443 1156 l 333 1065 l 307 1099 m 224 901 q 229 933 226 917 q 232 968 232 950 q 218 1032 232 1006 l 524 1032 q 507 1001 513 1019 q 499 964 501 982 q 497 933 497 946 q 497 917 497 919 l 585 289 q 597 225 589 265 q 619 141 606 185 q 648 58 632 97 q 682 0 664 19 l 364 0 q 389 60 383 25 q 394 135 394 94 q 386 246 394 192 l 375 322 l 161 322 l 125 133 q 119 99 121 114 q 118 74 118 85 q 124 34 118 50 q 143 0 131 18 l 22 0 q 41 26 32 10 q 58 61 50 43 q 72 97 65 79 q 81 128 78 115 l 224 901 m 169 364 l 368 364 l 272 939 l 169 364 z "},"":{"ha":707,"x_min":22,"x_max":682,"o":"m 325 1189 l 378 1189 l 465 1056 l 411 1056 l 353 1121 l 349 1121 l 293 1056 l 240 1056 l 325 1189 m 224 901 q 229 933 226 917 q 232 968 232 950 q 218 1032 232 1006 l 524 1032 q 507 1001 513 1019 q 499 964 501 982 q 497 933 497 946 q 497 917 497 919 l 585 289 q 597 225 589 265 q 619 141 606 185 q 648 58 632 97 q 682 0 664 19 l 364 0 q 389 60 383 25 q 394 135 394 94 q 386 246 394 192 l 375 322 l 161 322 l 125 133 q 119 99 121 114 q 118 74 118 85 q 124 34 118 50 q 143 0 131 18 l 22 0 q 41 26 32 10 q 58 61 50 43 q 72 97 65 79 q 81 128 78 115 l 224 901 m 169 364 l 368 364 l 272 939 l 169 364 z "},"":{"ha":707,"x_min":22,"x_max":682,"o":"m 240 1047 q 247 1123 240 1093 q 265 1170 254 1153 q 292 1194 276 1188 q 325 1201 307 1201 q 364 1196 344 1201 q 403 1183 383 1190 q 440 1169 422 1175 q 469 1164 457 1164 q 489 1171 481 1164 q 497 1196 497 1178 l 507 1196 q 488 1096 507 1122 q 440 1069 468 1069 q 403 1076 422 1069 q 364 1090 383 1082 q 326 1103 344 1097 q 293 1110 308 1110 q 263 1097 275 1110 q 250 1047 251 1083 l 240 1047 m 224 901 q 229 933 226 917 q 232 968 232 950 q 218 1032 232 1006 l 524 1032 q 507 1001 513 1019 q 499 964 501 982 q 497 933 497 946 q 497 917 497 919 l 585 289 q 597 225 589 265 q 619 141 606 185 q 648 58 632 97 q 682 0 664 19 l 364 0 q 389 60 383 25 q 394 135 394 94 q 386 246 394 192 l 375 322 l 161 322 l 125 133 q 119 99 121 114 q 118 74 118 85 q 124 34 118 50 q 143 0 131 18 l 22 0 q 41 26 32 10 q 58 61 50 43 q 72 97 65 79 q 81 128 78 115 l 224 901 m 169 364 l 368 364 l 272 939 l 169 364 z "},"":{"ha":707,"x_min":22,"x_max":682,"o":"m 251 1126 q 265 1178 251 1157 q 303 1199 278 1199 q 343 1178 328 1199 q 358 1126 358 1158 q 342 1078 358 1097 q 303 1058 326 1058 q 265 1077 279 1058 q 251 1126 251 1096 m 381 1126 q 394 1178 381 1157 q 433 1199 408 1199 q 473 1178 457 1199 q 489 1126 489 1158 q 473 1078 489 1097 q 433 1058 457 1058 q 395 1077 410 1058 q 381 1126 381 1096 m 224 901 q 229 933 226 917 q 232 968 232 950 q 218 1032 232 1006 l 524 1032 q 507 1001 513 1019 q 499 964 501 982 q 497 933 497 946 q 497 917 497 919 l 585 289 q 597 225 589 265 q 619 141 606 185 q 648 58 632 97 q 682 0 664 19 l 364 0 q 389 60 383 25 q 394 135 394 94 q 386 246 394 192 l 375 322 l 161 322 l 125 133 q 119 99 121 114 q 118 74 118 85 q 124 34 118 50 q 143 0 131 18 l 22 0 q 41 26 32 10 q 58 61 50 43 q 72 97 65 79 q 81 128 78 115 l 224 901 m 169 364 l 368 364 l 272 939 l 169 364 z "},"":{"ha":707,"x_min":22,"x_max":682,"o":"m 275 1150 q 297 1213 275 1189 q 351 1238 319 1238 q 407 1213 383 1238 q 431 1150 431 1189 q 408 1085 431 1110 q 351 1061 386 1061 q 297 1085 319 1061 q 275 1150 275 1110 m 317 1151 q 326 1116 317 1131 q 351 1101 336 1101 q 377 1116 368 1101 q 386 1151 386 1131 q 376 1183 386 1169 q 351 1196 367 1196 q 327 1183 338 1196 q 317 1151 317 1169 m 224 901 q 229 933 226 917 q 232 968 232 950 q 218 1032 232 1006 l 524 1032 q 507 1001 513 1019 q 499 964 501 982 q 497 933 497 946 q 497 917 497 919 l 585 289 q 597 225 589 265 q 619 141 606 185 q 648 58 632 97 q 682 0 664 19 l 364 0 q 389 60 383 25 q 394 135 394 94 q 386 246 394 192 l 375 322 l 161 322 l 125 133 q 119 99 121 114 q 118 74 118 85 q 124 34 118 50 q 143 0 131 18 l 22 0 q 41 26 32 10 q 58 61 50 43 q 72 97 65 79 q 81 128 78 115 l 224 901 m 169 364 l 368 364 l 272 939 l 169 364 z "},"":{"ha":1153,"x_min":22,"x_max":1103,"o":"m 815 581 l 993 581 l 990 364 l 978 364 q 964 410 976 376 q 930 477 951 443 q 879 538 908 511 q 815 564 850 564 l 815 14 q 947 47 896 14 q 1027 125 997 79 q 1071 221 1057 171 q 1093 306 1085 271 l 1103 306 l 1086 0 l 364 0 q 393 160 393 71 q 391 203 393 182 q 386 246 389 224 l 375 322 l 161 322 l 125 133 q 119 81 119 106 q 126 36 119 54 q 143 0 132 18 l 22 0 q 44 26 35 10 q 61 61 54 43 q 73 97 68 79 q 81 128 78 115 l 224 901 q 231 969 231 936 q 228 1002 231 986 q 218 1032 225 1018 l 524 1032 q 498 981 503 1008 q 497 917 493 953 l 585 289 q 599 232 588 274 q 625 144 610 190 l 625 825 q 622 890 625 856 q 616 953 619 924 q 608 1001 613 982 q 601 1021 604 1021 l 601 1032 l 1086 1032 l 1103 713 l 1093 713 q 1063 808 1079 754 q 1015 908 1046 861 q 938 986 985 954 q 815 1018 890 1018 l 815 581 m 169 364 l 368 364 l 272 939 l 169 364 z "},"":{"ha":606,"x_min":10,"x_max":606,"o":"m 382 -1 q 350 -5 367 -4 q 315 -3 333 -6 l 299 -22 q 369 -42 336 -19 q 401 -112 401 -64 q 365 -192 401 -162 q 268 -222 328 -222 q 225 -218 249 -222 l 225 -169 q 292 -157 271 -175 q 314 -108 314 -139 q 304 -77 314 -89 q 279 -60 294 -65 q 246 -53 264 -54 q 210 -56 228 -53 l 269 6 q 177 53 224 19 q 94 147 131 86 q 33 298 57 207 q 10 517 10 389 q 44 766 10 667 q 126 924 78 865 q 226 1008 174 983 q 317 1032 279 1032 q 486 978 424 1032 q 576 800 549 924 l 408 668 q 410 692 410 679 q 410 717 410 704 q 402 815 410 767 q 381 902 394 864 q 350 965 368 940 q 311 989 332 989 q 308 988 310 989 q 306 988 307 988 q 269 953 285 983 q 243 878 254 922 q 225 781 232 833 q 213 681 218 729 q 207 595 208 633 q 206 540 206 557 q 224 345 206 425 q 273 215 243 265 q 342 142 303 165 q 419 117 381 118 q 472 134 447 117 q 518 183 497 151 q 553 260 539 215 q 574 358 568 304 l 606 357 q 590 245 604 304 q 549 134 576 186 q 480 45 521 82 q 382 -1 439 8 z "},"":{"ha":539,"x_min":14,"x_max":515,"o":"m 281 1051 l 178 1133 q 169 1156 169 1144 q 183 1192 169 1175 q 214 1208 197 1208 q 232 1200 224 1208 l 307 1085 l 281 1051 m 228 581 l 407 581 l 403 364 l 392 364 q 377 410 390 376 q 343 477 364 443 q 293 538 322 511 q 228 564 264 564 l 228 14 q 359 47 308 14 q 440 125 410 79 q 484 221 469 171 q 507 306 499 271 l 515 306 l 500 0 l 22 0 q 33 38 29 17 q 38 84 36 60 q 39 134 39 108 q 39 182 39 160 l 39 825 q 34 933 39 878 q 14 1032 29 989 l 500 1032 l 515 713 l 507 713 q 475 808 493 754 q 427 908 457 861 q 350 986 397 954 q 228 1018 303 1018 l 228 581 z "},"":{"ha":539,"x_min":14,"x_max":515,"o":"m 208 1085 l 283 1200 q 301 1208 292 1208 q 331 1192 318 1208 q 344 1156 344 1175 q 336 1133 344 1142 l 235 1051 l 208 1085 m 228 581 l 407 581 l 403 364 l 392 364 q 377 410 390 376 q 343 477 364 443 q 293 538 322 511 q 228 564 264 564 l 228 14 q 359 47 308 14 q 440 125 410 79 q 484 221 469 171 q 507 306 499 271 l 515 306 l 500 0 l 22 0 q 33 38 29 17 q 38 84 36 60 q 39 134 39 108 q 39 182 39 160 l 39 825 q 34 933 39 878 q 14 1032 29 989 l 500 1032 l 515 713 l 507 713 q 475 808 493 754 q 427 908 457 861 q 350 986 397 954 q 228 1018 303 1018 l 228 581 z "},"":{"ha":539,"x_min":14,"x_max":515,"o":"m 225 1186 l 278 1186 l 365 1053 l 314 1053 l 256 1118 l 250 1118 l 193 1053 l 142 1053 l 225 1186 m 228 581 l 407 581 l 403 364 l 392 364 q 377 410 390 376 q 343 477 364 443 q 293 538 322 511 q 228 564 264 564 l 228 14 q 359 47 308 14 q 440 125 410 79 q 484 221 469 171 q 507 306 499 271 l 515 306 l 500 0 l 22 0 q 33 38 29 17 q 38 84 36 60 q 39 134 39 108 q 39 182 39 160 l 39 825 q 34 933 39 878 q 14 1032 29 989 l 500 1032 l 515 713 l 507 713 q 475 808 493 754 q 427 908 457 861 q 350 986 397 954 q 228 1018 303 1018 l 228 581 z "},"":{"ha":539,"x_min":14,"x_max":515,"o":"m 150 1122 q 164 1174 150 1153 q 203 1194 178 1194 q 242 1174 226 1194 q 258 1122 258 1154 q 242 1074 258 1093 q 203 1054 226 1054 q 165 1073 179 1054 q 150 1122 150 1092 m 281 1122 q 294 1174 281 1153 q 333 1194 308 1194 q 372 1174 357 1194 q 386 1122 386 1154 q 372 1074 386 1093 q 333 1054 357 1054 q 295 1073 310 1054 q 281 1122 281 1092 m 228 581 l 407 581 l 403 364 l 392 364 q 377 410 390 376 q 343 477 364 443 q 293 538 322 511 q 228 564 264 564 l 228 14 q 359 47 308 14 q 440 125 410 79 q 484 221 469 171 q 507 306 499 271 l 515 306 l 500 0 l 22 0 q 33 38 29 17 q 38 84 36 60 q 39 134 39 108 q 39 182 39 160 l 39 825 q 34 933 39 878 q 14 1032 29 989 l 500 1032 l 515 713 l 507 713 q 475 808 493 754 q 427 908 457 861 q 350 986 397 954 q 228 1018 303 1018 l 228 581 z "},"":{"ha":310,"x_min":14,"x_max":272,"o":"m 169 1051 l 68 1133 q 60 1156 60 1144 q 74 1192 60 1175 q 103 1208 88 1208 q 119 1200 114 1208 l 197 1085 l 169 1051 m 272 1032 q 244 967 256 1008 q 232 886 232 925 l 232 165 q 240 71 232 114 q 272 0 249 28 l 14 0 q 30 31 24 11 q 40 73 36 50 q 47 120 44 96 q 49 165 49 144 l 49 890 q 39 969 49 931 q 14 1032 29 1007 l 272 1032 z "},"":{"ha":310,"x_min":14,"x_max":272,"o":"m 93 1089 l 169 1204 q 186 1213 178 1213 q 217 1196 203 1213 q 231 1160 231 1179 q 222 1138 231 1149 l 119 1056 l 93 1089 m 272 1032 q 244 967 256 1008 q 232 886 232 925 l 232 165 q 240 71 232 114 q 272 0 249 28 l 14 0 q 30 31 24 11 q 40 73 36 50 q 47 120 44 96 q 49 165 49 144 l 49 890 q 39 969 49 931 q 14 1032 29 1007 l 272 1032 z "},"":{"ha":310,"x_min":14,"x_max":272,"o":"m 126 1190 l 181 1190 l 267 1057 l 214 1057 l 156 1122 l 150 1122 l 94 1057 l 42 1057 l 126 1190 m 272 1032 q 244 967 256 1008 q 232 886 232 925 l 232 165 q 240 71 232 114 q 272 0 249 28 l 14 0 q 30 31 24 11 q 40 73 36 50 q 47 120 44 96 q 49 165 49 144 l 49 890 q 39 969 49 931 q 14 1032 29 1007 l 272 1032 z "},"":{"ha":310,"x_min":14,"x_max":274,"o":"m 36 1115 q 51 1167 36 1146 q 89 1188 65 1188 q 128 1167 114 1188 q 143 1115 143 1147 q 128 1067 143 1086 q 89 1047 113 1047 q 51 1066 65 1047 q 36 1115 36 1085 m 165 1115 q 179 1167 165 1146 q 218 1188 193 1188 q 258 1167 243 1188 q 274 1115 274 1147 q 258 1067 274 1086 q 218 1047 242 1047 q 180 1066 194 1047 q 165 1115 165 1085 m 272 1032 q 244 967 256 1008 q 232 886 232 925 l 232 165 q 240 71 232 114 q 272 0 249 28 l 14 0 q 30 31 24 11 q 40 73 36 50 q 47 120 44 96 q 49 165 49 144 l 49 890 q 39 969 49 931 q 14 1032 29 1007 l 272 1032 z "},"":{"ha":628,"x_min":-40,"x_max":608,"o":"m -40 578 l 53 578 l 53 794 q 51 858 53 825 q 47 921 50 890 q 37 978 43 951 q 19 1022 31 1004 l 19 1032 l 260 1032 q 401 999 338 1032 q 511 902 465 965 q 583 747 557 839 q 608 539 608 656 q 592 334 608 432 q 535 162 575 236 q 429 44 494 88 q 265 0 364 0 l 6 0 l 6 11 q 25 31 17 11 q 40 78 33 50 q 49 139 46 107 q 53 197 53 171 l 53 514 l -40 514 l -40 578 m 239 64 q 260 21 239 21 l 267 21 q 313 57 293 21 q 348 150 333 93 q 372 276 363 207 q 388 412 382 346 q 395 533 393 478 q 397 615 397 588 q 388 801 397 726 q 362 920 378 875 q 325 984 346 965 q 282 1003 304 1003 q 261 996 269 1003 q 248 978 253 989 q 241 955 243 967 q 239 932 239 943 l 239 578 l 361 578 l 361 514 l 239 514 l 239 64 z "},"":{"ha":678,"x_min":10,"x_max":647,"o":"m 189 97 q 193 78 189 90 q 203 52 197 65 q 216 28 210 39 q 225 11 222 17 l 225 0 l 10 0 l 10 11 q 19 29 14 17 q 27 56 24 42 q 33 81 31 69 q 35 97 35 93 l 35 883 q 32 950 35 913 q 10 1021 29 988 l 10 1032 l 189 1032 q 308 838 261 947 q 385 622 356 729 q 428 424 414 515 q 447 285 442 333 l 447 935 q 438 967 446 951 q 422 995 431 983 q 408 1014 414 1007 q 401 1021 401 1021 l 401 1032 l 647 1032 l 647 1021 q 633 999 639 1011 q 622 972 626 988 q 618 935 618 956 l 618 97 l 640 11 l 640 0 l 410 0 l 410 11 l 442 99 l 444 172 q 424 294 438 228 q 392 426 410 360 q 351 556 374 493 q 302 670 328 619 q 248 753 276 721 q 189 789 219 785 l 189 97 m 194 1063 q 201 1138 194 1108 q 220 1185 208 1168 q 247 1210 232 1203 q 281 1217 263 1217 q 319 1211 300 1217 q 358 1198 339 1206 q 395 1185 378 1190 q 425 1179 413 1179 q 451 1211 451 1179 l 461 1211 q 442 1111 461 1138 q 394 1085 424 1085 q 358 1091 378 1085 q 319 1105 339 1097 q 282 1119 300 1113 q 249 1125 264 1125 q 217 1112 229 1125 q 203 1063 206 1099 l 194 1063 z "},"":{"ha":656,"x_min":25,"x_max":600,"o":"m 307 -14 q 194 11 246 -14 q 104 99 142 36 q 46 266 67 161 q 25 531 25 371 q 97 905 25 778 q 307 1032 168 1032 q 421 1000 368 1032 q 514 906 474 968 q 577 750 554 843 q 600 533 600 657 q 577 256 600 363 q 514 90 554 150 q 421 8 474 29 q 307 -14 368 -14 m 308 3 q 351 39 333 3 q 382 138 369 75 q 400 290 394 201 q 406 482 406 378 q 398 683 406 586 q 378 853 390 779 q 347 971 365 926 q 308 1015 329 1015 q 265 972 283 1015 q 233 854 246 928 q 213 685 219 781 q 206 483 206 589 q 212 290 206 378 q 231 138 218 201 q 264 38 244 74 q 308 3 283 3 m 325 1051 l 224 1133 q 215 1156 215 1142 q 228 1192 215 1175 q 258 1208 242 1208 q 276 1200 271 1208 l 351 1085 l 325 1051 z "},"":{"ha":656,"x_min":25,"x_max":600,"o":"m 307 -14 q 194 11 246 -14 q 104 99 142 36 q 46 266 67 161 q 25 531 25 371 q 97 905 25 778 q 307 1032 168 1032 q 421 1000 368 1032 q 514 906 474 968 q 577 750 554 843 q 600 533 600 657 q 577 256 600 363 q 514 90 554 150 q 421 8 474 29 q 307 -14 368 -14 m 308 3 q 351 39 333 3 q 382 138 369 75 q 400 290 394 201 q 406 482 406 378 q 398 683 406 586 q 378 853 390 779 q 347 971 365 926 q 308 1015 329 1015 q 265 972 283 1015 q 233 854 246 928 q 213 685 219 781 q 206 483 206 589 q 212 290 206 378 q 231 138 218 201 q 264 38 244 74 q 308 3 283 3 m 243 1096 l 318 1211 q 336 1219 326 1219 q 367 1203 353 1219 q 381 1167 381 1186 q 372 1144 381 1156 l 269 1063 l 243 1096 z "},"":{"ha":656,"x_min":25,"x_max":600,"o":"m 307 -14 q 194 11 246 -14 q 104 99 142 36 q 46 266 67 161 q 25 531 25 371 q 97 905 25 778 q 307 1032 168 1032 q 421 1000 368 1032 q 514 906 474 968 q 577 750 554 843 q 600 533 600 657 q 577 256 600 363 q 514 90 554 150 q 421 8 474 29 q 307 -14 368 -14 m 308 3 q 351 39 333 3 q 382 138 369 75 q 400 290 394 201 q 406 482 406 378 q 398 683 406 586 q 378 853 390 779 q 347 971 365 926 q 308 1015 329 1015 q 265 972 283 1015 q 233 854 246 928 q 213 685 219 781 q 206 483 206 589 q 212 290 206 378 q 231 138 218 201 q 264 38 244 74 q 308 3 283 3 m 253 1183 l 307 1183 l 393 1050 l 340 1050 l 282 1115 l 278 1115 l 222 1050 l 169 1050 l 253 1183 z "},"":{"ha":656,"x_min":25,"x_max":600,"o":"m 307 -14 q 194 11 246 -14 q 104 99 142 36 q 46 266 67 161 q 25 531 25 371 q 97 905 25 778 q 307 1032 168 1032 q 421 1000 368 1032 q 514 906 474 968 q 577 750 554 843 q 600 533 600 657 q 577 256 600 363 q 514 90 554 150 q 421 8 474 29 q 307 -14 368 -14 m 308 3 q 351 39 333 3 q 382 138 369 75 q 400 290 394 201 q 406 482 406 378 q 398 683 406 586 q 378 853 390 779 q 347 971 365 926 q 308 1015 329 1015 q 265 972 283 1015 q 233 854 246 928 q 213 685 219 781 q 206 483 206 589 q 212 290 206 378 q 231 138 218 201 q 264 38 244 74 q 308 3 283 3 m 165 1032 q 172 1108 165 1078 q 190 1155 179 1138 q 217 1179 201 1172 q 250 1186 232 1186 q 289 1181 269 1186 q 328 1167 308 1175 q 365 1154 347 1160 q 394 1149 382 1149 q 414 1156 406 1149 q 422 1181 422 1163 l 432 1181 q 413 1081 432 1107 q 365 1054 393 1054 q 329 1060 349 1054 q 290 1074 310 1067 q 253 1088 271 1082 q 219 1094 235 1094 q 189 1081 200 1094 q 175 1032 178 1068 l 165 1032 z "},"":{"ha":656,"x_min":25,"x_max":600,"o":"m 307 -14 q 194 11 246 -14 q 104 99 142 36 q 46 266 67 161 q 25 531 25 371 q 97 905 25 778 q 307 1032 168 1032 q 421 1000 368 1032 q 514 906 474 968 q 577 750 554 843 q 600 533 600 657 q 577 256 600 363 q 514 90 554 150 q 421 8 474 29 q 307 -14 368 -14 m 308 3 q 351 39 333 3 q 382 138 369 75 q 400 290 394 201 q 406 482 406 378 q 398 683 406 586 q 378 853 390 779 q 347 971 365 926 q 308 1015 329 1015 q 265 972 283 1015 q 233 854 246 928 q 213 685 219 781 q 206 483 206 589 q 212 290 206 378 q 231 138 218 201 q 264 38 244 74 q 308 3 283 3 m 182 1126 q 196 1178 182 1157 q 235 1199 210 1199 q 274 1178 258 1199 q 290 1126 290 1158 q 274 1078 290 1097 q 235 1058 258 1058 q 197 1077 211 1058 q 182 1126 182 1096 m 311 1126 q 326 1178 311 1157 q 364 1199 340 1199 q 403 1178 389 1199 q 418 1126 418 1158 q 403 1078 418 1097 q 364 1058 388 1058 q 326 1077 340 1058 q 311 1126 311 1096 z "},"":{"ha":722,"x_min":126,"x_max":610,"o":"m 610 178 l 560 178 l 369 479 l 176 178 l 126 178 l 344 519 l 151 825 l 206 825 l 372 560 l 540 825 l 593 825 l 394 519 l 610 178 z "},"":{"ha":656,"x_min":25,"x_max":600,"o":"m 460 1032 l 531 1032 l 497 929 q 572 768 543 867 q 600 533 600 669 q 577 256 600 363 q 514 90 554 150 q 421 8 474 29 q 307 -14 368 -14 q 194 11 244 -14 l 192 0 l 126 0 l 142 50 q 56 220 88 106 q 25 531 25 335 q 97 905 25 778 q 307 1032 168 1032 q 443 983 379 1032 l 460 1032 m 308 1015 q 265 972 283 1015 q 233 854 246 928 q 213 685 219 781 q 206 483 206 589 q 214 269 206 365 l 385 801 q 352 956 372 897 q 308 1015 332 1015 m 308 3 q 351 39 333 3 q 382 138 369 75 q 400 290 394 201 q 406 482 406 378 q 404 561 406 522 q 400 638 403 600 l 233 128 q 265 35 246 68 q 308 3 283 3 z "},"":{"ha":675,"x_min":7,"x_max":643,"o":"m 218 272 q 247 94 218 160 q 344 29 275 29 q 421 93 393 29 q 449 272 449 157 l 449 933 q 444 952 449 938 q 432 982 439 967 q 418 1009 425 997 q 407 1021 411 1021 l 407 1032 l 643 1032 l 643 1021 q 624 993 632 1021 q 615 933 615 965 l 615 269 q 592 155 615 206 q 533 69 569 104 q 449 15 496 33 q 353 -4 401 -4 q 119 68 197 -4 q 42 269 42 140 l 42 935 q 38 958 42 943 q 28 986 33 972 q 17 1010 24 1000 q 7 1021 11 1021 l 7 1032 l 251 1032 l 251 1021 q 242 1009 247 1021 q 231 982 236 997 q 222 953 225 967 q 218 935 218 939 l 218 272 m 357 1063 l 256 1144 q 247 1167 247 1153 q 260 1203 247 1186 q 290 1219 274 1219 q 308 1211 300 1219 l 383 1096 l 357 1063 z "},"":{"ha":675,"x_min":7,"x_max":643,"o":"m 218 272 q 247 94 218 160 q 344 29 275 29 q 421 93 393 29 q 449 272 449 157 l 449 933 q 444 952 449 938 q 432 982 439 967 q 418 1009 425 997 q 407 1021 411 1021 l 407 1032 l 643 1032 l 643 1021 q 624 993 632 1021 q 615 933 615 965 l 615 269 q 592 155 615 206 q 533 69 569 104 q 449 15 496 33 q 353 -4 401 -4 q 119 68 197 -4 q 42 269 42 140 l 42 935 q 38 958 42 943 q 28 986 33 972 q 17 1010 24 1000 q 7 1021 11 1021 l 7 1032 l 251 1032 l 251 1021 q 242 1009 247 1021 q 231 982 236 997 q 222 953 225 967 q 218 935 218 939 l 218 272 m 292 1085 l 368 1200 q 385 1208 376 1208 q 415 1192 401 1208 q 428 1156 428 1175 q 419 1133 428 1142 l 318 1051 l 292 1085 z "},"":{"ha":675,"x_min":7,"x_max":643,"o":"m 218 272 q 247 94 218 160 q 344 29 275 29 q 421 93 393 29 q 449 272 449 157 l 449 933 q 444 952 449 938 q 432 982 439 967 q 418 1009 425 997 q 407 1021 411 1021 l 407 1032 l 643 1032 l 643 1021 q 624 993 632 1021 q 615 933 615 965 l 615 269 q 592 155 615 206 q 533 69 569 104 q 449 15 496 33 q 353 -4 401 -4 q 119 68 197 -4 q 42 269 42 140 l 42 935 q 38 958 42 943 q 28 986 33 972 q 17 1010 24 1000 q 7 1021 11 1021 l 7 1032 l 251 1032 l 251 1021 q 242 1009 247 1021 q 231 982 236 997 q 222 953 225 967 q 218 935 218 939 l 218 272 m 306 1186 l 360 1186 l 444 1053 l 393 1053 l 335 1118 l 331 1118 l 275 1053 l 222 1053 l 306 1186 z "},"":{"ha":675,"x_min":7,"x_max":643,"o":"m 218 272 q 247 94 218 160 q 344 29 275 29 q 421 93 393 29 q 449 272 449 157 l 449 933 q 444 952 449 938 q 432 982 439 967 q 418 1009 425 997 q 407 1021 411 1021 l 407 1032 l 643 1032 l 643 1021 q 624 993 632 1021 q 615 933 615 965 l 615 269 q 592 155 615 206 q 533 69 569 104 q 449 15 496 33 q 353 -4 401 -4 q 119 68 197 -4 q 42 269 42 140 l 42 935 q 38 958 42 943 q 28 986 33 972 q 17 1010 24 1000 q 7 1021 11 1021 l 7 1032 l 251 1032 l 251 1021 q 242 1009 247 1021 q 231 982 236 997 q 222 953 225 967 q 218 935 218 939 l 218 272 m 218 1118 q 232 1169 218 1149 q 269 1190 246 1190 q 310 1170 294 1190 q 325 1118 325 1150 q 309 1069 325 1089 q 269 1050 293 1050 q 233 1069 247 1050 q 218 1118 218 1088 m 349 1118 q 363 1169 349 1149 q 400 1190 376 1190 q 440 1170 425 1190 q 456 1118 456 1150 q 440 1069 456 1089 q 400 1050 424 1050 q 363 1069 376 1050 q 349 1118 349 1088 z "},"":{"ha":519,"x_min":0,"x_max":511,"o":"m 331 476 l 418 914 q 418 933 419 919 q 412 964 417 947 q 399 996 407 981 q 378 1019 390 1011 l 378 1032 l 511 1032 l 511 1019 q 483 972 496 1006 q 464 911 471 939 l 340 347 l 364 175 q 371 149 364 171 q 386 101 378 128 q 403 49 394 75 q 414 11 411 24 l 414 0 l 115 0 l 115 11 q 126 44 118 21 q 143 92 135 67 q 158 142 151 118 q 165 179 165 167 l 176 347 l 47 919 q 37 961 42 946 q 27 987 32 976 q 16 1004 22 997 q 0 1019 10 1011 l 0 1032 l 297 1032 l 297 1019 q 280 998 289 1013 q 264 967 271 983 q 253 938 257 951 q 251 919 250 925 l 331 476 m 272 1092 l 349 1207 q 365 1215 356 1215 q 394 1199 381 1215 q 408 1163 408 1182 q 400 1140 408 1149 l 299 1058 l 272 1092 z "},"":{"ha":725,"x_min":-10,"x_max":679,"o":"m 214 1032 q 188 1001 194 1018 q 181 965 182 985 l 181 754 q 250 861 200 821 q 397 901 300 901 q 541 866 486 901 q 626 771 596 831 q 668 632 657 711 q 679 464 679 553 q 665 303 679 378 q 613 173 650 228 q 510 87 575 118 q 344 56 444 56 q 242 76 279 56 q 181 125 204 97 l 181 -35 q 185 -85 181 -60 q 214 -135 189 -111 l -10 -135 q 17 -85 11 -110 q 24 -35 24 -60 l 24 965 q -10 1032 24 1010 l 214 1032 m 181 231 q 190 203 185 222 q 208 163 194 183 q 247 128 221 143 q 322 113 274 113 q 397 137 365 113 q 447 203 428 161 q 476 305 467 246 q 486 433 486 364 q 484 492 486 454 q 476 576 482 531 q 458 669 469 622 q 429 754 447 715 q 385 817 411 793 q 325 842 360 842 q 263 815 290 842 q 217 752 236 789 q 189 678 199 715 q 181 617 179 640 l 181 231 z "},"":{"ha":689,"x_min":33,"x_max":651,"o":"m 136 -69 q 321 -25 251 -54 q 429 43 390 4 q 481 129 468 82 q 493 228 493 176 q 477 300 493 260 q 429 376 461 340 q 349 437 397 411 q 239 465 301 463 q 342 531 304 499 q 400 599 381 564 q 425 671 419 633 q 431 753 431 708 q 421 842 431 807 q 395 898 411 878 q 359 926 379 918 q 317 935 339 935 q 276 922 294 935 q 247 879 258 910 q 228 799 235 849 q 222 675 222 750 l 222 103 q 224 46 219 74 q 244 0 228 18 l 33 0 q 58 44 50 18 q 65 103 65 71 l 65 686 q 86 818 65 763 q 141 909 107 874 q 219 962 175 944 q 308 979 263 979 q 407 969 356 979 q 501 931 458 958 q 572 853 544 903 q 600 725 600 804 q 578 640 600 679 q 522 571 557 600 q 443 525 488 542 q 353 508 399 508 q 476 485 421 508 q 569 422 531 461 q 630 333 608 383 q 651 231 651 283 q 638 122 651 178 q 581 21 625 67 q 453 -55 538 -25 q 224 -85 368 -85 q 182 -84 204 -85 q 136 -82 160 -83 l 136 -69 z "},"":{"ha":615,"x_min":10,"x_max":593,"o":"m 322 890 l 219 972 q 211 994 211 983 q 224 1031 211 1014 q 253 1047 238 1047 q 272 1039 264 1047 l 349 924 l 322 890 m 340 0 q 353 40 347 18 q 365 83 360 61 q 372 125 369 106 q 375 158 375 144 l 383 364 q 358 233 371 300 q 325 110 346 165 q 270 21 304 56 q 182 -14 236 -14 q 126 -6 154 -14 q 76 26 99 3 q 39 92 53 50 q 25 199 25 133 q 35 306 25 246 q 82 432 46 367 q 187 565 118 497 q 372 692 256 632 q 373 719 372 699 q 367 763 374 740 q 345 802 361 785 q 297 819 329 819 q 233 793 265 819 q 172 726 201 767 q 117 635 143 685 q 70 537 92 585 q 33 450 49 489 q 10 392 18 411 l 24 768 q 68 792 35 779 q 142 817 101 806 q 225 836 183 828 q 293 844 267 844 q 382 838 338 844 q 462 806 426 831 q 520 735 497 782 q 543 610 543 689 l 543 158 q 547 119 543 142 q 558 73 551 96 q 574 31 565 50 q 593 0 583 11 l 340 0 m 375 661 q 272 559 314 610 q 206 462 231 508 q 170 373 181 415 q 160 294 160 331 q 163 257 160 279 q 176 214 167 235 q 201 178 185 193 q 240 164 217 164 q 289 188 268 164 q 325 247 310 211 q 350 327 340 283 q 365 411 360 371 q 374 483 371 451 q 376 526 376 514 l 375 661 z "},"":{"ha":615,"x_min":10,"x_max":593,"o":"m 247 919 l 322 1035 q 340 1043 329 1043 q 369 1026 356 1043 q 383 990 383 1010 q 375 968 383 976 l 274 886 l 247 919 m 340 0 q 353 40 347 18 q 365 83 360 61 q 372 125 369 106 q 375 158 375 144 l 383 364 q 358 233 371 300 q 325 110 346 165 q 270 21 304 56 q 182 -14 236 -14 q 126 -6 154 -14 q 76 26 99 3 q 39 92 53 50 q 25 199 25 133 q 35 306 25 246 q 82 432 46 367 q 187 565 118 497 q 372 692 256 632 q 373 719 372 699 q 367 763 374 740 q 345 802 361 785 q 297 819 329 819 q 233 793 265 819 q 172 726 201 767 q 117 635 143 685 q 70 537 92 585 q 33 450 49 489 q 10 392 18 411 l 24 768 q 68 792 35 779 q 142 817 101 806 q 225 836 183 828 q 293 844 267 844 q 382 838 338 844 q 462 806 426 831 q 520 735 497 782 q 543 610 543 689 l 543 158 q 547 119 543 142 q 558 73 551 96 q 574 31 565 50 q 593 0 583 11 l 340 0 m 375 661 q 272 559 314 610 q 206 462 231 508 q 170 373 181 415 q 160 294 160 331 q 163 257 160 279 q 176 214 167 235 q 201 178 185 193 q 240 164 217 164 q 289 188 268 164 q 325 247 310 211 q 350 327 340 283 q 365 411 360 371 q 374 483 371 451 q 376 526 376 514 l 375 661 z "},"":{"ha":615,"x_min":10,"x_max":593,"o":"m 278 1025 l 333 1025 l 418 892 l 367 892 l 308 957 l 303 957 l 247 892 l 194 892 l 278 1025 m 340 0 q 353 40 347 18 q 365 83 360 61 q 372 125 369 106 q 375 158 375 144 l 383 364 q 358 233 371 300 q 325 110 346 165 q 270 21 304 56 q 182 -14 236 -14 q 126 -6 154 -14 q 76 26 99 3 q 39 92 53 50 q 25 199 25 133 q 35 306 25 246 q 82 432 46 367 q 187 565 118 497 q 372 692 256 632 q 373 719 372 699 q 367 763 374 740 q 345 802 361 785 q 297 819 329 819 q 233 793 265 819 q 172 726 201 767 q 117 635 143 685 q 70 537 92 585 q 33 450 49 489 q 10 392 18 411 l 24 768 q 68 792 35 779 q 142 817 101 806 q 225 836 183 828 q 293 844 267 844 q 382 838 338 844 q 462 806 426 831 q 520 735 497 782 q 543 610 543 689 l 543 158 q 547 119 543 142 q 558 73 551 96 q 574 31 565 50 q 593 0 583 11 l 340 0 m 375 661 q 272 559 314 610 q 206 462 231 508 q 170 373 181 415 q 160 294 160 331 q 163 257 160 279 q 176 214 167 235 q 201 178 185 193 q 240 164 217 164 q 289 188 268 164 q 325 247 310 211 q 350 327 340 283 q 365 411 360 371 q 374 483 371 451 q 376 526 376 514 l 375 661 z "},"":{"ha":615,"x_min":10,"x_max":593,"o":"m 176 867 q 183 942 176 913 q 201 990 190 972 q 228 1014 213 1007 q 261 1021 244 1021 q 301 1015 281 1021 q 340 1002 321 1010 q 377 989 360 994 q 407 983 394 983 q 433 1015 433 983 l 442 1015 q 423 915 442 942 q 375 889 404 889 q 339 895 358 889 q 301 909 319 901 q 264 923 282 917 q 231 929 246 929 q 199 916 211 929 q 185 867 188 903 l 176 867 m 340 0 q 353 40 347 18 q 365 83 360 61 q 372 125 369 106 q 375 158 375 144 l 383 364 q 358 233 371 300 q 325 110 346 165 q 270 21 304 56 q 182 -14 236 -14 q 126 -6 154 -14 q 76 26 99 3 q 39 92 53 50 q 25 199 25 133 q 35 306 25 246 q 82 432 46 367 q 187 565 118 497 q 372 692 256 632 q 373 719 372 699 q 367 763 374 740 q 345 802 361 785 q 297 819 329 819 q 233 793 265 819 q 172 726 201 767 q 117 635 143 685 q 70 537 92 585 q 33 450 49 489 q 10 392 18 411 l 24 768 q 68 792 35 779 q 142 817 101 806 q 225 836 183 828 q 293 844 267 844 q 382 838 338 844 q 462 806 426 831 q 520 735 497 782 q 543 610 543 689 l 543 158 q 547 119 543 142 q 558 73 551 96 q 574 31 565 50 q 593 0 583 11 l 340 0 m 375 661 q 272 559 314 610 q 206 462 231 508 q 170 373 181 415 q 160 294 160 331 q 163 257 160 279 q 176 214 167 235 q 201 178 185 193 q 240 164 217 164 q 289 188 268 164 q 325 247 310 211 q 350 327 340 283 q 365 411 360 371 q 374 483 371 451 q 376 526 376 514 l 375 661 z "},"":{"ha":615,"x_min":10,"x_max":593,"o":"m 174 967 q 187 1018 174 997 q 225 1039 200 1039 q 265 1019 250 1039 q 281 967 281 999 q 265 918 281 938 q 225 899 249 899 q 188 917 201 899 q 174 967 174 936 m 301 967 q 316 1018 301 997 q 356 1039 331 1039 q 394 1019 379 1039 q 410 967 410 999 q 394 918 410 938 q 356 899 379 899 q 317 917 332 899 q 301 967 301 936 m 340 0 q 353 40 347 18 q 365 83 360 61 q 372 125 369 106 q 375 158 375 144 l 383 364 q 358 233 371 300 q 325 110 346 165 q 270 21 304 56 q 182 -14 236 -14 q 126 -6 154 -14 q 76 26 99 3 q 39 92 53 50 q 25 199 25 133 q 35 306 25 246 q 82 432 46 367 q 187 565 118 497 q 372 692 256 632 q 373 719 372 699 q 367 763 374 740 q 345 802 361 785 q 297 819 329 819 q 233 793 265 819 q 172 726 201 767 q 117 635 143 685 q 70 537 92 585 q 33 450 49 489 q 10 392 18 411 l 24 768 q 68 792 35 779 q 142 817 101 806 q 225 836 183 828 q 293 844 267 844 q 382 838 338 844 q 462 806 426 831 q 520 735 497 782 q 543 610 543 689 l 543 158 q 547 119 543 142 q 558 73 551 96 q 574 31 565 50 q 593 0 583 11 l 340 0 m 375 661 q 272 559 314 610 q 206 462 231 508 q 170 373 181 415 q 160 294 160 331 q 163 257 160 279 q 176 214 167 235 q 201 178 185 193 q 240 164 217 164 q 289 188 268 164 q 325 247 310 211 q 350 327 340 283 q 365 411 360 371 q 374 483 371 451 q 376 526 376 514 l 375 661 z "},"":{"ha":615,"x_min":10,"x_max":593,"o":"m 243 971 q 265 1034 243 1010 q 318 1058 286 1058 q 375 1034 353 1058 q 397 971 397 1010 q 375 906 397 931 q 318 882 353 882 q 265 906 286 882 q 243 971 243 931 m 283 972 q 293 937 283 951 q 318 922 303 922 q 345 937 335 922 q 356 972 356 951 q 345 1003 356 990 q 318 1017 335 1017 q 294 1003 304 1017 q 283 972 283 990 m 340 0 q 353 40 347 18 q 365 83 360 61 q 372 125 369 106 q 375 158 375 144 l 383 364 q 358 233 371 300 q 325 110 346 165 q 270 21 304 56 q 182 -14 236 -14 q 126 -6 154 -14 q 76 26 99 3 q 39 92 53 50 q 25 199 25 133 q 35 306 25 246 q 82 432 46 367 q 187 565 118 497 q 372 692 256 632 q 373 719 372 699 q 367 763 374 740 q 345 802 361 785 q 297 819 329 819 q 233 793 265 819 q 172 726 201 767 q 117 635 143 685 q 70 537 92 585 q 33 450 49 489 q 10 392 18 411 l 24 768 q 68 792 35 779 q 142 817 101 806 q 225 836 183 828 q 293 844 267 844 q 382 838 338 844 q 462 806 426 831 q 520 735 497 782 q 543 610 543 689 l 543 158 q 547 119 543 142 q 558 73 551 96 q 574 31 565 50 q 593 0 583 11 l 340 0 m 375 661 q 272 559 314 610 q 206 462 231 508 q 170 373 181 415 q 160 294 160 331 q 163 257 160 279 q 176 214 167 235 q 201 178 185 193 q 240 164 217 164 q 289 188 268 164 q 325 247 310 211 q 350 327 340 283 q 365 411 360 371 q 374 483 371 451 q 376 526 376 514 l 375 661 z "},"":{"ha":944,"x_min":10,"x_max":901,"o":"m 593 369 q 633 172 593 236 q 722 107 672 107 q 786 131 758 107 q 833 189 814 156 q 865 256 853 222 q 882 307 878 289 l 901 307 q 899 268 901 296 q 887 204 896 240 q 863 130 878 168 q 822 60 847 92 q 761 7 797 28 q 676 -14 725 -14 q 523 20 581 -14 q 434 108 465 54 q 393 230 403 163 q 383 364 383 297 q 360 235 371 300 q 333 117 350 171 q 291 28 317 64 q 222 -14 265 -7 q 160 -8 194 -18 q 96 31 126 3 q 45 104 65 58 q 25 215 25 150 q 35 320 25 263 q 82 440 46 378 q 187 567 118 503 q 372 692 256 632 q 366 719 372 699 q 349 763 360 740 q 322 802 338 785 q 286 819 306 819 q 239 793 267 819 q 182 725 211 767 q 125 633 153 683 q 74 536 97 583 q 38 450 51 489 q 22 392 24 411 l 10 392 l 24 768 q 68 792 35 779 q 142 817 101 806 q 225 836 183 828 q 293 844 267 844 q 355 841 324 844 q 415 828 386 838 q 469 800 444 818 q 511 751 494 782 q 607 822 556 800 q 707 844 658 844 q 774 832 740 844 q 837 793 808 819 q 883 726 865 767 q 901 628 901 685 q 897 568 901 600 q 868 495 892 532 q 805 430 844 458 q 712 385 765 401 q 593 369 658 368 m 375 661 q 272 561 314 610 q 206 468 231 513 q 170 383 181 424 q 160 310 160 343 q 163 272 160 294 q 176 230 167 250 q 201 195 186 210 q 240 181 217 181 q 289 203 268 181 q 325 260 310 225 q 350 336 340 294 q 365 416 360 378 q 374 484 371 454 q 376 526 376 514 l 375 661 m 710 765 q 653 730 676 765 q 617 642 631 694 q 599 531 604 590 q 593 425 593 472 l 593 397 q 673 429 636 401 q 738 495 710 457 q 781 576 765 533 q 797 651 797 618 q 769 738 797 710 q 710 765 742 765 z "},"":{"ha":531,"x_min":11,"x_max":503,"o":"m 292 810 q 253 776 274 810 q 217 687 233 742 q 189 561 200 632 q 178 415 178 490 q 179 372 178 400 q 185 311 181 344 q 199 243 190 278 q 222 181 207 208 q 257 135 236 153 q 306 117 278 117 q 365 137 338 117 q 414 190 392 157 q 453 265 436 224 q 483 347 471 306 l 503 347 q 497 305 503 336 q 480 234 492 274 q 450 151 468 194 q 406 71 432 107 q 348 11 381 35 q 274 -12 315 -12 l 267 -12 l 244 -37 q 316 -57 282 -35 q 350 -128 350 -79 q 313 -208 350 -178 q 217 -237 275 -237 q 174 -233 197 -237 l 174 -185 q 240 -172 219 -190 q 260 -124 260 -154 q 250 -92 260 -104 q 226 -75 240 -81 q 193 -69 211 -69 q 158 -71 175 -68 l 224 -4 q 147 37 185 7 q 78 115 108 67 q 30 232 49 164 q 11 388 11 300 q 14 476 11 426 q 27 576 17 525 q 56 675 38 626 q 107 761 75 724 q 186 822 139 799 q 299 844 233 844 q 433 779 382 844 q 481 600 483 714 l 367 507 q 359 597 364 544 q 346 696 354 649 q 324 776 338 743 q 292 810 311 810 z "},"":{"ha":539,"x_min":18,"x_max":517,"o":"m 208 369 q 247 172 208 236 q 336 107 286 107 q 399 132 372 107 q 442 190 425 157 q 466 257 458 224 q 474 307 474 290 l 500 307 q 499 268 500 296 q 493 205 499 240 q 476 131 488 169 q 442 60 464 92 q 388 8 421 29 q 306 -12 354 -12 q 173 16 228 -12 q 84 98 118 44 q 34 228 50 151 q 18 403 18 306 q 47 606 18 522 q 120 743 75 690 q 219 820 165 796 q 322 844 272 844 q 383 832 349 844 q 447 792 417 819 q 497 723 476 765 q 517 622 517 681 q 511 568 517 594 q 483 495 506 532 q 420 430 460 458 q 327 385 381 401 q 208 369 274 368 m 325 765 q 278 743 297 765 q 246 686 258 721 q 226 609 233 651 q 214 526 218 567 q 209 450 210 485 q 208 397 208 415 q 288 429 251 401 q 352 495 325 457 q 395 576 379 533 q 411 651 411 618 q 384 738 411 710 q 325 765 357 765 m 347 896 l 269 1011 q 253 1019 264 1019 q 224 1003 238 1019 q 210 967 210 986 q 218 944 210 956 l 319 863 l 347 896 z "},"":{"ha":539,"x_min":18,"x_max":517,"o":"m 208 369 q 247 172 208 236 q 336 107 286 107 q 399 132 372 107 q 442 190 425 157 q 466 257 458 224 q 474 307 474 290 l 500 307 q 499 268 500 296 q 493 205 499 240 q 476 131 488 169 q 442 60 464 92 q 388 8 421 29 q 306 -12 354 -12 q 173 16 228 -12 q 84 98 118 44 q 34 228 50 151 q 18 403 18 306 q 47 606 18 522 q 120 743 75 690 q 219 820 165 796 q 322 844 272 844 q 383 832 349 844 q 447 792 417 819 q 497 723 476 765 q 517 622 517 681 q 511 568 517 594 q 483 495 506 532 q 420 430 460 458 q 327 385 381 401 q 208 369 274 368 m 325 765 q 278 743 297 765 q 246 686 258 721 q 226 609 233 651 q 214 526 218 567 q 209 450 210 485 q 208 397 208 415 q 288 429 251 401 q 352 495 325 457 q 395 576 379 533 q 411 651 411 618 q 384 738 411 710 q 325 765 357 765 m 306 882 l 407 964 q 415 986 415 975 q 401 1022 415 1006 q 372 1039 388 1039 q 353 1031 361 1039 l 278 915 l 306 882 z "},"":{"ha":539,"x_min":18,"x_max":517,"o":"m 208 369 q 247 172 208 236 q 336 107 286 107 q 399 132 372 107 q 442 190 425 157 q 466 257 458 224 q 474 307 474 290 l 500 307 q 499 268 500 296 q 493 205 499 240 q 476 131 488 169 q 442 60 464 92 q 388 8 421 29 q 306 -12 354 -12 q 173 16 228 -12 q 84 98 118 44 q 34 228 50 151 q 18 403 18 306 q 47 606 18 522 q 120 743 75 690 q 219 820 165 796 q 322 844 272 844 q 383 832 349 844 q 447 792 417 819 q 497 723 476 765 q 517 622 517 681 q 511 568 517 594 q 483 495 506 532 q 420 430 460 458 q 327 385 381 401 q 208 369 274 368 m 325 765 q 278 743 297 765 q 246 686 258 721 q 226 609 233 651 q 214 526 218 567 q 209 450 210 485 q 208 397 208 415 q 288 429 251 401 q 352 495 325 457 q 395 576 379 533 q 411 651 411 618 q 384 738 411 710 q 325 765 357 765 m 208 875 l 260 875 l 317 940 l 322 940 l 378 875 l 432 875 l 344 1008 l 292 1008 l 208 875 z "},"":{"ha":539,"x_min":18,"x_max":517,"o":"m 208 369 q 247 172 208 236 q 336 107 286 107 q 399 132 372 107 q 442 190 425 157 q 466 257 458 224 q 474 307 474 290 l 500 307 q 499 268 500 296 q 493 205 499 240 q 476 131 488 169 q 442 60 464 92 q 388 8 421 29 q 306 -12 354 -12 q 173 16 228 -12 q 84 98 118 44 q 34 228 50 151 q 18 403 18 306 q 47 606 18 522 q 120 743 75 690 q 219 820 165 796 q 322 844 272 844 q 383 832 349 844 q 447 792 417 819 q 497 723 476 765 q 517 622 517 681 q 511 568 517 594 q 483 495 506 532 q 420 430 460 458 q 327 385 381 401 q 208 369 274 368 m 325 765 q 278 743 297 765 q 246 686 258 721 q 226 609 233 651 q 214 526 218 567 q 209 450 210 485 q 208 397 208 415 q 288 429 251 401 q 352 495 325 457 q 395 576 379 533 q 411 651 411 618 q 384 738 411 710 q 325 765 357 765 m 183 943 q 197 894 183 913 q 235 875 211 875 q 274 894 258 875 q 290 943 290 914 q 275 995 290 975 q 235 1015 260 1015 q 197 994 211 1015 q 183 943 183 974 m 314 943 q 328 894 314 913 q 365 875 342 875 q 404 894 389 875 q 419 943 419 914 q 405 995 419 975 q 365 1015 390 1015 q 328 994 342 1015 q 314 943 314 974 z "},"":{"ha":283,"x_min":10,"x_max":239,"o":"m 211 192 q 214 159 213 183 q 218 106 215 135 q 225 50 221 76 q 236 11 229 24 l 236 0 l 10 0 l 10 11 q 24 48 18 24 q 36 100 31 72 q 44 156 42 128 q 47 204 47 185 l 47 679 q 40 772 47 729 q 24 835 33 815 l 24 846 l 239 846 l 239 835 q 228 810 233 828 q 219 771 224 793 q 213 724 215 749 q 211 679 211 700 l 211 192 m 174 890 l 72 972 q 64 994 64 981 q 77 1031 64 1014 q 107 1047 90 1047 q 124 1039 115 1047 l 200 924 l 174 890 z "},"":{"ha":283,"x_min":10,"x_max":239,"o":"m 211 192 q 214 159 213 183 q 218 106 215 135 q 225 50 221 76 q 236 11 229 24 l 236 0 l 10 0 l 10 11 q 24 48 18 24 q 36 100 31 72 q 44 156 42 128 q 47 204 47 185 l 47 679 q 40 772 47 729 q 24 835 33 815 l 24 846 l 239 846 l 239 835 q 228 810 233 828 q 219 771 224 793 q 213 724 215 749 q 211 679 211 700 l 211 192 m 94 919 l 169 1035 q 189 1043 178 1043 q 218 1026 204 1043 q 232 990 232 1010 q 224 968 232 979 l 122 886 l 94 919 z "},"":{"ha":283,"x_min":10,"x_max":253,"o":"m 211 192 q 214 159 213 183 q 218 106 215 135 q 225 50 221 76 q 236 11 229 24 l 236 0 l 10 0 l 10 11 q 24 48 18 24 q 36 100 31 72 q 44 156 42 128 q 47 204 47 185 l 47 679 q 40 772 47 729 q 24 835 33 815 l 24 846 l 239 846 l 239 835 q 228 810 233 828 q 219 771 224 793 q 213 724 215 749 q 211 679 211 700 l 211 192 m 114 1021 l 167 1021 l 253 888 l 200 888 l 142 953 l 139 953 l 82 888 l 31 888 l 114 1021 z "},"":{"ha":283,"x_min":10,"x_max":260,"o":"m 211 192 q 214 159 213 183 q 218 106 215 135 q 225 50 221 76 q 236 11 229 24 l 236 0 l 10 0 l 10 11 q 24 48 18 24 q 36 100 31 72 q 44 156 42 128 q 47 204 47 185 l 47 679 q 40 772 47 729 q 24 835 33 815 l 24 846 l 239 846 l 239 835 q 228 810 233 828 q 219 771 224 793 q 213 724 215 749 q 211 679 211 700 l 211 192 m 24 943 q 38 994 24 974 q 76 1015 51 1015 q 115 995 100 1015 q 131 943 131 975 q 115 894 131 914 q 76 875 100 875 q 38 894 53 875 q 24 943 24 913 m 153 943 q 167 994 153 974 q 206 1015 182 1015 q 245 995 231 1015 q 260 943 260 975 q 244 894 260 914 q 206 875 229 875 q 167 894 182 875 q 153 943 153 913 z "},"":{"ha":615,"x_min":25,"x_max":593,"o":"m 340 0 q 353 40 347 18 q 365 83 360 61 q 372 125 369 106 q 375 158 375 144 l 383 364 q 358 233 371 300 q 325 110 346 165 q 270 21 304 56 q 182 -14 236 -14 q 126 -6 154 -14 q 76 26 99 3 q 39 92 53 50 q 25 199 25 133 q 35 306 25 246 q 82 432 46 367 q 187 565 118 497 q 372 692 256 632 q 370 751 374 715 q 356 828 367 788 l 179 756 l 158 792 l 342 867 q 278 958 321 917 q 160 1014 235 999 q 215 1018 189 1018 q 360 990 300 1018 q 458 914 419 963 l 551 951 l 572 915 l 482 879 q 529 755 515 824 q 543 610 543 686 l 543 158 q 547 119 543 142 q 558 73 551 96 q 574 31 565 50 q 593 0 583 11 l 340 0 m 375 661 q 272 559 314 610 q 206 462 231 508 q 170 373 181 415 q 160 294 160 331 q 163 257 160 279 q 176 214 167 235 q 201 178 185 193 q 240 164 217 164 q 289 188 268 164 q 325 247 310 211 q 350 327 340 283 q 365 411 360 371 q 374 483 371 451 q 376 526 376 514 l 375 661 z "},"":{"ha":664,"x_min":7,"x_max":643,"o":"m 192 893 q 199 969 192 939 q 217 1016 206 999 q 244 1040 228 1033 q 276 1047 260 1047 q 315 1042 296 1047 q 354 1028 335 1036 q 391 1015 374 1021 q 422 1010 408 1010 q 441 1017 433 1010 q 449 1042 449 1024 l 457 1042 q 438 942 457 968 q 390 915 418 915 q 354 922 374 915 q 315 935 335 928 q 278 949 296 943 q 244 956 260 956 q 214 942 225 956 q 200 893 203 929 l 192 893 m 210 192 q 213 146 213 171 q 216 95 214 121 q 222 45 218 69 q 235 0 226 21 l 7 0 q 36 94 28 38 q 44 204 44 151 l 44 678 q 38 771 44 728 q 22 833 32 814 l 22 844 l 235 844 l 235 833 q 226 809 231 826 q 217 769 221 792 q 212 723 214 747 q 210 678 210 699 l 210 535 q 221 622 213 569 q 249 724 229 675 q 305 809 269 774 q 399 844 340 844 q 593 558 593 844 l 593 179 q 607 81 593 131 q 643 0 621 31 l 381 0 q 398 34 389 14 q 415 78 407 54 q 427 128 422 103 q 432 179 432 154 l 432 513 q 416 689 432 621 q 365 757 400 757 q 317 726 339 757 q 278 649 294 696 q 249 545 261 601 q 228 438 236 489 q 216 347 221 386 q 210 296 211 308 l 210 192 z "},"":{"ha":567,"x_min":18,"x_max":528,"o":"m 260 -14 q 144 22 190 -14 q 69 120 97 57 q 30 273 42 183 q 18 471 18 363 q 40 626 18 558 q 99 741 63 694 q 181 813 135 788 q 274 838 226 838 q 373 817 326 838 q 453 751 419 796 q 508 638 488 707 q 528 471 528 568 q 526 383 528 433 q 517 279 525 333 q 492 173 508 225 q 446 79 475 121 q 371 12 417 38 q 260 -14 325 -14 m 275 17 q 312 52 294 17 q 343 144 329 88 q 365 272 357 200 q 372 415 372 343 q 367 559 372 489 q 351 685 363 629 q 322 774 340 740 q 275 808 303 808 q 235 774 251 808 q 208 685 218 740 q 193 559 197 629 q 189 415 189 489 q 194 272 189 343 q 210 144 200 200 q 238 52 221 88 q 275 17 254 17 m 350 924 l 275 1039 q 257 1047 267 1047 q 227 1031 240 1047 q 214 994 214 1014 q 222 972 214 981 l 324 890 l 350 924 z "},"":{"ha":567,"x_min":18,"x_max":528,"o":"m 260 -14 q 144 22 190 -14 q 69 120 97 57 q 30 273 42 183 q 18 471 18 363 q 40 626 18 558 q 99 741 63 694 q 181 813 135 788 q 274 838 226 838 q 373 817 326 838 q 453 751 419 796 q 508 638 488 707 q 528 471 528 568 q 526 383 528 433 q 517 279 525 333 q 492 173 508 225 q 446 79 475 121 q 371 12 417 38 q 260 -14 325 -14 m 275 17 q 312 52 294 17 q 343 144 329 88 q 365 272 357 200 q 372 415 372 343 q 367 559 372 489 q 351 685 363 629 q 322 774 340 740 q 275 808 303 808 q 235 774 251 808 q 208 685 218 740 q 193 559 197 629 q 189 415 189 489 q 194 272 189 343 q 210 144 200 200 q 238 52 221 88 q 275 17 254 17 m 251 863 l 353 944 q 361 967 361 953 q 348 1003 361 986 q 318 1019 335 1019 q 301 1011 310 1019 l 225 896 l 251 863 z "},"":{"ha":567,"x_min":18,"x_max":528,"o":"m 260 -14 q 144 22 190 -14 q 69 120 97 57 q 30 273 42 183 q 18 471 18 363 q 40 626 18 558 q 99 741 63 694 q 181 813 135 788 q 274 838 226 838 q 373 817 326 838 q 453 751 419 796 q 508 638 488 707 q 528 471 528 568 q 526 383 528 433 q 517 279 525 333 q 492 173 508 225 q 446 79 475 121 q 371 12 417 38 q 260 -14 325 -14 m 275 17 q 312 52 294 17 q 343 144 329 88 q 365 272 357 200 q 372 415 372 343 q 367 559 372 489 q 351 685 363 629 q 322 774 340 740 q 275 808 303 808 q 235 774 251 808 q 208 685 218 740 q 193 559 197 629 q 189 415 189 489 q 194 272 189 343 q 210 144 200 200 q 238 52 221 88 q 275 17 254 17 m 176 856 l 231 856 l 286 921 l 290 921 l 349 856 l 401 856 l 315 989 l 261 989 l 176 856 z "},"":{"ha":567,"x_min":18,"x_max":528,"o":"m 260 -14 q 144 22 190 -14 q 69 120 97 57 q 30 273 42 183 q 18 471 18 363 q 40 626 18 558 q 99 741 63 694 q 181 813 135 788 q 274 838 226 838 q 373 817 326 838 q 453 751 419 796 q 508 638 488 707 q 528 471 528 568 q 526 383 528 433 q 517 279 525 333 q 492 173 508 225 q 446 79 475 121 q 371 12 417 38 q 260 -14 325 -14 m 275 17 q 312 52 294 17 q 343 144 329 88 q 365 272 357 200 q 372 415 372 343 q 367 559 372 489 q 351 685 363 629 q 322 774 340 740 q 275 808 303 808 q 235 774 251 808 q 208 685 218 740 q 193 559 197 629 q 189 415 189 489 q 194 272 189 343 q 210 144 200 200 q 238 52 221 88 q 275 17 254 17 m 150 831 l 160 831 q 174 880 163 867 q 206 893 186 893 q 239 887 221 893 q 276 873 257 881 q 314 859 294 865 q 350 853 333 853 q 398 879 379 853 q 417 979 417 906 l 407 979 q 399 954 407 961 q 381 947 392 947 q 349 953 367 947 q 313 966 332 958 q 274 979 293 974 q 235 985 254 985 q 202 978 218 985 q 175 953 186 971 q 157 906 164 936 q 150 831 150 876 z "},"":{"ha":567,"x_min":18,"x_max":528,"o":"m 260 -14 q 144 22 190 -14 q 69 120 97 57 q 30 273 42 183 q 18 471 18 363 q 40 626 18 558 q 99 741 63 694 q 181 813 135 788 q 274 838 226 838 q 373 817 326 838 q 453 751 419 796 q 508 638 488 707 q 528 471 528 568 q 526 383 528 433 q 517 279 525 333 q 492 173 508 225 q 446 79 475 121 q 371 12 417 38 q 260 -14 325 -14 m 275 17 q 312 52 294 17 q 343 144 329 88 q 365 272 357 200 q 372 415 372 343 q 367 559 372 489 q 351 685 363 629 q 322 774 340 740 q 275 808 303 808 q 235 774 251 808 q 208 685 218 740 q 193 559 197 629 q 189 415 189 489 q 194 272 189 343 q 210 144 200 200 q 238 52 221 88 q 275 17 254 17 m 165 935 q 179 885 165 904 q 217 867 193 867 q 256 886 240 867 q 272 935 272 906 q 257 987 272 967 q 217 1007 242 1007 q 179 986 193 1007 q 165 935 165 965 m 293 935 q 308 885 293 904 q 347 867 324 867 q 386 886 371 867 q 401 935 401 906 q 386 987 401 967 q 347 1007 371 1007 q 308 986 322 1007 q 293 935 293 965 z "},"":{"ha":668,"x_min":40,"x_max":614,"o":"m 278 649 q 292 700 278 679 q 331 721 307 721 q 370 701 356 721 q 385 649 385 681 q 369 600 385 619 q 331 581 354 581 q 292 599 307 581 q 278 649 278 618 m 278 265 q 292 317 278 296 q 331 338 307 338 q 370 317 356 338 q 385 265 385 297 q 369 217 385 236 q 331 197 354 197 q 292 216 307 197 q 278 265 278 235 m 40 488 l 614 488 l 614 424 l 40 424 l 40 488 z "},"":{"ha":567,"x_min":18,"x_max":528,"o":"m 411 940 l 482 940 l 428 778 q 501 660 474 736 q 528 471 528 585 q 526 383 528 433 q 517 281 525 333 q 493 176 510 228 q 447 85 476 125 q 371 19 417 44 q 260 -6 325 -6 q 176 8 210 -6 l 143 -92 l 78 -92 l 124 44 q 41 210 64 100 q 18 471 18 319 q 40 626 18 558 q 99 741 63 694 q 181 813 135 788 q 274 838 226 838 q 372 817 326 838 l 411 940 m 275 25 q 312 59 294 25 q 343 148 329 93 q 365 273 357 203 q 372 415 372 343 q 369 500 372 458 q 364 582 367 542 l 215 125 q 240 52 225 79 q 275 25 256 25 m 275 808 q 235 774 251 808 q 208 685 218 740 q 193 559 197 629 q 189 415 189 489 q 193 267 189 338 l 340 721 q 314 785 329 761 q 275 808 299 808 z "},"":{"ha":665,"x_min":15,"x_max":632,"o":"m 431 631 q 428 667 429 639 q 423 727 426 694 q 415 790 419 760 q 403 832 410 819 l 403 843 l 632 843 l 632 832 q 617 795 624 819 q 605 743 610 771 q 597 687 600 715 q 593 639 593 658 l 593 167 q 599 74 593 117 q 617 11 606 31 l 617 0 l 401 0 l 401 11 q 412 35 407 18 q 420 75 417 53 q 426 122 424 97 q 428 167 428 146 l 428 347 q 403 200 415 263 q 376 95 392 138 q 338 28 361 53 q 278 -7 314 3 q 251 -12 264 -11 q 225 -14 238 -14 q 148 6 182 -14 q 91 56 114 25 q 56 128 68 88 q 44 211 44 169 l 44 664 q 42 713 44 683 q 36 768 40 742 q 26 813 32 794 q 15 832 21 832 l 15 843 l 235 843 l 235 832 q 226 802 231 822 q 217 758 221 782 q 210 708 213 733 q 207 664 207 683 l 207 239 q 217 152 207 185 q 240 103 226 119 q 271 83 254 86 q 300 85 288 81 q 333 129 314 89 q 370 235 351 169 q 405 387 389 301 q 431 565 421 472 l 431 631 m 368 883 l 293 999 q 275 1007 288 1007 q 245 990 258 1007 q 232 954 232 974 q 240 932 232 940 l 342 850 l 368 883 z "},"":{"ha":665,"x_min":15,"x_max":632,"o":"m 431 631 q 428 667 429 639 q 423 727 426 694 q 415 790 419 760 q 403 832 410 819 l 403 843 l 632 843 l 632 832 q 617 795 624 819 q 605 743 610 771 q 597 687 600 715 q 593 639 593 658 l 593 167 q 599 74 593 117 q 617 11 606 31 l 617 0 l 401 0 l 401 11 q 412 35 407 18 q 420 75 417 53 q 426 122 424 97 q 428 167 428 146 l 428 347 q 403 200 415 263 q 376 95 392 138 q 338 28 361 53 q 278 -7 314 3 q 251 -12 264 -11 q 225 -14 238 -14 q 148 6 182 -14 q 91 56 114 25 q 56 128 68 88 q 44 211 44 169 l 44 664 q 42 713 44 683 q 36 768 40 742 q 26 813 32 794 q 15 832 21 832 l 15 843 l 235 843 l 235 832 q 226 802 231 822 q 217 758 221 782 q 210 708 213 733 q 207 664 207 683 l 207 239 q 217 152 207 185 q 240 103 226 119 q 271 83 254 86 q 300 85 288 81 q 333 129 314 89 q 370 235 351 169 q 405 387 389 301 q 431 565 421 472 l 431 631 m 331 867 l 432 949 q 440 971 440 960 q 426 1007 440 990 q 397 1024 413 1024 q 378 1015 386 1024 l 303 900 l 331 867 z "},"":{"ha":665,"x_min":15,"x_max":632,"o":"m 431 631 q 428 667 429 639 q 423 727 426 694 q 415 790 419 760 q 403 832 410 819 l 403 843 l 632 843 l 632 832 q 617 795 624 819 q 605 743 610 771 q 597 687 600 715 q 593 639 593 658 l 593 167 q 599 74 593 117 q 617 11 606 31 l 617 0 l 401 0 l 401 11 q 412 35 407 18 q 420 75 417 53 q 426 122 424 97 q 428 167 428 146 l 428 347 q 403 200 415 263 q 376 95 392 138 q 338 28 361 53 q 278 -7 314 3 q 251 -12 264 -11 q 225 -14 238 -14 q 148 6 182 -14 q 91 56 114 25 q 56 128 68 88 q 44 211 44 169 l 44 664 q 42 713 44 683 q 36 768 40 742 q 26 813 32 794 q 15 832 21 832 l 15 843 l 235 843 l 235 832 q 226 802 231 822 q 217 758 221 782 q 210 708 213 733 q 207 664 207 683 l 207 239 q 217 152 207 185 q 240 103 226 119 q 271 83 254 86 q 300 85 288 81 q 333 129 314 89 q 370 235 351 169 q 405 387 389 301 q 431 565 421 472 l 431 631 m 219 889 l 274 889 l 328 954 l 333 954 l 392 889 l 444 889 l 358 1022 l 306 1022 l 219 889 z "},"":{"ha":665,"x_min":15,"x_max":632,"o":"m 431 631 q 428 667 429 639 q 423 727 426 694 q 415 790 419 760 q 403 832 410 819 l 403 843 l 632 843 l 632 832 q 617 795 624 819 q 605 743 610 771 q 597 687 600 715 q 593 639 593 658 l 593 167 q 599 74 593 117 q 617 11 606 31 l 617 0 l 401 0 l 401 11 q 412 35 407 18 q 420 75 417 53 q 426 122 424 97 q 428 167 428 146 l 428 347 q 403 200 415 263 q 376 95 392 138 q 338 28 361 53 q 278 -7 314 3 q 251 -12 264 -11 q 225 -14 238 -14 q 148 6 182 -14 q 91 56 114 25 q 56 128 68 88 q 44 211 44 169 l 44 664 q 42 713 44 683 q 36 768 40 742 q 26 813 32 794 q 15 832 21 832 l 15 843 l 235 843 l 235 832 q 226 802 231 822 q 217 758 221 782 q 210 708 213 733 q 207 664 207 683 l 207 239 q 217 152 207 185 q 240 103 226 119 q 271 83 254 86 q 300 85 288 81 q 333 129 314 89 q 370 235 351 169 q 405 387 389 301 q 431 565 421 472 l 431 631 m 211 942 q 226 892 211 911 q 264 874 240 874 q 303 893 288 874 q 318 942 318 913 q 303 994 318 974 q 264 1014 289 1014 q 226 993 240 1014 q 211 942 211 972 m 340 942 q 355 892 340 911 q 393 874 369 874 q 433 893 417 874 q 449 942 449 913 q 433 994 449 974 q 393 1014 417 1014 q 354 993 368 1014 q 340 942 340 972 z "},"":{"ha":618,"x_min":3,"x_max":597,"o":"m 339 876 l 414 992 q 432 1000 421 1000 q 461 983 447 1000 q 475 947 475 967 q 467 925 475 933 l 365 843 l 339 876 m 392 -25 q 369 -106 383 -67 q 329 -175 354 -144 q 266 -224 304 -206 q 169 -242 228 -242 q 115 -237 146 -242 q 60 -224 85 -232 l 60 -40 q 92 -65 72 -51 q 133 -90 111 -78 q 180 -111 156 -103 q 228 -119 204 -119 q 306 -94 271 -119 q 353 0 340 -69 l 233 0 l 68 726 q 42 788 61 754 q 3 843 24 822 l 282 843 q 255 801 265 824 q 244 746 244 778 q 251 693 244 725 l 378 118 l 472 540 q 479 573 475 554 q 483 628 483 592 l 483 654 q 480 754 483 703 q 460 843 476 806 l 597 843 q 591 827 597 843 q 576 790 585 811 q 560 749 568 769 q 550 721 553 729 l 392 -25 z "},"":{"ha":678,"x_min":-10,"x_max":668,"o":"m 214 992 q 188 961 194 978 q 181 925 182 944 l 181 699 q 250 806 200 765 q 397 846 300 846 q 514 822 464 846 q 599 748 564 799 q 651 617 633 697 q 668 424 668 536 q 654 292 668 358 q 604 173 640 226 q 506 85 568 119 q 344 51 443 51 q 242 72 279 51 q 181 121 204 93 l 181 -35 q 185 -85 181 -60 q 214 -135 189 -111 l -10 -135 q 17 -85 11 -110 q 24 -35 24 -60 l 24 925 q -10 992 24 969 l 214 992 m 181 226 q 190 199 185 218 q 208 159 194 179 q 247 124 221 139 q 322 108 274 108 q 406 147 374 108 q 457 235 439 185 q 482 337 475 286 q 489 411 489 388 q 481 521 489 457 q 453 644 472 585 q 403 744 435 703 q 325 786 372 786 q 263 760 290 786 q 217 697 236 733 q 189 622 199 660 q 181 561 179 585 l 181 226 z "},"":{"ha":618,"x_min":3,"x_max":597,"o":"m 269 954 q 284 1006 269 985 q 324 1026 299 1026 q 363 1006 349 1026 q 378 954 378 986 q 363 906 378 925 q 324 886 347 886 q 285 905 300 886 q 269 954 269 924 m 400 954 q 414 1006 400 985 q 453 1026 428 1026 q 492 1006 476 1026 q 508 954 508 986 q 492 906 508 925 q 453 886 476 886 q 415 905 429 886 q 400 954 400 924 m 392 -25 q 369 -106 383 -67 q 329 -175 354 -144 q 266 -224 304 -206 q 169 -242 228 -242 q 115 -237 146 -242 q 60 -224 85 -232 l 60 -40 q 92 -65 72 -51 q 133 -90 111 -78 q 180 -111 156 -103 q 228 -119 204 -119 q 306 -94 271 -119 q 353 0 340 -69 l 233 0 l 68 726 q 42 788 61 754 q 3 843 24 822 l 282 843 q 255 801 265 824 q 244 746 244 778 q 251 693 244 725 l 378 119 l 471 542 q 481 597 478 574 q 483 654 483 621 q 480 754 483 703 q 460 843 476 806 l 597 843 q 591 827 597 843 q 576 790 585 811 q 560 749 568 769 q 550 721 553 729 l 392 -25 z "},"":{"ha":628,"x_min":-40,"x_max":608,"o":"m -40 578 l 53 578 l 53 794 q 51 858 53 825 q 47 921 50 890 q 37 978 43 951 q 19 1022 31 1004 l 19 1032 l 260 1032 q 401 999 338 1032 q 511 902 465 965 q 583 747 557 839 q 608 539 608 656 q 592 334 608 432 q 535 162 575 236 q 429 44 494 88 q 265 0 364 0 l 6 0 l 6 11 q 25 31 17 11 q 40 78 33 50 q 49 139 46 107 q 53 197 53 171 l 53 514 l -40 514 l -40 578 m 239 64 q 260 21 239 21 l 267 21 q 313 57 293 21 q 348 150 333 93 q 372 276 363 207 q 388 412 382 346 q 395 533 393 478 q 397 615 397 588 q 388 801 397 726 q 362 920 378 875 q 325 984 346 965 q 282 1003 304 1003 q 261 996 269 1003 q 248 978 253 989 q 241 955 243 967 q 239 932 239 943 l 239 578 l 361 578 l 361 514 l 239 514 l 239 64 z "},"":{"ha":611,"x_min":14,"x_max":590,"o":"m 560 1032 q 544 985 549 1008 q 539 939 540 963 l 590 939 l 590 875 l 539 875 l 539 200 q 553 92 539 147 q 590 0 567 36 l 319 0 q 357 73 347 42 q 367 128 367 104 l 367 183 q 347 127 360 161 q 315 62 335 93 q 267 8 296 31 q 199 -14 239 -14 q 138 0 171 -14 q 78 50 106 14 q 32 148 50 86 q 14 304 14 210 q 18 408 14 353 q 52 574 28 504 q 108 692 76 643 q 176 771 139 740 q 247 818 213 801 q 312 840 282 835 q 360 844 342 846 l 361 875 l 190 875 l 190 939 l 363 939 q 336 1032 363 993 l 560 1032 m 361 793 q 297 761 329 796 q 238 665 264 726 q 194 520 211 603 q 178 344 178 438 q 180 289 178 325 q 190 217 182 253 q 215 156 199 182 q 260 131 232 131 q 320 167 290 131 q 367 271 350 204 l 361 793 z "},"":{"ha":283,"x_min":10,"x_max":239,"o":"m 211 192 q 214 159 213 183 q 218 106 215 135 q 225 50 221 76 q 236 11 229 24 l 236 0 l 10 0 l 10 11 q 24 48 18 24 q 36 100 31 72 q 44 156 42 128 q 47 204 47 185 l 47 679 q 40 772 47 729 q 24 835 33 815 l 24 846 l 239 846 l 239 835 q 228 810 233 828 q 219 771 224 793 q 213 724 215 749 q 211 679 211 700 l 211 192 z "},"":{"ha":464,"x_min":-72,"x_max":439,"o":"m -72 568 l 36 611 l 36 935 q 31 953 36 939 q 20 983 26 968 q 8 1009 14 997 q 0 1021 3 1021 l 0 1032 l 269 1032 l 269 1021 q 253 1010 263 1021 q 236 986 244 1000 q 222 958 228 972 q 217 935 217 943 l 217 683 l 308 721 l 325 660 l 217 615 l 217 14 q 268 33 243 14 q 317 83 293 53 q 361 149 340 113 q 397 220 382 186 q 422 281 413 254 q 431 319 431 308 l 439 319 l 435 0 l 0 0 l 0 11 q 10 24 4 11 q 22 55 15 38 q 32 89 28 72 q 36 113 36 106 l 36 543 l -53 507 l -72 568 z "},"":{"ha":275,"x_min":-81,"x_max":310,"o":"m -81 468 l 43 529 l 43 865 q 42 908 43 885 q 37 953 40 931 q 29 993 33 975 q 19 1021 25 1011 l 19 1032 l 235 1032 l 235 1021 q 216 964 221 997 q 208 872 211 931 l 208 613 l 290 653 l 310 593 l 208 543 l 208 210 q 210 178 208 201 q 215 126 211 156 q 223 67 218 97 q 233 18 228 38 l 233 0 l 7 0 l 7 11 q 20 50 14 24 q 32 107 26 76 q 40 168 38 138 q 43 218 43 199 l 43 460 l -60 408 l -81 468 z "},"":{"ha":922,"x_min":25,"x_max":915,"o":"m 626 581 l 807 581 l 803 364 l 792 364 q 777 410 790 376 q 742 477 764 443 q 692 538 721 511 q 626 564 663 564 l 626 14 q 758 47 707 14 q 838 125 808 79 q 883 221 868 171 q 906 306 897 271 l 915 306 l 900 0 l 422 0 l 422 7 q 366 -9 394 -4 q 307 -14 338 -14 q 194 11 246 -14 q 104 99 142 36 q 46 266 67 161 q 25 531 25 371 q 97 905 25 778 q 307 1032 168 1032 q 419 1000 367 1032 q 415 1015 418 1007 q 414 1021 415 1018 l 414 1032 l 900 1032 l 915 713 l 906 713 q 874 808 892 754 q 827 908 857 861 q 749 986 797 954 q 626 1018 701 1018 l 626 581 m 308 3 q 351 39 333 3 q 382 138 369 75 q 400 290 394 201 q 406 482 406 378 q 398 683 406 586 q 378 853 390 779 q 347 971 365 926 q 308 1015 329 1015 q 265 972 283 1015 q 233 854 246 928 q 213 685 219 781 q 206 483 206 589 q 212 290 206 378 q 231 138 218 201 q 264 38 244 74 q 308 3 283 3 z "},"":{"ha":894,"x_min":18,"x_max":867,"o":"m 560 369 q 570 253 560 303 q 599 172 581 204 q 640 123 617 139 q 689 107 663 107 q 751 132 725 107 q 793 190 776 157 q 817 257 810 224 q 825 307 825 290 l 851 307 q 851 268 851 296 q 844 205 850 240 q 827 131 839 169 q 794 60 815 92 q 739 8 772 29 q 657 -12 706 -12 q 533 12 585 -12 q 444 82 481 36 q 367 13 413 39 q 260 -14 322 -14 q 144 22 190 -14 q 69 120 97 57 q 30 273 42 183 q 18 471 18 363 q 40 626 18 558 q 99 741 63 694 q 181 813 135 788 q 274 838 226 838 q 380 813 331 838 q 465 735 429 788 q 566 819 510 793 q 674 844 622 844 q 733 832 700 844 q 797 792 767 819 q 847 723 826 765 q 867 622 867 681 q 861 568 867 594 q 833 495 856 532 q 771 430 810 458 q 678 385 732 401 q 560 369 625 368 m 275 17 q 309 45 293 17 q 338 120 325 74 q 358 227 350 167 q 369 351 367 288 q 368 376 368 364 q 368 403 368 389 q 368 432 368 418 q 369 460 368 446 q 363 590 368 526 q 346 701 357 653 q 317 779 335 750 q 275 808 300 808 q 235 774 251 808 q 208 685 218 740 q 193 559 197 629 q 189 415 189 489 q 194 272 189 343 q 210 144 200 200 q 238 52 221 88 q 275 17 254 17 m 675 765 q 619 730 642 765 q 583 642 596 694 q 564 531 569 590 q 558 425 558 472 l 558 397 q 640 430 603 401 q 703 497 676 458 q 746 578 731 535 q 761 654 761 621 q 734 738 761 710 q 675 765 707 765 z "},"":{"ha":567,"x_min":3,"x_max":542,"o":"m 189 1031 q 251 1020 221 1028 q 310 1004 281 1013 q 365 989 339 996 q 417 982 392 982 q 465 993 443 982 q 507 1032 488 1004 l 518 1032 l 501 643 l 490 643 q 445 760 479 696 q 367 879 411 824 q 274 972 322 935 q 185 1008 225 1008 q 156 1001 171 1008 q 129 981 142 993 q 109 951 117 968 q 101 915 101 935 q 107 885 101 897 q 146 832 117 858 q 215 777 175 806 q 299 714 254 749 q 388 635 344 679 q 465 533 431 590 q 519 403 500 476 q 542 254 542 322 q 521 134 542 185 q 466 50 500 83 q 387 0 432 17 q 292 -17 342 -17 q 276 -17 285 -17 q 258 -15 267 -17 q 206 -6 229 -12 q 163 8 182 1 q 126 19 143 14 q 93 24 110 24 q 31 -1 61 24 l 18 -1 l 50 558 l 61 558 q 72 341 58 442 q 110 167 85 240 q 172 51 136 93 q 251 10 208 10 q 288 24 269 10 q 319 64 306 39 q 342 122 333 89 q 350 194 350 156 q 338 286 350 239 q 293 379 325 333 q 188 511 240 457 q 95 615 136 565 q 28 717 54 664 q 3 846 3 771 q 15 915 3 881 q 49 977 26 950 q 108 1019 72 1004 q 189 1031 143 1035 m 110 1238 l 201 1238 l 278 1128 l 357 1238 l 457 1238 l 317 1088 l 240 1088 l 110 1238 z "},"":{"ha":503,"x_min":8,"x_max":481,"o":"m 92 1017 l 183 1017 l 258 907 l 336 1017 l 439 1017 l 299 867 l 222 867 l 92 1017 m 251 -14 q 188 -10 222 -14 q 119 3 153 -6 q 56 23 85 11 q 8 49 26 35 l 42 347 l 53 347 q 60 296 54 328 q 78 228 67 264 q 107 155 90 192 q 145 89 124 118 q 193 41 167 60 q 250 22 219 22 q 317 54 296 22 q 333 156 339 86 q 304 238 329 200 q 244 311 279 275 q 169 383 210 347 q 96 460 129 419 q 40 549 63 501 q 18 653 18 596 q 26 731 18 696 q 56 792 35 767 q 115 831 78 817 q 207 844 151 844 q 306 836 256 844 q 393 828 356 828 q 444 846 433 828 l 453 846 l 417 569 l 403 569 q 382 634 399 593 q 341 715 365 675 q 287 783 317 754 q 225 813 257 813 q 176 796 196 813 q 157 743 157 779 q 179 666 157 704 q 236 589 201 628 q 310 509 271 550 q 386 422 350 468 q 447 325 422 376 q 476 214 472 274 q 460 109 481 153 q 405 38 439 65 q 329 -1 371 11 q 251 -14 288 -14 z "},"":{"ha":519,"x_min":0,"x_max":511,"o":"m 331 476 l 418 914 q 418 933 419 919 q 412 964 417 947 q 399 996 407 981 q 378 1019 390 1011 l 378 1032 l 511 1032 l 511 1019 q 483 972 496 1006 q 464 911 471 939 l 340 347 l 364 175 q 371 149 364 171 q 386 101 378 128 q 403 49 394 75 q 414 11 411 24 l 414 0 l 115 0 l 115 11 q 126 44 118 21 q 143 92 135 67 q 158 142 151 118 q 165 179 165 167 l 176 347 l 47 919 q 37 961 42 946 q 27 987 32 976 q 16 1004 22 997 q 0 1019 10 1011 l 0 1032 l 297 1032 l 297 1019 q 280 998 289 1013 q 264 967 271 983 q 253 938 257 951 q 251 919 250 925 l 331 476 m 168 1126 q 182 1178 168 1157 q 219 1199 196 1199 q 260 1178 244 1199 q 275 1126 275 1158 q 259 1078 275 1097 q 219 1058 243 1058 q 182 1077 196 1058 q 168 1126 168 1096 m 299 1126 q 312 1178 299 1157 q 350 1199 325 1199 q 390 1178 375 1199 q 406 1126 406 1158 q 390 1078 406 1097 q 350 1058 374 1058 q 313 1077 326 1058 q 299 1126 299 1096 z "},"":{"ha":501,"x_min":17,"x_max":486,"o":"m 192 14 q 268 119 232 61 q 333 234 304 178 q 383 336 363 290 q 417 403 404 382 l 425 403 l 468 0 l 19 0 l 303 1018 q 259 988 285 1018 q 206 903 233 957 q 150 779 178 850 q 99 629 122 708 l 90 629 l 17 1032 l 486 1032 l 192 14 m 83 1221 l 175 1221 l 251 1111 l 328 1221 l 431 1221 l 290 1071 l 214 1071 l 83 1221 z "},"":{"ha":425,"x_min":22,"x_max":414,"o":"m 40 1018 l 132 1018 l 208 908 l 286 1018 l 386 1018 l 247 868 l 169 868 l 40 1018 m 24 153 l 310 829 q 200 785 246 822 q 122 701 154 749 q 68 606 89 654 q 33 531 47 558 l 22 840 l 414 840 l 414 683 l 131 13 q 192 52 156 24 q 267 120 228 81 q 343 208 306 160 q 410 310 381 257 l 403 0 l 24 0 l 24 153 z "},"":{"ha":368,"x_min":-44,"x_max":497,"o":"m -44 -182 l -43 -171 q -36 -157 -43 -169 q -20 -125 -29 -144 q -3 -81 -11 -106 q 10 -31 6 -57 l 76 653 l 32 653 l 35 683 l 82 683 q 138 824 107 761 q 196 931 168 888 q 246 999 224 975 q 275 1022 268 1022 q 320 1014 293 1022 q 378 995 347 1006 q 441 974 410 985 q 497 958 472 964 l 317 747 l 310 747 q 347 831 336 794 q 357 894 357 867 q 351 938 357 919 q 335 967 344 956 q 317 985 326 979 q 303 990 308 990 q 299 986 299 990 q 294 961 297 982 q 285 910 290 940 q 275 844 281 879 q 265 776 269 808 q 256 718 260 743 q 251 683 253 693 l 356 683 l 350 653 l 247 653 l 181 -31 q 181 -74 178 -50 q 188 -117 183 -97 q 197 -153 192 -137 q 201 -171 201 -168 l 200 -182 l -44 -182 z "},"":{"ha":301,"x_min":24,"x_max":247,"o":"m 107 950 l 161 950 l 247 817 l 194 817 l 136 882 l 132 882 l 76 817 l 24 817 l 107 950 z "},"":{"ha":372,"x_min":14,"x_max":360,"o":"m 14 1049 l 106 1049 l 182 939 l 258 1049 l 360 1049 l 219 899 l 143 899 l 14 1049 z "},"":{"ha":353,"x_min":18,"x_max":324,"o":"m 65 944 q 77 890 67 914 q 103 849 88 865 q 137 823 118 832 q 172 814 156 814 q 238 847 206 814 q 275 940 271 881 l 324 940 q 309 865 322 899 q 275 809 296 832 q 227 774 254 786 q 172 761 200 761 q 116 774 143 761 q 67 809 89 786 q 33 867 46 832 q 18 944 19 901 l 65 944 z "},"":{"ha":164,"x_min":18,"x_max":126,"o":"m 18 969 q 35 1021 18 1006 q 72 1036 51 1036 q 109 1019 92 1036 q 126 969 126 1001 q 109 922 126 938 q 72 906 92 906 q 35 922 51 906 q 18 969 18 938 z "},"":{"ha":211,"x_min":18,"x_max":172,"o":"m 18 960 q 40 1023 18 999 q 93 1047 61 1047 q 150 1023 128 1047 q 172 960 172 999 q 150 895 172 919 q 93 871 128 871 q 40 895 61 871 q 18 960 18 919 m 58 961 q 68 926 58 940 q 93 911 78 911 q 120 926 110 911 q 131 961 131 940 q 120 992 131 979 q 93 1006 110 1006 q 69 992 79 1006 q 58 961 58 979 z "},"":{"ha":243,"x_min":18,"x_max":189,"o":"m 189 -304 q 64 -262 110 -301 q 18 -154 18 -224 q 38 -65 18 -110 q 89 8 57 -19 l 126 8 q 83 -82 83 -28 q 92 -126 83 -106 q 115 -160 100 -146 q 148 -181 129 -174 q 189 -185 167 -187 l 189 -304 z "},"":{"ha":431,"x_min":107,"x_max":372,"o":"m 107 831 q 114 906 107 876 q 132 953 121 936 q 158 978 143 971 q 192 985 174 985 q 231 979 211 985 q 269 966 250 974 q 306 953 289 958 q 336 947 324 947 q 356 954 347 947 q 364 979 364 961 l 372 979 q 353 879 372 906 q 306 853 333 853 q 269 859 289 853 q 231 873 250 865 q 193 887 211 881 q 160 893 175 893 q 129 880 140 893 q 115 831 118 867 l 107 831 z "},"":{"ha":219,"x_min":18,"x_max":219,"o":"m 25 1006 q 36 1029 25 1022 q 61 1036 47 1036 q 99 1024 82 1036 q 108 996 117 1013 l 58 874 l 18 874 l 25 1006 m 124 1006 q 134 1029 124 1022 q 160 1036 144 1036 q 201 1024 182 1036 q 210 996 219 1013 l 161 874 l 118 874 l 124 1006 z "},"":{"ha":656,"x_min":122,"x_max":519,"o":"m 122 488 l 519 488 l 519 424 l 122 424 l 122 488 z "},"":{"ha":758,"x_min":122,"x_max":732,"o":"m 122 488 l 732 488 l 732 424 l 122 424 l 122 488 z "},"":{"ha":231,"x_min":74,"x_max":181,"o":"m 144 1144 q 133 1113 139 1133 q 121 1068 126 1092 q 111 1021 115 1044 q 107 981 107 997 q 128 985 118 985 q 165 968 149 985 q 181 919 181 951 q 165 867 181 888 q 126 847 150 847 q 88 871 101 847 q 74 935 74 894 q 80 994 74 963 q 95 1056 86 1026 q 115 1110 104 1086 q 133 1144 125 1135 l 144 1144 z "},"":{"ha":235,"x_min":74,"x_max":181,"o":"m 108 847 q 120 879 114 858 q 132 924 126 900 q 142 972 138 949 q 147 1011 146 994 q 125 1007 138 1007 q 90 1024 106 1007 q 74 1072 74 1040 q 89 1124 74 1104 q 126 1144 104 1144 q 166 1121 151 1144 q 181 1057 181 1097 q 174 997 181 1029 q 158 935 168 965 q 138 882 149 906 q 119 847 128 858 l 108 847 z "},"":{"ha":169,"x_min":18,"x_max":124,"o":"m 51 -164 q 64 -132 57 -153 q 76 -87 71 -111 q 86 -40 82 -64 q 90 0 90 -17 q 68 -4 81 -4 q 33 13 49 -4 q 18 61 18 29 q 33 113 18 93 q 72 133 49 133 q 110 110 96 133 q 124 46 124 86 q 117 -14 124 18 q 102 -76 111 -46 q 83 -130 93 -106 q 65 -164 74 -154 l 51 -164 z "},"":{"ha":367,"x_min":74,"x_max":314,"o":"m 144 1144 q 133 1113 139 1133 q 121 1068 126 1092 q 111 1021 115 1044 q 107 981 107 997 q 128 985 118 985 q 165 968 149 985 q 181 919 181 951 q 165 867 181 888 q 126 847 150 847 q 88 871 101 847 q 74 935 74 894 q 80 994 74 963 q 95 1056 86 1026 q 115 1110 104 1086 q 133 1144 125 1135 l 144 1144 m 278 1144 q 267 1113 274 1133 q 256 1068 261 1092 q 246 1021 250 1044 q 242 981 242 997 q 264 985 253 985 q 299 968 283 985 q 314 919 314 951 q 299 867 314 888 q 260 847 283 847 q 222 871 236 847 q 208 935 208 894 q 215 994 208 963 q 229 1056 221 1026 q 248 1110 238 1086 q 267 1144 258 1135 l 278 1144 z "},"":{"ha":349,"x_min":74,"x_max":314,"o":"m 243 847 q 255 879 249 858 q 266 924 261 900 q 275 972 271 949 q 281 1011 279 994 q 258 1007 271 1007 q 224 1024 239 1007 q 208 1072 208 1040 q 224 1124 208 1104 q 261 1144 239 1144 q 299 1121 285 1144 q 314 1057 314 1097 q 308 997 314 1029 q 292 935 301 965 q 274 882 283 906 q 256 847 264 858 l 243 847 m 108 847 q 120 879 114 858 q 132 924 126 900 q 142 972 138 949 q 147 1011 146 994 q 125 1007 138 1007 q 90 1024 106 1007 q 74 1072 74 1040 q 89 1124 74 1104 q 126 1144 104 1144 q 166 1121 151 1144 q 181 1057 181 1097 q 174 997 181 1029 q 158 935 168 965 q 138 882 149 906 q 119 847 128 858 l 108 847 z "},"":{"ha":336,"x_min":18,"x_max":261,"o":"m 51 -164 q 64 -132 57 -153 q 76 -87 71 -111 q 86 -40 82 -64 q 90 0 90 -17 q 68 -4 81 -4 q 33 13 49 -4 q 18 61 18 29 q 33 113 18 93 q 72 133 49 133 q 110 110 96 133 q 124 46 124 86 q 117 -14 124 18 q 102 -76 111 -46 q 83 -130 93 -106 q 65 -164 74 -154 l 51 -164 m 190 -164 q 201 -132 194 -153 q 213 -87 207 -111 q 224 -40 219 -64 q 228 0 228 -17 q 207 -4 219 -4 q 172 13 188 -4 q 156 61 156 29 q 170 113 156 93 q 208 133 185 133 q 247 110 233 133 q 261 46 261 86 q 255 -14 261 18 q 240 -76 249 -46 q 220 -130 231 -106 q 201 -164 210 -154 l 190 -164 z "},"":{"ha":351,"x_min":89,"x_max":294,"o":"m 89 475 q 115 573 89 533 q 190 613 142 613 q 265 574 236 613 q 294 475 294 535 q 265 380 294 417 q 190 343 235 343 q 116 380 143 343 q 89 475 89 417 z "},"":{"ha":500,"x_min":18,"x_max":458,"o":"m 18 61 q 31 113 18 92 q 69 133 44 133 q 110 113 94 133 q 125 61 125 93 q 109 13 125 32 q 69 -7 93 -7 q 32 12 46 -7 q 18 61 18 31 m 185 61 q 198 113 185 92 q 236 133 211 133 q 276 113 261 133 q 292 61 292 93 q 276 13 292 32 q 236 -7 260 -7 q 199 12 213 -7 q 185 61 185 31 m 351 61 q 365 113 351 92 q 403 133 379 133 q 443 113 428 133 q 458 61 458 93 q 442 13 458 32 q 403 -7 426 -7 q 365 12 379 -7 q 351 61 351 31 z "},"":{"ha":1340,"x_min":22,"x_max":1286,"o":"m 549 1032 l 618 1032 l 281 0 l 215 0 l 549 1032 m 228 613 q 140 628 178 613 q 75 672 101 644 q 35 737 49 700 q 22 814 22 774 q 35 892 22 856 q 75 958 49 929 q 140 1002 101 986 q 228 1018 178 1018 q 315 1002 276 1018 q 379 958 353 986 q 419 892 406 929 q 433 814 433 856 q 419 737 433 774 q 379 672 406 700 q 315 628 353 644 q 228 613 276 613 m 124 811 q 128 756 124 788 q 146 695 133 724 q 178 647 158 667 q 228 626 199 626 q 276 647 257 626 q 308 696 296 667 q 326 757 321 725 q 331 813 331 789 q 326 870 331 838 q 308 931 321 903 q 276 980 296 960 q 228 1000 257 1000 q 178 980 199 1000 q 146 931 158 960 q 128 869 133 901 q 124 811 124 836 m 636 21 q 548 37 586 21 q 483 81 510 53 q 444 145 457 108 q 431 222 431 182 q 444 301 431 264 q 483 366 457 338 q 548 410 510 394 q 636 426 586 426 q 723 410 685 426 q 788 366 761 394 q 828 301 814 338 q 842 222 842 264 q 828 145 842 182 q 788 81 814 108 q 723 37 761 53 q 636 21 685 21 m 532 219 q 537 164 532 196 q 554 103 542 132 q 587 55 567 75 q 636 35 607 35 q 685 55 665 35 q 717 104 704 75 q 734 165 729 133 q 739 221 739 197 q 734 278 739 246 q 717 340 729 311 q 685 388 704 368 q 636 408 665 408 q 587 388 607 408 q 554 339 567 368 q 537 277 542 310 q 532 219 532 244 m 1081 21 q 992 37 1031 21 q 928 81 954 53 q 888 145 901 108 q 874 222 874 182 q 888 301 874 264 q 928 366 901 338 q 992 410 954 394 q 1081 426 1031 426 q 1167 410 1129 426 q 1232 366 1206 394 q 1272 301 1258 338 q 1286 222 1286 264 q 1272 145 1286 182 q 1232 81 1258 108 q 1167 37 1206 53 q 1081 21 1129 21 m 976 219 q 981 164 976 196 q 999 103 986 132 q 1031 55 1011 75 q 1081 35 1051 35 q 1129 55 1110 35 q 1161 104 1149 75 q 1178 165 1174 133 q 1183 221 1183 197 q 1178 278 1183 246 q 1160 340 1172 311 q 1129 388 1149 368 q 1081 408 1110 408 q 1031 388 1051 408 q 999 339 1011 368 q 981 277 986 310 q 976 219 976 244 z "},"":{"ha":392,"x_min":24,"x_max":299,"o":"m 299 203 l 24 408 l 24 506 l 299 711 l 299 651 l 53 456 l 299 264 l 299 203 z "},"":{"ha":340,"x_min":24,"x_max":299,"o":"m 24 264 l 267 456 l 24 651 l 24 711 l 299 506 l 299 408 l 24 203 l 24 264 z "},"":{"ha":439,"x_min":14,"x_max":417,"o":"m 347 1032 l 417 1032 l 78 0 l 14 0 l 347 1032 z "},"":{"ha":689,"x_min":-67,"x_max":651,"o":"m 465 325 q 514 375 486 357 q 569 393 542 393 q 615 374 594 393 q 647 314 636 356 q 615 192 636 250 q 557 88 593 133 q 468 17 521 43 q 340 -10 415 -10 q 197 19 254 -10 q 102 97 139 49 q 47 207 65 144 q 19 336 28 269 l -67 336 l -67 400 l 15 400 q 14 444 14 422 q 14 489 14 467 l -67 489 l -67 553 l 14 553 q 35 708 18 631 q 89 848 51 786 q 188 949 126 910 q 340 988 249 988 q 481 960 424 988 q 573 889 538 933 q 626 785 608 844 q 651 661 644 726 q 614 594 640 613 q 557 576 588 576 q 489 597 519 576 q 458 638 458 617 q 450 763 458 703 q 426 869 442 824 q 388 943 410 915 q 340 971 367 971 q 280 931 306 971 q 237 828 254 890 q 210 693 219 767 q 197 553 200 619 l 350 553 l 350 489 l 197 489 l 197 488 q 197 446 197 468 q 199 400 197 424 l 350 400 l 350 336 l 203 336 q 221 217 210 276 q 249 112 232 158 q 288 36 265 65 q 340 7 311 7 q 386 37 365 7 q 422 113 407 67 q 449 216 438 160 q 465 325 460 272 z "},"":{"ha":511,"x_min":6,"x_max":450,"o":"m 172 1028 l 10 1028 l 8 1029 q 7 1032 7 1032 l 6 1032 l 7 908 l 10 908 q 22 942 15 924 q 36 978 29 961 q 50 1008 43 996 q 61 1022 57 1021 l 61 744 q 54 711 61 725 q 44 697 47 697 l 44 693 l 131 693 l 131 697 q 121 711 128 697 q 114 744 114 725 l 114 1022 q 128 1011 121 1022 q 142 983 135 1000 q 158 947 150 967 q 172 908 165 926 l 175 908 l 176 1032 q 172 1028 176 1028 m 264 725 q 269 707 264 721 q 274 697 271 703 l 274 693 l 192 693 l 192 697 q 199 707 196 703 q 206 725 206 718 l 206 1000 q 200 1017 206 1006 q 192 1028 194 1028 l 192 1032 l 264 1032 l 326 811 l 383 1032 l 450 1032 l 450 1028 q 444 1015 449 1028 q 439 1000 439 1003 l 439 725 q 442 708 439 719 q 450 697 446 697 l 450 693 l 364 693 l 364 697 q 370 706 367 701 q 376 715 374 711 q 382 725 379 719 l 382 1004 l 342 693 l 311 693 l 264 1008 l 264 725 z "},"":{"ha":801,"x_min":122,"x_max":694,"o":"m 122 488 l 694 488 l 694 424 l 122 424 l 122 488 z "},"":{"ha":701,"x_min":7,"x_max":683,"o":"m 194 847 q 203 922 203 892 q 181 1008 203 981 q 125 1053 158 1035 l 626 1053 q 575 1024 594 1039 q 545 993 556 1008 q 533 963 535 978 q 532 936 531 949 l 617 271 q 627 213 621 249 q 641 138 633 176 q 659 62 649 99 q 683 0 669 25 l 306 0 q 338 35 324 13 q 362 83 353 58 q 375 133 371 108 q 376 174 379 157 l 364 274 q 333 275 356 274 q 278 277 310 276 q 208 278 246 278 q 132 276 171 279 l 108 156 q 109 117 104 138 q 126 74 114 96 q 161 33 139 53 q 215 0 183 14 l 7 0 q 28 25 18 8 q 45 61 38 42 q 58 99 53 81 q 65 128 64 117 l 194 847 m 140 310 q 195 310 164 310 q 257 311 226 311 q 315 311 288 311 q 357 313 342 311 l 268 1039 l 140 310 z "},"":{"ha":792,"x_min":0,"x_max":781,"o":"m 58 0 q 120 69 99 25 q 153 164 142 113 q 166 269 164 215 q 168 369 168 324 l 168 1028 q 128 1006 143 1026 q 103 959 113 986 q 89 901 93 932 q 83 846 85 871 l 0 1053 l 414 1053 q 547 1046 481 1053 q 665 1017 613 1039 q 749 953 717 994 q 781 844 781 913 q 781 831 781 838 q 778 817 781 824 q 741 731 774 765 q 659 676 708 697 q 549 648 610 656 q 428 642 489 640 q 685 581 594 644 q 775 365 775 517 q 681 92 775 185 q 372 0 588 0 l 58 0 m 349 650 l 374 650 q 418 666 388 650 q 480 711 449 682 q 535 781 511 740 q 558 871 558 822 q 545 933 558 903 q 508 986 532 963 q 451 1024 485 1010 q 378 1039 418 1039 l 369 1039 q 349 996 349 1039 l 349 650 m 349 636 l 349 57 q 369 14 349 14 l 375 14 q 437 24 404 14 q 497 67 469 33 q 543 164 525 100 q 561 336 561 228 q 540 444 561 390 q 490 541 519 499 q 429 610 461 583 q 374 636 397 636 l 349 636 z "},"":{"ha":906,"x_min":-3,"x_max":885,"o":"m 33 0 q 113 92 86 36 q 139 217 139 147 l 139 1038 q 89 1002 108 1036 q 57 922 69 968 q 37 828 44 876 q 22 753 29 781 l -3 1053 l 372 1053 q 465 1048 413 1053 q 575 1027 518 1043 q 688 980 632 1011 q 787 896 743 949 q 858 765 831 843 q 885 575 885 686 q 844 283 885 396 q 733 108 803 171 q 570 23 663 46 q 375 0 478 0 l 33 0 m 349 57 q 372 14 349 14 l 376 14 q 510 50 454 14 q 603 151 567 86 q 658 306 640 215 q 676 503 676 396 q 673 597 676 542 q 660 711 669 651 q 631 829 650 771 q 580 934 611 888 q 502 1010 549 981 q 392 1039 456 1039 q 357 1028 365 1039 q 349 996 349 1017 l 349 57 z "},"":{"ha":715,"x_min":22,"x_max":699,"o":"m 368 597 l 625 706 l 664 410 q 638 467 651 436 q 598 524 624 497 q 532 568 572 550 q 426 586 492 586 q 399 585 414 586 q 368 581 383 583 l 368 14 q 498 41 442 14 q 594 111 554 68 q 659 206 633 154 q 699 306 685 257 l 683 0 l 106 0 q 161 90 146 32 q 176 218 176 147 l 176 1038 q 133 1014 154 1032 q 94 963 113 996 q 58 878 75 929 q 22 753 40 826 l 22 1053 l 683 1053 l 699 733 q 651 854 674 799 q 593 951 628 910 q 506 1015 558 992 q 368 1039 453 1039 l 368 597 z "},"":{"ha":778,"x_min":7,"x_max":758,"o":"m 192 1039 q 139 1012 160 1035 q 105 956 118 989 q 84 883 92 922 q 72 808 76 844 l 7 1054 l 743 1054 l 758 735 l 749 735 q 722 851 739 794 q 668 952 704 908 q 572 1021 632 996 q 418 1040 513 1046 l 418 629 l 661 686 l 724 329 l 711 329 q 681 457 694 403 q 646 547 668 511 q 586 599 624 582 q 482 615 549 615 q 451 615 467 615 q 418 613 436 614 l 418 203 q 451 91 418 138 q 560 0 483 44 l 93 0 q 169 91 146 38 q 192 208 192 144 l 192 1039 z "},"":{"ha":925,"x_min":11,"x_max":943,"o":"m 442 1053 q 433 1038 442 1047 q 416 1012 425 1029 q 399 966 407 994 q 390 893 390 938 l 390 547 l 685 547 l 685 893 q 679 953 685 929 q 665 996 674 978 q 642 1027 656 1014 q 614 1053 629 1040 l 943 1053 l 943 1042 q 915 1021 928 1042 q 892 974 901 1000 q 878 924 883 949 q 872 893 872 900 l 872 183 q 879 76 872 122 q 915 0 886 29 l 628 0 q 674 76 663 33 q 685 183 685 119 l 685 507 l 390 507 l 390 183 q 400 84 390 128 q 443 0 410 40 l 144 0 q 189 72 176 25 q 201 183 201 118 l 201 1038 q 165 1015 186 1028 q 119 973 143 1001 q 69 892 94 944 q 24 753 44 840 l 11 753 l 22 1053 l 442 1053 z "},"":{"ha":492,"x_min":10,"x_max":476,"o":"m 476 1053 l 476 1042 q 458 1023 469 1036 q 434 990 446 1010 q 414 945 422 971 q 406 889 406 919 l 406 214 q 421 82 406 139 q 476 0 436 25 l 143 0 q 196 80 175 25 q 217 214 217 135 l 217 1038 q 165 1005 183 1035 q 139 932 147 975 q 128 841 131 889 q 124 753 126 793 l 111 753 l 10 1053 l 476 1053 z "},"":{"ha":524,"x_min":24,"x_max":501,"o":"m 161 3 q 199 22 185 3 q 220 70 213 40 q 230 138 228 100 q 232 214 232 175 l 232 1038 q 192 1004 213 1025 q 154 950 172 983 q 124 868 136 917 q 107 753 111 819 l 94 753 l 31 1053 l 501 1053 l 501 1042 q 473 1017 486 1035 q 451 981 460 1000 q 436 946 442 963 q 431 924 431 929 l 431 244 q 407 126 431 175 q 345 47 383 78 q 260 1 307 15 q 165 -14 213 -14 q 77 10 110 -14 q 24 57 44 33 l 118 392 l 131 392 q 122 265 128 333 q 115 136 115 196 q 124 40 115 78 q 161 3 133 3 z "},"":{"ha":593,"x_min":17,"x_max":1110,"o":"m 415 931 q 428 971 428 950 q 409 1020 428 999 q 364 1042 390 1042 l 364 1053 l 600 1053 l 600 1042 q 536 1011 568 1042 q 464 921 504 981 l 271 551 l 454 521 q 513 296 485 397 q 576 115 542 194 q 656 -25 611 35 q 763 -124 700 -85 q 911 -185 826 -164 q 1110 -211 996 -207 l 1110 -221 q 997 -241 1050 -235 q 894 -247 943 -247 q 703 -219 786 -247 q 559 -142 621 -190 q 454 -30 497 -93 q 381 101 411 33 q 331 239 351 169 q 296 369 311 308 q 268 478 281 431 q 240 551 256 526 l 240 97 q 253 48 240 72 q 314 0 267 24 l 17 0 q 43 30 35 14 q 54 61 51 46 q 58 97 58 79 l 58 940 q 55 989 58 969 q 46 1021 51 1008 q 33 1040 40 1033 q 17 1053 25 1047 l 292 1053 q 250 1006 260 1035 q 240 940 240 976 l 240 589 l 415 931 z "},"":{"ha":636,"x_min":11,"x_max":601,"o":"m 451 1053 q 417 1010 431 1039 q 394 946 403 981 q 382 874 386 911 q 378 803 378 836 l 378 14 q 453 55 418 18 q 515 140 488 92 q 563 238 543 188 q 592 319 582 288 l 601 319 l 585 0 l 100 0 q 124 30 111 8 q 147 81 136 51 q 166 147 158 111 q 174 219 174 182 l 174 1038 q 119 1001 140 1035 q 87 922 99 968 q 69 829 75 876 q 57 753 63 782 l 44 753 l 11 1053 l 451 1053 z "},"":{"ha":628,"x_min":-43,"x_max":1106,"o":"m 243 319 q 246 224 244 274 q 247 121 247 174 q 259 58 247 93 q 283 0 271 22 l 7 0 q 34 54 28 24 q 40 121 40 85 l 40 892 q 19 977 40 938 q -43 1053 -3 1017 l 311 1053 q 426 1034 372 1053 q 521 976 481 1015 q 585 875 561 936 q 610 731 610 814 q 606 653 610 694 q 561 524 596 579 q 477 428 526 468 q 370 363 428 388 q 257 326 313 338 l 469 239 q 528 19 500 115 q 588 -151 556 -78 q 662 -274 619 -224 q 764 -358 704 -325 q 906 -407 824 -390 q 1103 -428 989 -424 l 1106 -437 q 889 -464 988 -464 q 651 -417 749 -464 q 488 -297 553 -371 q 383 -133 422 -224 q 318 44 343 -43 q 277 205 293 131 q 243 319 261 279 m 243 350 q 295 405 269 369 q 344 485 321 440 q 384 583 367 531 q 411 686 401 635 q 422 758 419 725 q 425 821 425 792 q 415 916 425 876 q 390 981 406 956 q 355 1019 374 1007 q 318 1031 336 1031 l 311 1031 q 281 1001 294 1028 q 259 913 268 974 q 246 751 250 851 q 242 501 242 651 q 242 428 242 467 q 243 350 242 390 z "},"":{"ha":772,"x_min":6,"x_max":750,"o":"m 749 725 q 728 581 750 643 q 672 472 707 518 q 594 396 638 426 q 512 345 551 365 q 440 315 472 325 q 394 300 408 304 l 394 190 q 413 81 394 132 q 457 7 432 29 l 151 7 q 172 35 164 15 q 185 79 181 54 q 192 133 190 104 q 194 190 194 163 l 194 1038 q 106 930 154 1001 q 17 753 58 858 l 6 753 l 78 1053 l 460 1053 q 519 1052 488 1053 q 581 1043 550 1051 q 642 1015 613 1035 q 695 960 672 996 q 733 867 718 924 q 749 725 747 810 m 394 315 q 449 358 425 325 q 492 435 474 390 q 525 534 511 481 q 548 639 539 588 q 561 735 557 690 q 565 808 565 781 q 560 897 565 854 q 540 970 554 939 q 505 1020 526 1001 q 451 1039 483 1039 l 394 1039 l 394 315 z "},"":{"ha":806,"x_min":18,"x_max":772,"o":"m 144 822 q 115 914 133 874 q 78 983 97 954 q 43 1030 60 1013 q 18 1053 26 1047 l 364 1053 l 519 169 l 676 807 q 683 846 681 828 q 686 881 686 864 q 667 963 686 931 q 622 1013 649 994 q 566 1040 594 1031 q 518 1053 538 1049 l 772 1053 l 511 0 l 332 0 l 144 822 z "},"":{"ha":1125,"x_min":-8,"x_max":1101,"o":"m 132 875 q 82 990 121 942 q -8 1057 43 1038 l 340 1057 l 497 146 l 610 1057 l 732 1057 l 947 293 l 1022 814 q 1020 903 1026 865 q 994 971 1014 942 q 939 1021 974 1000 q 850 1057 904 1042 l 1101 1057 l 947 0 l 822 0 l 601 764 l 500 0 l 272 0 l 132 875 z "},"":{"ha":1144,"x_min":8,"x_max":1107,"o":"m 1107 471 q 1106 383 1107 433 q 1096 279 1104 332 q 1071 175 1088 226 q 1024 84 1054 124 q 947 19 993 44 q 835 -6 901 -6 q 719 28 765 -6 q 646 124 674 63 q 606 274 618 186 q 594 471 594 363 q 613 612 594 549 q 661 722 631 675 q 731 797 692 768 q 814 833 771 825 q 808 964 818 915 q 781 1038 799 1013 q 738 1072 763 1064 q 689 1081 714 1081 l 685 1081 q 608 1049 636 1081 q 568 978 581 1018 q 566 844 565 894 q 567 792 567 794 q 499 806 547 797 q 393 821 451 814 q 460 776 433 810 q 506 699 488 742 q 531 614 524 657 q 539 540 539 571 q 524 428 539 488 q 476 319 508 369 q 392 232 443 268 q 269 188 342 196 q 250 186 264 186 q 231 187 240 186 q 213 189 222 188 l 189 124 q 294 132 246 132 q 444 97 388 132 q 501 -25 501 61 q 243 -240 501 -240 q 134 -222 190 -240 q 26 -160 78 -203 l 26 0 q 174 -81 94 -50 q 319 -112 254 -112 q 406 -89 372 -112 q 439 -11 439 -65 q 425 38 439 19 q 388 68 411 57 q 335 83 364 79 q 274 88 306 88 q 186 82 229 88 q 118 74 143 76 q 125 88 119 74 q 138 122 131 101 q 153 164 146 142 q 167 203 161 186 q 88 253 119 221 q 40 326 57 286 q 15 408 22 365 q 8 490 8 451 q 8 513 8 501 q 10 536 8 525 q 41 667 14 610 q 108 763 68 724 q 197 824 149 803 q 293 844 246 844 q 368 831 335 844 q 449 901 413 861 q 524 981 486 940 q 544 1038 531 1011 q 577 1086 557 1065 q 625 1119 597 1107 q 690 1131 653 1131 q 749 1122 719 1131 q 804 1090 779 1114 q 845 1023 829 1065 q 861 913 861 981 l 861 838 q 958 814 913 836 q 1036 747 1003 792 q 1088 634 1069 703 q 1107 471 1107 565 m 851 25 q 890 59 872 25 q 920 148 907 93 q 941 273 933 203 q 949 415 949 343 q 944 559 949 489 q 928 685 939 629 q 898 774 917 740 q 851 808 879 808 q 812 774 828 808 q 785 685 796 740 q 770 559 775 629 q 765 415 765 489 q 771 273 765 343 q 787 148 776 203 q 814 59 797 93 q 851 25 831 25 m 318 804 q 249 770 279 804 q 199 683 219 736 q 167 565 178 629 q 157 439 157 500 q 162 365 157 400 q 176 302 167 329 q 199 259 185 275 q 233 243 214 243 q 294 282 267 243 q 340 381 321 321 q 370 513 360 442 q 381 646 381 583 q 368 757 381 713 q 328 804 356 801 l 318 804 m 140 94 q 139 94 139 93 l 140 94 z "},"":{"ha":908,"x_min":18,"x_max":906,"o":"m 528 471 q 526 383 528 433 q 517 279 525 333 q 492 173 508 225 q 446 79 475 121 q 371 12 417 38 q 260 -14 325 -14 q 144 22 190 -14 q 69 120 97 57 q 30 273 42 183 q 18 471 18 363 q 38 621 18 554 q 92 736 58 688 q 167 813 125 785 q 256 844 210 840 q 275 962 260 901 q 322 1072 290 1022 q 404 1155 354 1122 q 526 1188 454 1188 q 653 1163 604 1188 q 731 1101 703 1139 q 770 1015 760 1063 q 781 919 781 967 l 781 831 l 872 831 l 872 800 l 781 800 l 781 224 q 783 151 781 179 q 792 106 786 122 q 803 82 797 89 q 818 71 810 75 q 835 72 826 67 q 853 86 844 76 q 867 107 861 96 q 875 126 872 118 l 906 121 q 853 15 890 44 q 776 -14 815 -14 q 690 10 724 -14 q 638 69 657 33 q 613 145 619 104 q 606 219 606 186 l 606 654 q 599 723 606 694 q 583 769 593 751 q 561 795 572 788 q 539 803 550 803 l 539 825 q 634 828 596 824 q 696 842 672 832 q 731 869 719 853 q 744 910 742 886 q 733 1000 744 957 q 697 1075 722 1043 q 627 1126 671 1107 q 517 1146 583 1146 q 431 1124 471 1146 q 360 1063 390 1103 q 313 968 331 1024 q 292 844 294 913 q 385 817 342 840 q 460 747 428 793 q 510 633 492 701 q 528 471 528 564 m 275 17 q 312 52 294 17 q 343 144 329 88 q 365 272 357 200 q 372 415 372 343 q 367 560 372 489 q 351 689 363 632 q 322 781 340 746 q 275 817 303 817 q 235 781 251 817 q 208 689 218 746 q 193 560 197 632 q 189 415 189 489 q 194 272 189 343 q 210 144 200 200 q 238 52 221 88 q 275 17 254 17 z "},"":{"ha":978,"x_min":10,"x_max":960,"o":"m 340 0 q 353 40 347 18 q 365 83 360 61 q 372 125 369 106 q 375 158 375 144 l 383 364 q 358 233 371 300 q 325 110 346 165 q 270 21 304 56 q 182 -14 236 -14 q 126 -6 154 -14 q 76 26 99 3 q 39 92 53 50 q 25 199 25 133 q 35 306 25 246 q 82 432 46 367 q 187 565 118 497 q 372 692 256 632 q 373 719 372 699 q 367 763 374 740 q 345 802 361 785 q 297 819 329 819 q 233 793 265 819 q 172 726 201 767 q 117 635 143 685 q 70 537 92 585 q 33 450 49 489 q 10 392 18 411 l 24 768 q 68 792 35 779 q 142 817 101 806 q 225 836 183 828 q 293 844 267 844 q 340 843 317 844 q 386 836 363 842 q 398 947 389 886 q 433 1062 407 1008 q 503 1152 458 1115 q 622 1189 549 1189 q 724 1163 683 1189 q 788 1098 764 1138 q 822 1010 813 1058 q 832 919 832 963 l 832 831 l 924 831 l 924 799 l 832 799 l 832 232 q 835 159 832 188 q 843 114 838 131 q 855 90 849 97 q 869 79 861 83 q 887 80 878 75 q 904 94 896 85 q 918 115 913 104 q 926 135 924 126 l 960 122 q 908 22 946 49 q 832 -6 871 -6 q 744 17 778 -6 q 690 76 710 40 q 663 152 671 111 q 656 228 656 193 l 656 654 q 649 723 656 694 q 633 769 643 751 q 612 794 624 786 q 590 801 600 801 l 590 825 q 685 828 647 824 q 746 842 722 832 q 781 869 769 853 q 794 910 792 886 q 790 971 794 931 q 769 1051 786 1011 q 717 1119 751 1090 q 624 1149 683 1149 q 522 1113 561 1149 q 460 1025 482 1076 q 431 919 439 974 q 422 826 422 864 q 508 758 474 808 q 543 610 543 708 l 543 158 q 547 119 543 142 q 558 73 551 96 q 574 31 565 50 q 593 0 583 11 l 340 0 m 375 661 q 272 559 314 610 q 206 462 231 508 q 170 373 181 415 q 160 294 160 331 q 163 257 160 279 q 176 214 167 235 q 201 178 185 193 q 240 164 217 164 q 289 188 268 164 q 325 247 310 211 q 350 327 340 283 q 365 411 360 371 q 374 483 371 451 q 376 526 376 514 l 375 661 z "},"":{"ha":1028,"x_min":-6,"x_max":1028,"o":"m 358 133 l 422 518 q 431 589 429 551 q 433 663 433 626 q 427 765 433 717 q 407 844 421 813 l 458 844 q 470 951 461 892 q 505 1064 479 1011 q 576 1153 531 1117 q 697 1189 622 1189 q 798 1165 758 1189 q 862 1102 838 1140 q 896 1017 886 1064 q 906 928 906 971 l 906 831 l 997 831 l 997 799 l 906 799 l 906 232 q 908 159 906 188 q 917 114 911 131 q 928 90 922 97 q 943 79 935 83 q 977 93 961 72 q 999 132 993 114 l 1028 121 q 1006 56 1021 82 q 973 14 992 29 q 933 -8 954 -1 q 890 -15 911 -15 q 801 10 833 -15 q 753 72 769 35 q 734 151 738 108 q 731 228 731 193 l 731 654 q 724 722 731 694 q 707 765 717 749 q 685 787 697 781 q 664 793 674 793 l 664 825 q 759 829 721 824 q 821 847 797 835 q 856 876 844 858 q 869 918 867 894 q 865 978 869 939 q 842 1054 860 1017 q 791 1120 825 1092 q 699 1149 757 1149 q 597 1115 636 1149 q 536 1035 558 1082 q 505 935 514 988 q 494 844 496 883 l 565 844 q 539 815 549 832 q 524 778 529 797 q 515 743 518 760 q 510 715 513 726 l 364 0 l 218 0 l 60 665 q 50 707 57 681 q 33 761 43 733 q 14 813 24 789 q -6 844 4 836 l 299 844 q 270 783 281 817 q 260 704 260 749 q 263 667 260 686 q 268 625 265 647 l 358 133 z "},"":{"ha":1003,"x_min":7,"x_max":1000,"o":"m 210 192 q 213 144 213 171 q 215 92 213 118 q 221 42 217 67 q 235 0 225 18 l 7 0 q 25 40 18 17 q 36 92 32 64 q 42 149 40 119 q 44 204 44 178 l 44 671 q 41 759 44 715 q 22 838 38 803 l 235 838 q 213 760 217 806 q 210 671 210 715 l 210 535 q 266 751 224 678 q 375 829 308 824 q 428 828 406 832 q 433 897 429 858 q 447 976 438 936 q 472 1054 456 1015 q 514 1123 489 1093 q 576 1171 539 1153 q 661 1189 613 1189 q 765 1159 724 1189 q 830 1084 806 1129 q 865 988 854 1039 q 875 892 875 936 l 875 831 l 967 831 l 967 792 l 875 792 l 875 232 q 878 159 875 188 q 886 114 881 131 q 899 90 892 97 q 914 79 906 83 q 931 80 922 75 q 947 94 939 85 q 962 115 956 104 q 969 135 968 126 l 1000 124 q 977 56 993 82 q 940 14 961 29 q 897 -8 919 -1 q 853 -14 874 -14 q 763 10 794 -14 q 717 72 732 35 q 701 151 703 108 q 699 228 699 193 l 699 654 q 692 720 699 694 q 676 760 686 746 q 654 781 665 775 q 632 786 643 786 l 632 825 q 727 827 689 824 q 790 840 765 831 q 825 865 814 849 q 839 904 836 881 q 834 966 839 925 q 812 1048 829 1007 q 760 1119 794 1089 q 667 1149 725 1149 q 564 1112 603 1149 q 503 1023 525 1075 q 473 915 481 971 q 465 819 465 858 q 593 544 593 778 l 593 179 q 604 81 593 131 q 643 0 615 32 l 381 0 q 404 33 394 13 q 420 77 414 53 q 429 128 426 101 q 432 179 432 154 l 432 499 q 416 675 432 607 q 365 743 400 743 q 315 713 338 743 q 276 638 293 683 q 247 539 258 593 q 227 435 235 485 q 215 347 219 385 q 210 296 211 308 l 210 192 z "},"":{"ha":1306,"x_min":10,"x_max":1285,"o":"m 574 297 q 573 236 574 278 q 574 149 572 194 q 582 62 576 103 q 600 0 588 21 l 372 0 q 392 69 386 21 q 401 176 399 117 q 402 298 403 235 q 401 413 401 361 q 401 431 401 428 q 401 435 401 435 q 400 436 400 436 q 400 445 400 436 q 400 476 400 454 q 401 539 400 497 q 398 630 401 594 q 388 686 394 665 q 372 717 382 707 q 349 731 361 726 q 326 735 336 735 q 262 683 289 735 q 211 526 235 632 l 211 244 q 210 186 211 218 q 212 121 210 154 q 219 56 214 88 q 236 0 225 24 l 10 0 q 28 42 21 18 q 40 94 36 67 q 46 149 44 121 q 47 204 47 178 l 47 669 q 45 694 47 678 q 40 733 43 711 q 33 778 38 754 q 24 825 28 803 l 24 836 l 239 836 l 239 825 q 231 783 235 800 q 226 752 228 767 q 222 722 224 738 q 219 686 221 707 q 244 743 228 715 q 283 792 260 771 q 338 825 306 813 q 408 838 369 838 q 514 790 472 838 q 567 660 556 743 q 584 726 572 694 q 615 781 596 757 q 663 819 635 806 q 728 833 690 833 q 738 941 729 879 q 773 1058 747 1003 q 844 1151 799 1113 q 964 1189 889 1189 q 1065 1161 1025 1189 q 1130 1091 1106 1133 q 1165 999 1154 1049 q 1175 906 1175 950 l 1175 832 l 1267 832 l 1267 799 l 1175 799 l 1175 232 q 1178 159 1175 188 q 1186 114 1181 131 q 1199 90 1192 97 q 1214 79 1206 83 q 1231 80 1222 75 q 1247 94 1239 85 q 1260 115 1254 104 q 1269 135 1267 126 l 1285 135 q 1238 26 1271 57 q 1167 -6 1206 -6 q 1083 19 1115 -6 q 1031 78 1050 43 q 1006 155 1013 114 q 999 228 999 196 l 999 654 q 992 723 999 694 q 976 769 986 751 q 954 794 965 786 q 932 801 943 801 l 932 826 q 1027 827 989 825 q 1090 836 1065 829 q 1125 858 1114 843 q 1139 896 1136 872 q 1134 959 1139 917 q 1111 1043 1129 1001 q 1058 1116 1093 1085 q 964 1147 1024 1147 q 864 1111 903 1147 q 803 1025 825 1075 q 774 921 782 975 q 764 829 765 867 q 867 743 833 815 q 900 544 900 671 l 900 275 q 906 211 906 249 q 908 135 906 174 q 915 60 910 96 q 936 0 921 24 l 700 0 q 721 63 714 26 q 731 141 728 100 q 735 224 735 182 q 736 306 736 267 l 736 625 q 719 704 736 668 q 669 743 703 740 q 637 724 653 743 q 607 676 621 706 q 585 611 593 647 q 576 539 576 575 l 574 297 z "},"":{"ha":1078,"x_min":15,"x_max":1078,"o":"m 431 631 q 424 738 426 682 q 403 843 422 794 l 508 843 q 520 950 511 890 q 556 1063 529 1010 q 628 1153 582 1117 q 749 1189 674 1189 q 848 1165 808 1189 q 912 1104 888 1142 q 946 1022 936 1067 q 956 933 956 976 l 956 831 l 1044 831 l 1044 800 l 956 800 l 956 232 q 958 159 956 188 q 966 114 961 131 q 978 90 971 97 q 993 79 985 83 q 1010 80 1001 75 q 1027 94 1019 85 q 1040 115 1035 104 q 1049 135 1046 126 l 1078 122 q 1056 57 1071 83 q 1022 15 1042 31 q 981 -8 1003 -1 q 940 -15 960 -15 q 851 10 883 -15 q 802 72 818 35 q 782 151 786 108 q 778 228 778 193 l 778 682 q 772 746 778 722 q 756 781 765 769 q 734 797 746 793 q 711 800 722 800 l 711 831 q 808 835 769 829 q 869 852 846 840 q 904 882 893 864 q 918 924 915 900 q 913 982 918 944 q 891 1057 908 1019 q 840 1122 874 1094 q 749 1149 807 1149 q 647 1115 686 1149 q 585 1034 608 1082 q 553 933 563 986 q 543 843 544 881 l 632 843 q 601 749 608 807 q 593 639 593 692 l 593 167 q 599 74 593 117 q 617 11 606 31 l 617 0 l 401 0 l 401 11 q 412 35 407 18 q 420 75 417 53 q 426 122 424 97 q 428 167 428 146 l 428 347 q 403 200 415 263 q 376 95 392 138 q 338 28 361 53 q 278 -7 314 3 q 251 -12 264 -11 q 225 -14 238 -14 q 148 6 182 -14 q 91 56 114 25 q 56 128 68 88 q 44 211 44 169 l 44 664 q 43 714 44 688 q 39 765 42 740 q 30 810 36 790 q 15 843 24 831 l 235 843 q 211 756 215 803 q 207 664 207 710 l 207 239 q 217 152 207 185 q 240 103 226 119 q 271 83 254 86 q 300 85 288 81 q 333 129 314 89 q 370 235 351 169 q 405 387 389 301 q 431 565 421 472 l 431 631 z "},"":{"ha":672,"x_min":7,"x_max":672,"o":"m 208 210 q 210 178 208 201 q 215 126 211 156 q 223 67 218 97 q 233 18 228 38 l 233 0 l 7 0 l 7 11 q 20 50 14 24 q 32 107 26 76 q 40 168 38 138 q 43 218 43 199 l 43 865 q 42 908 43 885 q 37 953 40 931 q 29 993 33 975 q 19 1021 25 1011 l 19 1032 l 126 1032 q 155 1092 138 1064 q 197 1142 172 1121 q 254 1176 221 1164 q 331 1189 288 1189 q 431 1165 390 1189 q 494 1102 471 1140 q 528 1017 518 1064 q 539 928 539 971 l 539 831 l 628 831 l 628 800 l 539 800 l 539 232 q 542 159 539 188 q 550 114 544 131 q 562 90 556 97 q 576 79 568 83 q 594 80 585 75 q 610 94 603 85 q 624 115 618 104 q 632 135 629 126 l 672 124 q 649 58 665 85 q 613 15 633 32 q 568 -8 592 -1 q 524 -15 544 -15 q 434 10 467 -15 q 385 72 401 35 q 365 151 369 108 q 361 228 361 193 l 361 676 q 355 740 361 717 q 339 776 349 764 q 317 791 329 788 q 294 794 306 794 l 294 825 q 391 829 353 824 q 453 847 429 835 q 488 876 476 858 q 501 918 499 894 q 497 978 501 939 q 474 1054 492 1017 q 423 1120 457 1092 q 331 1149 389 1149 q 228 1114 265 1149 q 169 1032 192 1079 l 235 1032 l 235 1021 q 216 964 221 997 q 208 872 211 931 l 208 210 z "},"":{"ha":1168,"x_min":0,"x_max":1172,"o":"m 710 911 q 714 939 713 925 q 715 967 715 953 q 713 999 715 982 q 703 1032 710 1015 l 1007 1032 q 996 1001 1001 1018 q 986 969 990 985 q 980 944 982 954 q 978 931 978 933 l 1067 378 q 1082 303 1071 349 q 1108 214 1093 258 q 1138 131 1122 169 q 1165 75 1153 92 l 849 75 q 878 229 878 142 q 874 303 878 264 l 860 375 l 649 375 l 610 199 q 604 150 604 172 q 612 110 604 126 q 631 75 619 94 l 508 75 q 527 99 518 85 q 544 131 536 114 q 557 164 551 147 q 565 193 563 181 l 710 911 m 365 149 q 621 -25 508 28 q 833 -78 733 -78 q 999 -43 919 -78 q 1165 50 1078 -8 l 1172 43 q 1037 -81 1101 -31 q 915 -162 972 -132 q 806 -206 858 -193 q 708 -219 754 -219 q 558 -187 626 -219 q 431 -110 490 -154 q 319 -24 372 -67 q 214 39 265 19 q 213 19 211 29 q 214 0 214 10 l 0 0 q 31 53 25 24 q 36 113 36 83 l 36 935 q 31 984 36 960 q 0 1032 25 1008 l 269 1032 q 231 992 246 1017 q 217 935 217 968 l 217 86 l 365 149 m 853 414 l 757 946 l 657 414 l 853 414 z "},"":{"ha":1197,"x_min":0,"x_max":1172,"o":"m 365 149 q 621 -25 508 28 q 833 -78 733 -78 q 999 -43 919 -78 q 1165 50 1078 -8 l 1172 43 q 1037 -81 1101 -31 q 915 -162 972 -132 q 806 -206 858 -193 q 708 -219 754 -219 q 558 -187 626 -219 q 431 -110 490 -154 q 319 -24 372 -67 q 214 39 265 19 q 213 19 211 29 q 214 0 214 10 l 0 0 q 31 53 25 24 q 36 113 36 83 l 36 935 q 31 984 36 960 q 0 1032 25 1008 l 269 1032 q 232 992 247 1017 q 217 935 217 968 l 217 86 l 365 149 m 822 615 l 1014 615 l 1010 414 l 997 414 q 982 457 996 426 q 945 519 968 488 q 891 576 922 551 q 822 600 860 600 l 822 88 q 962 118 908 88 q 1047 192 1015 149 q 1094 281 1079 235 q 1118 360 1110 328 l 1128 360 l 1111 75 l 601 75 q 620 154 621 107 q 619 244 619 201 l 619 843 q 616 941 619 892 q 593 1036 613 990 l 1111 1036 l 1128 739 l 1118 739 q 1085 827 1103 778 q 1035 920 1067 876 q 952 994 1003 964 q 822 1024 901 1024 l 822 615 z "},"":{"ha":968,"x_min":0,"x_max":940,"o":"m 365 149 q 479 63 428 97 q 574 6 531 28 q 653 -24 617 -15 q 718 -32 689 -32 q 782 -23 753 -32 q 837 -1 811 -14 q 886 26 863 13 q 935 50 910 40 l 940 43 q 779 -92 864 -53 q 608 -132 694 -132 q 497 -117 553 -132 q 391 -79 442 -103 q 295 -25 340 -56 q 214 39 250 6 q 213 19 211 29 q 214 0 214 10 l 0 0 q 31 53 25 24 q 36 113 36 83 l 36 935 q 31 984 36 960 q 0 1032 25 1008 l 269 1032 q 217 935 217 1003 l 217 86 l 365 149 m 851 1032 q 819 980 832 1011 q 807 917 807 949 l 807 340 q 818 260 807 292 q 851 208 829 228 l 574 208 q 588 233 581 218 q 600 267 594 249 q 610 304 606 285 q 614 340 614 324 l 614 919 q 606 984 614 958 q 574 1032 599 1010 l 851 1032 m 626 86 l 710 185 l 789 89 l 706 -10 l 626 86 z "},"":{"ha":1118,"x_min":0,"x_max":1172,"o":"m 778 40 q 662 64 715 40 q 570 147 608 88 q 510 305 532 206 q 489 556 489 404 q 563 911 489 790 q 778 1032 636 1032 q 896 1001 840 1032 q 992 912 951 971 q 1058 764 1033 853 q 1082 558 1082 675 q 1058 297 1082 397 q 994 139 1035 196 q 897 61 953 82 q 778 40 842 40 m 365 149 q 621 -25 508 28 q 833 -78 733 -78 q 999 -43 919 -78 q 1165 50 1078 -8 l 1172 43 q 1037 -81 1101 -31 q 915 -162 972 -132 q 806 -206 858 -193 q 708 -219 754 -219 q 558 -187 626 -219 q 431 -110 490 -154 q 319 -24 372 -67 q 214 39 265 19 q 213 19 211 29 q 214 0 214 10 l 0 0 q 31 53 25 24 q 36 113 36 83 l 36 935 q 31 984 36 960 q 0 1032 25 1008 l 269 1032 q 217 935 217 1003 l 217 86 l 365 149 m 781 56 q 826 90 807 56 q 857 184 844 124 q 875 328 869 244 q 881 510 881 411 q 873 700 881 608 q 852 862 865 792 q 821 974 839 932 q 781 1017 803 1017 q 736 975 756 1017 q 703 863 717 933 q 682 702 689 793 q 675 511 675 611 q 681 327 675 411 q 701 183 688 243 q 734 89 714 122 q 781 56 754 56 z "},"":{"ha":1139,"x_min":0,"x_max":1172,"o":"m 683 299 q 713 127 683 190 q 811 64 742 64 q 889 126 861 64 q 917 299 917 188 l 917 938 q 908 989 917 963 q 874 1032 899 1015 l 1115 1032 q 1094 1001 1103 1021 q 1086 938 1086 981 l 1086 296 q 1063 185 1086 235 q 1003 102 1040 136 q 918 50 965 68 q 822 32 871 32 q 584 102 665 32 q 503 296 503 172 l 503 939 q 499 990 503 967 q 469 1032 494 1014 l 718 1032 q 688 988 693 1013 q 683 939 683 963 l 683 299 m 365 149 q 621 -25 508 28 q 833 -78 733 -78 q 999 -43 919 -78 q 1165 50 1078 -8 l 1172 43 q 1037 -81 1101 -31 q 915 -162 972 -132 q 806 -206 858 -193 q 708 -219 754 -219 q 558 -187 626 -219 q 431 -110 490 -154 q 319 -24 372 -67 q 214 39 265 19 q 213 19 211 29 q 214 0 214 10 l 0 0 q 31 53 25 24 q 36 113 36 83 l 36 935 q 31 984 36 960 q 0 1032 25 1008 l 269 1032 q 217 935 217 1003 l 217 86 l 365 149 z "},"":{"ha":1150,"x_min":0,"x_max":1172,"o":"m 715 1032 q 684 959 690 1003 q 678 869 678 915 l 678 575 l 914 576 l 914 869 q 913 922 914 896 q 908 969 911 947 q 897 1008 904 992 q 876 1032 889 1025 l 1122 1032 q 1102 1008 1110 1025 q 1090 969 1094 992 q 1085 920 1086 946 q 1083 869 1083 894 l 1083 283 q 1088 234 1083 260 q 1099 186 1093 208 q 1114 147 1106 164 q 1128 122 1122 131 l 858 122 q 867 136 858 126 q 887 165 876 146 q 906 213 897 183 q 914 283 914 242 l 914 542 l 678 542 l 678 283 q 681 236 678 261 q 690 190 685 211 q 703 150 696 168 q 715 122 710 132 l 468 122 q 492 195 481 150 q 503 283 503 240 l 503 869 q 502 919 503 893 q 498 967 501 944 q 488 1006 494 989 q 468 1032 481 1024 l 715 1032 m 269 1032 q 217 935 217 1003 l 217 86 l 365 149 q 621 -25 508 28 q 833 -78 733 -78 q 999 -43 919 -78 q 1165 50 1078 -8 l 1172 43 q 1037 -81 1101 -31 q 915 -162 972 -132 q 806 -206 858 -193 q 708 -219 754 -219 q 558 -187 626 -219 q 431 -110 490 -154 q 319 -24 372 -67 q 214 39 265 19 q 213 19 211 29 q 214 0 214 10 l 0 0 q 28 51 19 19 q 36 113 36 83 l 36 935 q 31 984 36 960 q 0 1032 25 1008 l 269 1032 z "},"":{"ha":1057,"x_min":0,"x_max":1172,"o":"m 365 149 q 621 -25 508 28 q 833 -78 733 -78 q 999 -43 919 -78 q 1165 50 1078 -8 l 1172 43 q 1037 -81 1101 -31 q 915 -162 972 -132 q 806 -206 858 -193 q 708 -219 754 -219 q 558 -187 626 -219 q 431 -110 490 -154 q 319 -24 372 -67 q 214 39 265 19 q 213 19 211 29 q 214 0 214 10 l 0 0 q 24 53 13 24 q 36 113 36 83 l 36 935 q 31 984 36 960 q 0 1032 25 1008 l 269 1032 q 217 935 217 1003 l 217 86 l 365 149 m 982 208 q 1011 162 993 182 q 1064 122 1029 142 l 756 122 q 783 157 772 138 q 793 196 793 176 q 790 215 793 201 l 660 551 l 660 208 q 667 159 660 176 q 699 122 674 142 l 464 122 q 480 158 475 138 q 485 208 485 178 l 485 944 q 482 989 485 967 q 464 1032 479 1011 l 697 1032 q 660 899 660 985 l 660 646 q 754 757 718 704 q 811 853 790 810 q 840 932 832 897 q 847 990 847 967 q 840 1032 847 1013 l 1058 1032 l 1058 1022 l 660 593 l 660 574 q 728 615 692 594 q 807 660 765 636 l 982 208 z "},"":{"ha":1142,"x_min":0,"x_max":1172,"o":"m 653 226 q 661 185 653 204 q 690 143 669 167 l 474 143 q 493 183 488 161 q 499 226 499 204 l 499 904 q 494 978 499 947 q 474 1032 489 1010 l 653 1032 q 773 869 725 960 q 850 690 821 778 q 894 528 879 603 q 914 411 908 453 l 914 949 q 899 998 910 978 q 869 1032 889 1018 l 1115 1032 q 1094 1001 1101 1019 q 1086 949 1086 983 l 1086 226 q 1090 185 1085 206 q 1108 143 1094 164 l 876 143 q 903 184 899 163 q 908 228 908 206 l 911 292 q 890 396 904 339 q 858 510 876 453 q 817 622 840 568 q 768 720 794 676 q 713 791 742 764 q 653 822 683 818 l 653 226 m 269 1032 q 233 994 250 1019 q 217 935 217 968 l 217 86 l 365 149 q 621 -25 508 28 q 833 -78 733 -78 q 999 -43 919 -78 q 1165 50 1078 -8 l 1172 43 q 1037 -81 1101 -31 q 915 -162 972 -132 q 806 -206 858 -193 q 708 -219 754 -219 q 558 -187 626 -219 q 431 -110 490 -154 q 319 -24 372 -67 q 214 39 265 19 q 213 19 211 29 q 214 0 214 10 l 0 0 q 31 58 25 33 q 36 113 36 83 l 36 935 q 31 984 36 960 q 0 1032 25 1008 l 269 1032 z "},"":{"ha":1299,"x_min":0,"x_max":1256,"o":"m 244 1032 q 219 965 229 1003 q 210 881 210 926 l 210 597 q 299 706 260 658 q 365 790 338 753 q 406 860 392 828 q 419 924 419 892 q 411 990 419 965 q 382 1032 403 1014 l 660 1032 l 660 1021 l 210 535 l 210 511 l 407 504 q 479 297 443 383 q 560 151 515 210 q 664 56 606 92 q 802 0 722 19 q 988 -27 882 -19 q 1235 -39 1094 -35 l 1239 -49 q 1033 -83 1126 -72 q 858 -94 939 -94 q 635 -64 729 -94 q 473 16 540 -33 q 361 128 406 65 q 288 254 317 190 q 242 378 260 318 q 210 483 224 439 l 210 97 q 222 39 210 63 q 247 0 235 15 l 0 0 q 17 44 13 21 q 22 97 22 67 l 22 933 q 17 983 22 958 q 0 1032 13 1007 l 244 1032 m 810 918 q 818 975 818 946 q 806 1032 818 1006 l 1101 1032 q 1077 979 1082 1008 q 1075 931 1072 950 l 1161 381 q 1174 322 1165 360 q 1194 246 1182 285 q 1222 174 1206 207 q 1256 126 1238 140 l 947 126 q 969 185 963 153 q 976 257 976 218 q 974 298 976 276 q 969 342 972 319 l 957 410 l 750 410 l 715 243 q 708 197 708 213 q 715 158 708 174 q 733 126 722 142 l 615 126 q 629 144 621 131 q 646 176 638 158 q 662 210 654 193 q 672 239 669 228 l 810 918 m 760 446 l 951 446 l 858 950 l 760 446 z "},"":{"ha":1278,"x_min":0,"x_max":1239,"o":"m 244 1032 q 215 963 219 1000 q 210 881 210 926 l 210 593 q 299 702 260 654 q 365 788 338 750 q 406 859 392 826 q 419 924 419 892 q 408 990 419 965 q 382 1032 397 1014 l 660 1032 l 660 1021 l 210 535 l 210 511 l 407 504 q 479 297 443 383 q 560 151 515 210 q 664 56 606 92 q 802 0 722 19 q 988 -27 882 -19 q 1235 -39 1094 -35 l 1239 -49 q 1033 -83 1126 -72 q 858 -94 939 -94 q 635 -65 729 -94 q 473 14 540 -35 q 361 124 406 63 q 288 249 317 185 q 242 372 260 313 q 210 476 224 432 l 210 97 q 222 39 210 63 q 247 0 235 15 l 0 0 q 17 44 13 21 q 22 97 22 67 l 22 933 q 17 983 22 958 q 0 1032 13 1007 l 244 1032 m 928 621 l 1122 621 l 1118 424 l 1106 424 q 1089 466 1103 436 q 1051 527 1075 496 q 997 582 1028 558 q 928 606 965 606 l 928 104 q 1069 134 1015 104 q 1156 206 1124 164 q 1203 293 1188 247 q 1226 369 1218 339 l 1239 369 l 1222 92 l 707 92 q 722 172 719 128 q 725 257 725 215 l 725 843 q 718 941 725 892 q 699 1032 711 990 l 1222 1032 l 1239 740 l 1226 740 q 1194 828 1213 779 q 1143 919 1175 876 q 1060 990 1111 961 q 928 1019 1008 1019 l 928 621 z "},"":{"ha":1040,"x_min":0,"x_max":1239,"o":"m 244 1032 q 215 967 221 1007 q 210 881 210 926 l 210 604 q 299 711 260 665 q 365 794 338 757 q 406 861 392 831 q 419 924 419 892 q 411 989 419 965 q 382 1032 403 1013 l 660 1032 l 660 1021 l 210 535 l 210 511 l 407 504 q 479 297 443 383 q 560 151 515 210 q 664 56 606 92 q 802 0 722 19 q 988 -27 882 -19 q 1235 -39 1094 -35 l 1239 -49 q 1033 -83 1126 -72 q 858 -94 939 -94 q 635 -65 729 -94 q 473 14 540 -35 q 361 124 406 63 q 288 250 317 186 q 242 374 260 314 q 210 478 224 433 l 210 97 q 219 40 210 63 q 247 0 229 17 l 0 0 q 17 44 13 21 q 22 97 22 67 l 22 933 q 17 983 22 958 q 0 1032 13 1007 l 244 1032 m 742 160 l 826 258 l 906 163 l 819 64 l 742 160 m 982 1032 q 951 988 967 1021 q 936 926 936 956 l 936 406 q 949 332 936 360 q 982 286 963 304 l 703 286 q 729 340 717 306 q 742 406 742 375 l 742 929 q 730 991 742 964 q 703 1032 718 1018 l 982 1032 z "},"":{"ha":1274,"x_min":0,"x_max":1239,"o":"m 244 1032 q 215 963 219 1000 q 210 881 210 926 l 210 610 q 299 716 260 671 q 365 798 338 761 q 406 868 392 835 q 419 939 419 901 q 411 989 419 969 q 382 1032 403 1008 l 660 1032 l 660 1021 l 210 535 l 210 511 l 407 504 q 479 297 443 383 q 560 151 515 210 q 664 56 606 92 q 802 0 722 19 q 988 -27 882 -19 q 1235 -39 1094 -35 l 1239 -49 q 1033 -83 1126 -72 q 858 -94 939 -94 q 635 -65 729 -94 q 473 13 540 -35 q 361 122 406 61 q 288 247 317 183 q 242 369 260 310 q 210 474 224 429 l 210 97 q 216 39 210 63 q 247 0 222 15 l 0 0 q 17 44 13 21 q 22 97 22 67 l 22 933 q 17 983 22 958 q 0 1032 13 1007 l 244 1032 m 922 67 q 800 90 856 67 q 703 171 744 114 q 640 325 663 228 q 618 569 618 422 q 695 915 618 797 q 922 1032 772 1032 q 1044 1003 988 1032 q 1145 915 1101 974 q 1214 771 1189 857 q 1239 571 1239 685 q 1214 315 1239 414 q 1146 162 1189 217 q 1045 87 1103 107 q 922 67 988 67 m 924 82 q 971 115 951 82 q 1003 207 990 149 q 1022 347 1015 265 q 1028 524 1028 428 q 1020 709 1028 619 q 999 867 1013 799 q 965 976 985 935 q 924 1017 946 1017 q 876 976 897 1017 q 841 868 856 936 q 819 711 826 800 q 811 525 811 622 q 818 347 811 428 q 840 206 825 265 q 875 115 854 147 q 924 82 896 82 z "},"":{"ha":1192,"x_min":0,"x_max":1239,"o":"m 244 1032 q 221 963 232 1000 q 210 881 210 926 l 210 608 q 299 715 260 669 q 365 796 338 760 q 406 862 392 832 q 419 924 419 892 q 382 1021 419 978 l 382 1032 l 660 1032 l 660 1021 l 210 535 l 210 511 l 407 504 q 479 297 443 383 q 560 151 515 210 q 664 56 606 92 q 802 0 722 19 q 988 -27 882 -19 q 1235 -39 1094 -35 l 1239 -49 q 1033 -83 1126 -72 q 858 -94 939 -94 q 635 -64 729 -94 q 473 17 540 -33 q 361 129 406 67 q 288 257 317 192 q 242 383 260 322 q 210 488 224 443 l 210 97 q 222 39 210 63 q 247 0 235 15 l 0 0 q 17 44 13 21 q 22 97 22 67 l 22 933 q 17 983 22 958 q 0 1032 13 1007 l 244 1032 m 972 1032 q 935 997 951 1021 q 919 943 919 974 l 919 96 q 971 114 946 96 q 1019 160 996 132 q 1064 221 1043 188 q 1099 285 1085 254 q 1123 342 1114 317 q 1132 376 1132 367 l 1142 376 l 1139 83 l 703 83 q 729 130 718 101 q 740 186 740 158 l 740 943 q 703 1032 740 989 l 972 1032 z "},"":{"ha":1360,"x_min":0,"x_max":1332,"o":"m 244 1032 q 217 966 225 1006 q 210 881 210 926 l 210 601 q 299 709 260 663 q 365 792 338 756 q 406 860 392 829 q 419 924 419 892 q 406 989 419 965 q 382 1032 393 1013 l 660 1032 l 660 1021 l 210 535 l 210 511 l 407 504 q 479 297 443 383 q 560 151 515 210 q 664 56 606 92 q 802 0 722 19 q 988 -27 882 -19 q 1235 -39 1094 -35 l 1239 -49 q 1033 -83 1126 -72 q 858 -94 939 -94 q 635 -63 729 -94 q 473 18 540 -32 q 361 131 406 68 q 288 260 317 194 q 242 386 260 325 q 210 492 224 447 l 210 97 q 222 39 210 63 q 247 0 235 15 l 0 0 q 17 44 13 21 q 22 97 22 67 l 22 933 q 19 983 22 958 q 0 1032 15 1008 l 244 1032 m 897 293 q 926 119 897 183 q 1026 56 956 56 q 1105 118 1076 56 q 1133 293 1133 181 l 1133 936 q 1124 988 1133 961 q 1090 1032 1114 1014 l 1332 1032 q 1313 999 1321 1021 q 1306 936 1306 976 l 1306 290 q 1282 178 1306 228 q 1220 94 1258 129 q 1134 42 1182 60 q 1036 24 1086 24 q 796 94 876 24 q 715 290 715 164 l 715 938 q 709 989 715 965 q 681 1032 703 1013 l 932 1032 q 906 990 915 1017 q 897 938 897 964 l 897 293 z "},"":{"ha":1281,"x_min":7,"x_max":1274,"o":"m 390 394 q 487 188 424 278 q 631 35 550 97 q 806 -58 713 -26 q 990 -90 899 -90 q 1135 -69 1065 -90 q 1267 -1 1206 -47 l 1269 -14 q 1013 -154 1131 -112 q 797 -196 896 -196 q 633 -167 708 -196 q 497 -92 558 -139 q 388 15 436 -44 q 305 138 340 75 q 246 260 269 200 q 210 368 222 321 q 210 313 210 343 q 210 249 210 282 q 210 183 210 215 q 211 121 211 150 q 221 60 211 93 q 250 0 231 28 l 7 0 q 35 65 29 28 q 40 138 40 101 l 40 919 q 31 983 40 951 q 7 1032 22 1014 l 278 1032 q 409 1017 351 1032 q 507 968 467 1001 q 569 880 547 935 q 590 746 590 825 q 567 609 590 667 q 500 510 544 551 q 390 441 456 468 q 236 396 324 414 l 390 394 m 208 400 q 299 474 263 433 q 356 561 335 515 q 388 658 378 607 q 397 763 397 708 q 387 871 397 826 q 361 942 376 915 q 327 981 346 969 q 292 993 308 993 q 278 992 283 993 q 245 958 260 986 q 222 865 231 931 q 210 687 214 799 q 208 400 207 575 m 803 915 q 811 969 811 943 q 797 1032 811 1006 l 1111 1032 q 1088 986 1094 1008 q 1083 929 1081 964 l 1175 369 q 1185 313 1178 346 q 1205 244 1193 281 q 1234 174 1217 208 q 1274 111 1251 139 l 947 111 q 974 163 967 135 q 982 225 982 192 q 978 276 982 250 q 969 331 975 303 l 958 399 l 739 399 l 701 231 q 693 174 693 196 q 699 140 693 154 q 719 111 706 126 l 597 111 q 617 134 608 119 q 634 165 626 149 q 647 198 642 182 q 656 225 653 214 l 803 915 m 749 436 l 951 436 l 853 949 l 749 436 z "},"":{"ha":1249,"x_min":7,"x_max":1269,"o":"m 390 394 q 487 188 424 278 q 631 35 550 97 q 806 -58 713 -26 q 990 -90 899 -90 q 1135 -69 1065 -90 q 1267 -1 1206 -47 l 1269 -14 q 1013 -154 1131 -112 q 797 -196 896 -196 q 633 -167 708 -196 q 497 -92 558 -139 q 388 15 436 -44 q 305 138 340 75 q 246 260 269 200 q 210 368 222 321 q 210 313 210 343 q 210 249 210 282 q 210 183 210 215 q 211 121 211 150 q 220 58 211 93 q 250 0 229 24 l 7 0 q 31 67 22 32 q 40 138 40 101 l 40 919 q 31 982 40 951 q 7 1032 22 1013 l 278 1032 q 409 1017 351 1032 q 507 968 467 1001 q 569 880 547 935 q 590 746 590 825 q 567 609 590 667 q 500 510 544 551 q 390 441 456 468 q 236 396 324 414 l 390 394 m 208 400 q 299 474 263 433 q 356 561 335 515 q 388 658 378 607 q 397 763 397 708 q 387 871 397 826 q 361 942 376 915 q 327 981 346 969 q 292 993 308 993 q 278 992 283 993 q 245 958 260 986 q 222 865 231 931 q 210 687 214 799 q 208 400 207 575 m 801 310 q 831 141 801 203 q 932 79 861 79 q 1013 140 985 79 q 1040 310 1040 201 l 1040 939 q 1030 989 1040 963 q 999 1032 1019 1015 l 1243 1032 q 1224 999 1232 1019 q 1215 939 1215 978 l 1215 307 q 1192 198 1215 246 q 1129 117 1168 150 q 1042 65 1090 83 q 943 47 993 47 q 698 116 779 47 q 617 307 617 185 l 617 940 q 582 1032 617 994 l 835 1032 q 808 990 815 1015 q 801 940 801 964 l 801 310 z "},"":{"ha":1200,"x_min":7,"x_max":1269,"o":"m 390 394 q 487 188 424 278 q 631 35 550 97 q 806 -58 713 -26 q 990 -90 899 -90 q 1135 -69 1065 -90 q 1267 -1 1206 -47 l 1269 -14 q 1013 -154 1131 -112 q 797 -196 896 -196 q 633 -167 708 -196 q 497 -92 558 -139 q 388 15 436 -44 q 305 138 340 75 q 246 260 269 200 q 210 368 222 321 q 210 313 210 343 q 210 249 210 282 q 210 183 210 215 q 211 121 211 150 q 218 56 211 93 q 250 0 225 19 l 7 0 q 30 66 19 31 q 40 138 40 101 l 40 919 q 30 983 40 951 q 7 1032 19 1014 l 278 1032 q 409 1017 351 1032 q 507 968 467 1001 q 569 880 547 935 q 590 746 590 825 q 567 609 590 667 q 500 510 544 551 q 390 441 456 468 q 236 396 324 414 l 390 394 m 208 400 q 299 474 263 433 q 356 561 335 515 q 388 658 378 607 q 397 763 397 708 q 387 871 397 826 q 361 942 376 915 q 327 981 346 969 q 292 993 308 993 q 278 992 283 993 q 245 958 260 986 q 222 865 231 931 q 210 687 214 799 q 208 400 207 575 m 836 636 l 1022 636 l 1018 446 l 1007 446 q 992 486 1006 457 q 957 545 979 515 q 904 598 935 575 q 836 621 874 621 l 836 139 q 972 167 919 139 q 1056 236 1025 196 q 1101 320 1086 276 q 1125 394 1117 364 l 1133 394 l 1118 126 l 625 126 l 625 136 q 636 198 632 156 q 640 286 640 240 l 640 850 q 638 907 640 876 q 631 963 635 938 q 622 1006 626 989 q 615 1022 618 1022 l 615 1032 l 1118 1032 l 1133 751 l 1125 751 q 1093 835 1111 789 q 1044 923 1075 882 q 963 992 1013 964 q 836 1019 914 1019 l 836 636 z "},"":{"ha":1261,"x_min":7,"x_max":1272,"o":"m 390 394 q 487 188 424 278 q 631 35 550 97 q 806 -58 713 -26 q 990 -90 899 -90 q 1135 -69 1065 -90 q 1267 -1 1206 -47 l 1269 -14 q 1013 -154 1131 -112 q 797 -196 896 -196 q 633 -167 708 -196 q 497 -92 558 -139 q 388 15 436 -44 q 305 138 340 75 q 246 260 269 200 q 210 368 222 321 q 210 313 210 343 q 210 249 210 282 q 210 183 210 215 q 211 121 211 150 q 221 58 211 93 q 250 0 231 24 l 7 0 q 30 66 19 31 q 40 138 40 101 l 40 919 q 33 982 40 951 q 7 1032 25 1013 l 278 1032 q 409 1017 351 1032 q 507 968 467 1001 q 569 880 547 935 q 590 746 590 825 q 567 609 590 667 q 500 510 544 551 q 390 441 456 468 q 236 396 324 414 l 390 394 m 208 400 q 299 474 263 433 q 356 561 335 515 q 388 658 378 607 q 397 763 397 708 q 387 871 397 826 q 361 942 376 915 q 327 981 346 969 q 292 993 308 993 q 278 992 283 993 q 245 958 260 986 q 222 865 231 931 q 210 687 214 799 q 208 400 207 575 m 860 1032 q 833 959 843 1006 q 822 864 822 913 l 822 561 l 1057 563 l 1057 864 q 1048 963 1057 915 q 1022 1032 1039 1010 l 1267 1032 q 1239 963 1251 1010 q 1226 864 1226 917 l 1226 261 q 1238 165 1226 213 q 1272 94 1249 118 l 1019 94 q 1033 111 1026 101 q 1044 140 1039 121 q 1053 188 1050 158 q 1057 261 1057 217 l 1057 528 l 822 528 l 822 261 q 830 169 822 214 q 860 94 838 124 l 614 94 q 642 169 636 122 q 649 261 649 217 l 649 864 q 647 914 649 889 q 640 962 644 939 q 628 1003 635 985 q 614 1032 622 1021 l 860 1032 z "},"":{"ha":1243,"x_min":7,"x_max":1269,"o":"m 390 394 q 487 188 424 278 q 631 35 550 97 q 806 -58 713 -26 q 990 -90 899 -90 q 1135 -69 1065 -90 q 1267 -1 1206 -47 l 1269 -14 q 1013 -154 1131 -112 q 797 -196 896 -196 q 633 -167 708 -196 q 497 -92 558 -139 q 388 15 436 -44 q 305 138 340 75 q 246 260 269 200 q 210 368 222 321 q 210 313 210 343 q 210 249 210 282 q 210 183 210 215 q 211 121 211 150 q 221 58 211 93 q 250 0 231 24 l 7 0 q 33 63 25 25 q 40 138 40 101 l 40 919 q 31 983 40 951 q 7 1032 21 1014 l 278 1032 q 409 1017 351 1032 q 507 968 467 1001 q 569 880 547 935 q 590 746 590 825 q 567 609 590 667 q 500 510 544 551 q 390 441 456 468 q 236 396 324 414 l 390 394 m 208 400 q 299 474 263 433 q 356 561 335 515 q 388 658 378 607 q 397 763 397 708 q 387 871 397 826 q 361 942 376 915 q 327 981 346 969 q 292 993 308 993 q 278 992 283 993 q 245 958 260 986 q 222 865 231 931 q 210 687 214 799 q 208 400 207 575 m 1232 376 q 1216 265 1231 326 q 1169 151 1201 204 q 1086 63 1136 99 q 964 26 1036 26 q 851 49 911 26 q 738 130 790 72 q 651 285 686 188 q 617 532 617 382 q 651 774 617 678 q 736 927 686 869 q 841 1008 786 985 q 935 1032 896 1032 q 1112 979 1047 1032 q 1206 807 1176 926 l 1031 678 q 1032 703 1032 690 q 1032 728 1032 715 q 1024 823 1032 776 q 1002 906 1015 869 q 971 966 989 943 q 932 989 953 989 q 928 988 929 989 q 924 988 926 988 q 885 954 901 983 q 858 883 869 925 q 839 790 846 840 q 827 694 832 740 q 821 610 822 647 q 819 556 819 572 q 839 367 819 444 q 890 240 858 289 q 960 167 921 190 q 1040 143 1000 144 q 1095 160 1068 143 q 1144 208 1122 176 q 1182 282 1167 239 q 1201 378 1197 325 l 1232 376 z "},"":{"ha":1072,"x_min":7,"x_max":1269,"o":"m 390 394 q 487 188 424 278 q 631 35 550 97 q 806 -58 713 -26 q 990 -90 899 -90 q 1135 -69 1065 -90 q 1267 -1 1206 -47 l 1269 -14 q 1013 -154 1131 -112 q 797 -196 896 -196 q 633 -167 708 -196 q 497 -92 558 -139 q 388 15 436 -44 q 305 138 340 75 q 246 260 269 200 q 210 368 222 321 q 210 313 210 343 q 210 249 210 282 q 210 183 210 215 q 211 121 211 150 q 222 58 211 93 q 250 0 233 24 l 7 0 q 33 65 26 28 q 40 138 40 101 l 40 919 q 30 982 40 951 q 7 1032 19 1013 l 278 1032 q 409 1017 351 1032 q 507 968 467 1001 q 569 880 547 935 q 590 746 590 825 q 567 609 590 667 q 500 510 544 551 q 390 441 456 468 q 236 396 324 414 l 390 394 m 208 400 q 299 474 263 433 q 356 561 335 515 q 388 658 378 607 q 397 763 397 708 q 387 871 397 826 q 361 942 376 915 q 327 981 346 969 q 292 993 308 993 q 278 992 283 993 q 245 958 260 986 q 222 865 231 931 q 210 687 214 799 q 208 400 207 575 m 803 56 l 886 154 l 965 58 l 882 -40 l 803 56 m 1018 1032 q 985 980 993 1017 q 978 911 978 943 l 978 314 q 992 231 978 268 q 1018 176 1006 194 l 764 176 q 788 238 776 199 q 799 314 799 278 l 799 915 q 788 981 799 950 q 764 1032 776 1013 l 1018 1032 z "},"":{"ha":1019,"x_min":25,"x_max":981,"o":"m 686 -14 q 585 6 632 -14 q 503 74 539 25 q 413 4 463 22 q 307 -14 364 -14 q 194 11 246 -14 q 104 99 142 36 q 46 266 67 161 q 25 531 25 371 q 97 905 25 778 q 307 1032 168 1032 q 408 1006 360 1032 q 494 932 457 981 q 686 1032 567 1032 q 801 1000 747 1032 q 894 906 854 968 q 958 750 935 843 q 981 533 981 657 q 958 256 981 363 q 895 90 935 150 q 801 8 856 29 q 686 -14 747 -14 m 308 3 q 351 39 333 3 q 382 138 369 75 q 400 290 394 201 q 406 482 406 378 q 398 683 406 586 q 378 853 390 779 q 347 971 365 926 q 308 1015 329 1015 q 265 972 283 1015 q 233 854 246 928 q 213 685 219 781 q 206 483 206 589 q 212 290 206 378 q 231 138 218 201 q 264 38 244 74 q 308 3 283 3 m 689 3 q 733 39 714 3 q 763 138 751 75 q 779 290 774 201 q 785 482 785 378 q 778 683 785 586 q 758 853 771 779 q 727 971 744 926 q 689 1015 710 1015 q 647 980 664 1015 q 617 890 629 944 q 599 770 606 836 q 588 643 592 704 q 583 534 585 582 q 582 467 582 486 q 583 376 582 426 q 586 275 583 326 q 596 174 589 224 q 615 87 603 125 q 644 26 626 49 q 689 3 663 3 z "},"":{"ha":1192,"x_min":10,"x_max":1151,"o":"m 858 -14 q 766 0 811 -14 q 684 52 721 14 q 623 160 647 90 q 590 339 599 229 q 572 232 585 293 q 531 116 560 171 q 456 24 503 61 q 333 -14 408 -14 q 226 11 283 -14 q 122 97 169 36 q 42 260 74 158 q 10 517 10 363 q 44 766 10 667 q 126 924 78 865 q 226 1008 174 983 q 317 1032 279 1032 q 486 978 424 1032 q 576 800 549 924 l 418 586 q 419 615 419 601 q 419 643 419 628 q 410 784 419 718 q 386 899 401 850 q 351 975 371 947 q 308 1003 331 1003 q 305 1002 307 1003 q 301 1001 303 1001 q 267 965 282 997 q 242 888 253 933 q 224 788 232 842 q 213 685 217 735 q 207 597 208 636 q 206 540 206 557 q 207 473 206 515 q 215 383 208 431 q 235 285 222 335 q 271 197 249 236 q 327 132 293 157 q 410 107 361 107 q 463 124 435 107 q 515 178 490 142 q 558 269 540 214 q 578 403 575 325 l 578 531 q 649 905 578 778 q 858 1032 719 1032 q 972 1000 919 1032 q 1065 906 1025 968 q 1128 750 1106 843 q 1151 533 1151 657 q 1128 256 1151 363 q 1066 90 1106 150 q 973 8 1026 29 q 858 -14 919 -14 m 860 3 q 903 39 885 3 q 934 138 922 75 q 951 290 946 201 q 957 482 957 378 q 950 683 957 586 q 930 853 943 779 q 899 971 917 926 q 860 1015 881 1015 q 816 972 835 1015 q 784 854 797 928 q 764 685 771 781 q 757 483 757 589 q 763 290 757 378 q 783 138 769 201 q 815 38 796 74 q 860 3 835 3 z "},"":{"ha":1261,"x_min":17,"x_max":1206,"o":"m 378 -14 q 196 30 267 -14 q 85 146 125 74 q 31 310 46 218 q 17 499 17 401 q 40 721 17 622 q 108 888 63 819 q 224 994 154 957 q 385 1032 293 1032 q 441 1031 407 1032 q 515 1022 475 1029 q 594 1001 554 1015 q 669 960 635 986 l 486 594 q 494 719 494 664 q 484 847 494 793 q 458 936 474 900 q 422 990 442 972 q 386 1007 403 1007 q 334 977 364 1007 q 278 884 304 947 q 235 723 253 821 q 217 490 217 625 q 230 292 217 379 q 265 146 243 206 q 315 55 286 86 q 372 24 343 24 l 403 24 l 403 464 q 390 481 403 471 q 353 499 376 490 q 301 515 331 508 q 239 521 272 521 l 239 532 l 597 532 q 572 504 582 521 q 564 464 563 488 l 572 -33 l 535 -14 l 378 -14 m 911 -14 q 799 11 850 -14 q 710 99 747 36 q 653 266 674 161 q 632 531 632 371 q 703 905 632 778 q 911 1032 775 1032 q 1026 1000 972 1032 q 1119 906 1079 968 q 1183 750 1160 843 q 1206 533 1206 657 q 1183 256 1206 363 q 1120 90 1160 150 q 1026 8 1081 29 q 911 -14 972 -14 m 914 3 q 958 39 939 3 q 988 138 976 75 q 1004 290 999 201 q 1010 482 1010 378 q 1003 683 1010 586 q 983 853 996 779 q 952 971 969 926 q 914 1015 935 1015 q 871 972 890 1015 q 838 854 851 928 q 817 685 825 781 q 810 483 810 589 q 816 290 810 378 q 835 138 822 201 q 868 38 849 74 q 914 3 888 3 z "},"":{"ha":1293,"x_min":10,"x_max":1256,"o":"m 592 308 q 576 204 592 261 q 530 99 561 147 q 448 19 499 51 q 326 -14 397 -14 q 220 11 276 -14 q 117 97 164 36 q 40 260 71 158 q 10 517 10 363 q 44 766 10 667 q 126 924 78 865 q 226 1008 174 983 q 317 1032 279 1032 q 486 978 424 1032 q 576 800 549 924 l 408 668 q 410 692 410 679 q 410 717 410 704 q 402 815 410 767 q 381 902 394 864 q 350 965 368 940 q 311 989 332 989 q 308 988 310 989 q 306 988 307 988 q 269 953 285 983 q 243 878 254 922 q 225 781 232 833 q 213 681 218 729 q 207 595 208 633 q 206 540 206 557 q 222 344 206 425 q 265 210 238 263 q 328 133 292 158 q 403 107 364 108 q 456 118 431 107 q 503 153 482 129 q 538 215 524 178 q 558 307 553 253 l 592 308 m 851 1032 q 824 950 833 1000 q 815 847 815 900 l 815 514 l 1044 515 l 1044 847 q 1042 903 1044 875 q 1034 956 1039 931 q 1023 1001 1029 981 q 1010 1032 1017 1021 l 1249 1032 q 1236 1001 1243 1021 q 1223 956 1229 981 q 1213 903 1217 931 q 1210 847 1210 875 l 1210 183 q 1223 78 1210 131 q 1256 0 1236 26 l 1008 0 q 1014 16 1008 4 q 1026 50 1019 28 q 1039 105 1033 72 q 1044 183 1044 138 l 1044 476 l 815 476 l 815 183 q 822 85 815 133 q 851 0 829 36 l 611 0 q 635 86 628 36 q 643 183 643 136 l 643 847 q 641 900 643 874 q 635 951 639 926 q 625 997 631 976 q 611 1032 619 1018 l 851 1032 z "},"":{"ha":1231,"x_min":10,"x_max":1101,"o":"m 650 403 q 634 272 650 344 q 581 136 618 200 q 482 29 543 72 q 331 -14 421 -14 q 222 9 279 -14 q 118 92 165 32 q 40 254 71 151 q 10 517 10 357 q 44 766 10 667 q 126 924 78 865 q 226 1008 174 983 q 317 1032 279 1032 q 494 978 424 1032 q 593 800 565 924 l 394 428 q 386 533 390 474 q 377 653 382 592 q 367 776 372 715 q 353 883 361 836 q 334 958 344 929 q 308 988 324 988 l 306 988 q 269 952 285 983 q 242 875 253 921 q 224 775 231 829 q 213 671 217 721 q 207 579 208 621 q 206 517 206 538 q 207 444 206 486 q 214 356 208 401 q 231 265 219 310 q 264 185 243 221 q 316 128 285 150 q 393 106 347 106 q 460 123 421 106 q 535 190 499 140 q 597 325 571 239 q 626 549 624 411 q 640 509 635 526 q 647 476 644 492 q 649 443 649 460 q 650 403 650 426 m 918 0 l 753 0 l 619 872 q 603 928 615 903 q 577 972 592 953 q 546 1007 563 992 q 515 1032 529 1022 l 772 1032 l 906 182 l 1029 769 q 1035 826 1035 797 q 1020 912 1035 875 q 988 974 1006 949 q 955 1015 969 1000 q 940 1032 940 1029 l 1101 1032 l 918 0 z "},"":{"ha":1126,"x_min":10,"x_max":1117,"o":"m 935 476 l 1024 914 q 1028 947 1028 931 q 1017 997 1028 975 q 985 1032 1006 1019 l 1117 1032 q 1103 1009 1111 1025 q 1089 974 1096 993 q 1076 938 1082 956 q 1068 911 1071 921 l 947 347 l 969 175 q 984 103 976 131 q 1003 58 992 76 q 1031 28 1015 40 q 1068 0 1047 15 l 661 0 q 699 33 681 13 q 732 76 717 53 q 758 127 747 100 q 772 179 769 154 l 782 347 l 651 919 q 619 989 640 968 q 575 1017 599 1010 l 414 535 q 395 699 403 615 q 378 851 388 783 q 357 963 369 919 q 322 1006 344 1006 l 317 1006 q 279 969 296 1000 q 250 892 263 938 q 229 792 238 846 q 215 688 221 738 q 208 598 210 638 q 206 540 206 558 q 222 343 206 425 q 267 208 239 261 q 330 131 294 156 q 404 107 365 107 q 492 135 451 107 q 565 207 533 163 q 616 306 596 251 q 640 415 636 361 l 669 415 q 664 339 669 383 q 644 247 658 294 q 607 153 631 200 q 546 69 583 106 q 456 9 508 32 q 332 -14 403 -14 q 224 11 281 -14 q 120 97 168 36 q 41 260 72 158 q 10 517 10 363 q 44 766 10 667 q 126 924 78 865 q 226 1008 174 983 q 317 1032 279 1032 q 406 1032 369 1032 q 471 1032 443 1032 q 522 1032 499 1032 q 574 1032 546 1032 l 924 1032 q 876 1000 897 1021 q 854 944 854 979 q 854 932 854 938 q 857 919 854 926 l 935 476 z "},"":{"ha":1310,"x_min":7,"x_max":1269,"o":"m 390 394 q 487 188 424 278 q 631 35 550 97 q 806 -58 713 -26 q 990 -90 899 -90 q 1135 -69 1065 -90 q 1267 -1 1206 -47 l 1269 -14 q 1013 -154 1131 -112 q 797 -196 896 -196 q 633 -167 708 -196 q 497 -92 558 -139 q 388 15 436 -44 q 305 138 340 75 q 246 260 269 200 q 210 368 222 321 q 210 313 210 343 q 210 249 210 282 q 210 183 210 215 q 211 121 211 150 q 221 59 211 93 q 250 0 231 25 l 7 0 q 33 66 25 31 q 40 138 40 101 l 40 919 q 31 983 40 951 q 7 1032 22 1014 l 278 1032 q 409 1017 351 1032 q 507 968 467 1001 q 569 880 547 935 q 590 746 590 825 q 567 609 590 667 q 500 510 544 551 q 390 441 456 468 q 236 396 324 414 l 390 394 m 397 763 q 385 880 397 833 q 354 953 372 926 q 315 988 336 979 q 278 992 294 997 q 245 958 260 986 q 222 865 231 931 q 210 687 214 799 q 208 400 207 575 q 299 474 263 433 q 356 561 335 515 q 388 658 378 607 q 397 763 397 708 m 932 43 q 1058 64 999 43 q 1160 142 1117 85 q 1230 303 1204 200 q 1256 568 1256 406 q 1230 775 1256 686 q 1160 924 1204 864 q 1057 1015 1115 985 q 932 1046 999 1046 q 699 924 778 1046 q 619 565 619 803 q 642 312 619 413 q 707 151 665 211 q 806 67 749 92 q 932 43 864 43 m 932 60 q 883 94 904 60 q 848 189 863 128 q 826 335 833 250 q 818 521 818 419 q 826 713 818 621 q 848 876 833 806 q 884 989 863 947 q 932 1031 906 1031 q 975 988 956 1031 q 1009 875 994 946 q 1032 712 1024 804 q 1040 519 1040 619 q 1034 335 1040 419 q 1015 190 1028 251 q 981 94 1001 128 q 932 60 960 60 z "},"":{"ha":869,"x_min":3,"x_max":861,"o":"m 200 356 q 204 237 200 290 q 220 144 208 183 q 254 84 232 106 q 314 60 276 63 q 365 69 342 58 q 406 100 388 81 q 440 145 425 119 q 467 197 456 171 q 510 342 493 261 l 524 338 q 504 192 524 254 q 454 87 485 129 q 388 22 424 44 q 319 -3 353 0 q 209 2 265 -7 q 107 47 153 11 q 32 154 61 83 q 3 346 3 225 q 21 556 3 463 q 76 713 39 649 q 171 810 114 776 q 307 844 228 844 q 362 833 333 844 q 401 801 390 822 q 399 827 400 814 q 399 854 399 840 q 410 954 399 904 q 443 1043 421 1004 q 499 1106 465 1082 q 581 1131 533 1131 q 639 1121 608 1131 q 694 1089 669 1111 q 735 1031 719 1067 q 751 940 751 994 l 751 829 l 842 829 l 842 799 l 751 799 l 751 232 q 754 159 751 188 q 763 114 757 131 q 775 90 768 97 q 790 79 782 83 q 807 80 799 75 q 823 94 815 85 q 837 115 831 104 q 844 135 843 126 l 861 135 q 840 69 856 96 q 804 26 824 43 q 762 2 785 10 q 718 -6 739 -6 q 636 25 665 -6 q 593 101 607 56 q 576 196 579 146 q 574 283 574 246 l 574 622 q 567 696 574 663 q 551 753 561 729 q 529 789 540 776 q 507 801 518 801 l 507 824 q 601 828 564 822 q 659 848 638 835 q 690 880 681 861 q 701 922 699 899 q 672 1047 701 1007 q 593 1089 643 1088 q 525 1066 553 1090 q 480 1006 497 1042 q 455 928 463 969 q 447 853 447 886 q 453 811 447 835 q 466 763 458 788 q 483 715 474 738 q 499 675 492 692 q 481 651 496 674 q 447 596 467 629 q 406 524 428 563 q 367 453 385 486 q 337 399 349 421 q 325 378 325 378 q 351 472 338 417 q 378 580 365 528 q 399 672 390 632 q 407 718 407 711 q 397 744 404 731 q 380 770 390 758 q 356 790 369 782 q 331 799 343 799 q 283 770 304 799 q 249 697 263 742 q 225 600 235 653 q 210 498 215 547 q 202 410 204 449 q 200 356 200 371 z "},"":{"ha":1007,"x_min":7,"x_max":950,"o":"m 10 536 q 41 667 14 610 q 108 763 68 724 q 197 824 149 803 q 293 844 246 844 q 368 831 335 844 q 420 908 392 867 q 474 981 449 950 q 489 1060 478 1022 q 519 1126 500 1099 q 569 1171 539 1154 q 640 1188 599 1188 q 742 1160 704 1188 q 799 1092 779 1133 q 825 1001 819 1051 q 831 906 831 951 l 831 831 l 922 831 l 922 799 l 831 799 l 831 232 q 833 159 831 188 q 842 114 836 131 q 854 90 847 97 q 869 79 861 83 q 887 80 878 75 q 903 94 896 85 q 917 115 911 104 q 925 135 922 126 l 950 125 q 901 22 936 50 q 828 -6 865 -6 q 741 18 775 -6 q 688 77 707 42 q 663 153 669 113 q 656 228 656 193 l 656 654 q 649 723 656 694 q 633 769 643 751 q 611 794 622 786 q 589 801 600 801 l 589 825 q 684 826 646 824 q 746 835 722 828 q 781 858 769 843 q 794 896 792 872 q 793 960 794 918 q 778 1043 792 1001 q 732 1115 764 1085 q 639 1146 700 1146 q 552 1098 585 1146 q 508 972 519 1050 q 532 951 519 963 q 555 930 544 940 q 573 913 565 919 q 581 904 581 906 q 541 891 567 901 q 487 867 515 881 q 433 842 458 854 q 393 821 407 829 q 443 792 418 814 q 489 735 468 769 q 524 656 510 700 q 539 558 538 611 l 539 539 q 524 428 539 488 q 476 319 508 369 q 392 232 443 268 q 269 188 342 196 q 250 186 264 186 q 231 187 240 186 q 213 189 222 188 l 189 124 q 294 132 246 132 q 444 97 388 132 q 501 -25 501 61 q 243 -240 501 -240 q 134 -222 190 -240 q 26 -160 78 -203 l 26 0 q 174 -81 94 -50 q 319 -112 254 -112 q 406 -89 372 -112 q 439 -11 439 -65 q 425 38 439 19 q 388 68 411 57 q 335 83 364 79 q 274 88 306 88 q 186 82 229 88 q 118 74 143 76 q 125 88 119 74 q 138 122 131 101 q 153 164 146 142 q 167 203 161 186 q 156 207 158 206 q 74 267 104 228 q 29 351 44 306 q 10 446 14 397 q 10 536 7 494 m 318 804 q 249 770 279 804 q 199 683 219 736 q 167 565 178 629 q 157 439 157 500 q 162 365 157 400 q 176 302 167 329 q 199 259 185 275 q 233 243 214 243 q 294 282 267 243 q 340 381 321 321 q 370 513 360 442 q 381 646 381 583 q 368 757 381 713 q 328 804 356 801 l 318 804 m 140 94 q 139 94 139 93 l 140 94 z "},"":{"ha":768,"x_min":8,"x_max":742,"o":"m 8 806 l 8 844 q 124 891 76 846 q 189 1001 172 936 q 215 1072 199 1038 q 259 1132 232 1106 q 323 1174 286 1158 q 408 1189 360 1189 q 509 1165 469 1189 q 573 1106 549 1142 q 607 1024 597 1069 q 617 936 617 979 l 617 844 l 707 844 l 707 806 l 617 806 l 617 224 q 619 151 617 179 q 627 106 622 122 q 640 82 632 89 q 656 71 647 75 q 672 72 664 67 q 688 86 681 76 q 701 107 696 96 q 710 126 707 118 l 742 111 q 692 12 729 38 q 617 -14 656 -14 q 528 9 563 -14 q 474 67 494 32 q 447 142 454 101 q 440 219 440 183 l 440 685 q 434 749 440 725 q 417 786 428 774 q 396 802 407 799 q 374 806 385 806 l 374 844 q 469 847 431 843 q 531 860 507 851 q 567 886 556 869 q 581 926 578 903 q 576 985 581 947 q 553 1058 571 1022 q 502 1122 536 1094 q 410 1149 468 1149 q 333 1131 365 1149 q 278 1087 300 1114 q 242 1027 256 1060 q 224 963 229 994 l 224 844 l 285 844 l 285 806 l 224 806 l 224 165 q 225 115 224 133 q 230 87 226 96 q 239 75 233 78 q 253 72 244 72 q 269 81 260 72 q 289 101 279 89 q 306 124 299 113 q 314 140 313 135 l 356 124 q 332 74 347 99 q 297 31 317 50 q 254 -1 276 11 q 210 -12 232 -12 l 192 -12 q 144 -6 171 -12 q 95 26 118 0 q 56 107 72 53 q 40 257 40 161 l 40 806 l 8 806 z "},"":{"ha":710,"x_min":-15,"x_max":725,"o":"m -1 0 q 25 66 18 29 q 32 151 32 103 l 32 692 l -15 692 l -15 722 l 32 722 q 44 836 35 788 q 71 919 53 885 q 116 974 89 953 q 182 1006 143 994 q 205 1074 189 1040 q 247 1133 221 1107 q 309 1174 272 1158 q 392 1189 346 1189 q 494 1161 453 1189 q 559 1091 535 1133 q 593 999 583 1049 q 603 906 603 950 l 603 831 l 694 831 l 694 800 l 603 800 l 603 232 q 606 159 603 188 q 614 114 608 131 q 626 90 619 97 q 642 79 633 83 q 659 80 650 75 q 676 94 668 85 q 690 115 683 104 q 699 135 696 126 l 725 125 q 704 60 719 86 q 670 17 689 33 q 630 -7 651 0 q 589 -14 608 -14 q 506 13 538 -14 q 456 76 474 39 q 433 156 439 114 q 426 228 426 197 l 426 654 q 424 722 426 694 q 415 765 422 749 q 395 789 408 781 q 360 800 382 797 l 360 825 q 456 832 418 829 q 518 841 494 835 q 553 860 542 847 q 567 896 564 872 q 562 959 567 917 q 539 1043 557 1001 q 486 1116 521 1085 q 392 1147 451 1147 q 328 1135 357 1147 q 279 1104 300 1124 q 244 1060 258 1085 q 219 1010 229 1036 q 340 984 281 1013 q 436 915 399 956 l 256 764 l 244 774 q 266 837 260 808 q 272 888 272 865 q 254 959 272 936 q 226 982 236 982 q 215 965 219 982 q 208 923 211 949 q 204 867 206 897 q 202 807 203 836 q 201 755 201 778 q 201 722 201 732 l 289 722 l 289 692 l 201 692 l 201 151 q 213 69 201 108 q 243 0 225 31 l -1 0 z "},"":{"ha":831,"x_min":10,"x_max":856,"o":"m 442 544 q 426 590 435 564 q 403 638 418 615 q 362 677 388 661 q 296 693 336 693 q 242 669 267 693 q 211 596 218 646 l 211 192 q 217 94 215 149 q 236 0 219 40 l 10 0 q 38 94 29 36 q 47 204 47 151 l 47 679 q 44 767 47 724 q 24 846 42 811 l 239 846 q 219 776 224 819 q 211 692 214 732 q 244 756 228 732 q 285 807 260 781 q 290 878 286 838 q 304 960 294 918 q 330 1044 314 1003 q 372 1117 346 1085 q 435 1169 399 1150 q 524 1189 472 1189 q 623 1165 583 1189 q 687 1104 663 1142 q 721 1022 711 1067 q 731 933 731 976 l 731 831 l 822 831 l 822 800 l 731 800 l 731 232 q 733 159 731 188 q 742 114 736 131 q 753 90 747 97 q 768 79 760 83 q 785 80 776 75 q 803 94 794 85 q 817 115 811 104 q 825 135 822 126 l 856 124 q 802 16 840 46 q 724 -14 764 -14 q 635 11 668 -14 q 585 72 603 36 q 561 151 567 108 q 556 228 556 193 l 556 654 q 553 722 556 694 q 542 765 550 749 q 522 789 535 781 q 489 800 508 797 l 489 831 q 584 835 546 829 q 646 852 622 840 q 681 882 669 864 q 694 924 692 900 q 689 987 694 946 q 663 1067 683 1028 q 601 1131 642 1106 q 492 1146 561 1156 q 431 1115 460 1142 q 380 1047 403 1089 q 342 951 357 1006 q 322 835 326 896 q 361 844 342 844 q 404 831 389 844 q 427 799 419 818 q 437 760 435 781 q 442 728 439 740 l 442 544 z "},"":{"ha":664,"x_min":17,"x_max":664,"o":"m 218 192 q 226 94 222 149 q 243 0 229 39 l 17 0 q 32 40 25 17 q 44 92 39 64 q 51 149 49 119 q 53 204 53 178 l 53 679 q 49 769 53 724 q 31 846 44 814 l 125 846 q 132 951 128 892 q 155 1063 136 1010 q 213 1152 174 1115 q 325 1189 253 1189 q 428 1163 388 1189 q 492 1095 468 1136 q 526 1006 517 1054 q 536 914 536 958 l 536 831 l 628 831 l 628 799 l 536 799 l 536 232 q 539 159 536 188 q 547 114 542 131 q 560 90 553 97 q 575 79 567 83 q 592 80 583 75 q 610 94 601 85 q 624 115 618 104 q 632 135 629 126 l 664 124 q 639 52 656 79 q 601 10 622 25 q 558 -9 581 -4 q 514 -14 535 -14 q 453 -3 482 -14 q 404 35 425 8 q 372 110 383 63 q 360 228 360 157 l 360 663 q 353 728 360 703 q 338 767 347 753 q 317 789 328 782 q 294 801 306 796 l 294 825 q 390 827 351 824 q 451 840 428 831 q 486 865 475 849 q 500 904 497 881 q 495 966 500 925 q 473 1047 490 1007 q 421 1117 456 1088 q 326 1147 386 1147 q 234 1114 267 1147 q 185 1033 201 1081 q 166 935 169 986 q 160 846 163 883 l 244 846 q 226 769 233 814 q 218 679 218 724 l 218 192 z "}}}
